<svg version="1.2" xmlns="http://www.w3.org/2000/svg" viewBox="0 0 67 45" width="67" height="45">
	<title>Calque_1</title>
	<style>
		.s0 { fill: #2fb6bc } 
		.s1 { fill: #ea5289 } 
		.s2 { fill: #f088b6 } 
		.s3 { fill: #6b6baf } 
		.s4 { fill: #5e58a2 } 
		.s5 { fill: #473391 } 
		.s6 { fill: #8a87c0 } 
		.s7 { fill: #e60064 } 
	</style>
	<path class="s0" d="m12.7 27.4h-12.7v12.7h12.7z"/>
	<path class="s1" d="m38.2 14.6h-12.7v12.8h12.7z"/>
	<path class="s2" d="m25.5 14.6h-12.8v12.8h12.8z"/>
	<path class="s3" d="m63.7 1.9h-12.8v12.7h12.8z"/>
	<path class="s4" d="m63.7 14.6h-12.8v12.8h12.8z"/>
	<path class="s5" d="m63.7 27.4h-12.8v12.7h12.8z"/>
	<path class="s6" d="m50.9 1.9h-12.7v12.7h12.7z"/>
	<path class="s7" d="m38.2 27.4h-12.7v12.7h12.7z"/>
	<path class="s5" d="m85.2 30.4h-1.9v1.7h1.9z"/>
	<path class="s5" d="m96.5 42.3h-1.9v1.7h1.9z"/>
	<path class="s5" d="m136.3 30.4h-1.9v1.7h1.9z"/>
	<path class="s5" d="m99.1 42.3h-1.9v1.7h1.9z"/>
	<path class="s5" d="m87.9 30.4h-1.9v1.7h1.9z"/>
	<path class="s5" d="m133.6 30.4h-1.9v1.7h1.9z"/>
	<path class="s5" d="m190.9 33.9q-0.9-0.5-2.2-0.5-0.6 0-1.2 0.1-0.7 0.1-1.3 0.3l0.2 1.5q0.7-0.1 1.2-0.1 0.6-0.1 1-0.1 1.2 0 1.7 0.5 0.6 0.5 0.6 1.3v2.2h-22v-8.7h-2v10.6q0 0.5-0.2 0.9-0.2 0.4-0.7 0.6-0.5 0.3-1.3 0.3-0.8 0-1.4-0.3-0.5-0.2-0.8-0.6-0.3-0.5-0.3-1.1 0-0.2 0.1-0.8 0-0.6 0.1-1.4 0.1-0.8 0.3-1.8l-1.9-0.3q-0.1 0.6-0.2 1.3-0.1 0.6-0.2 1.2-0.1 0.6-0.1 1.1-0.1 0.5-0.1 0.8 0 1 0.6 1.8 0.6 0.9 1.6 1.3 1 0.5 2.3 0.5c0.8 0 1.5-0.2 2.2-0.4q0.9-0.5 1.5-1.3 0.5-0.8 0.5-1.8v-0.2h23.9v-3.9q0-1.1-0.5-1.8-0.5-0.8-1.4-1.2z"/>
	<path class="s5" d="m197 30.4h-2v10.4h2z"/>
	<path class="s5" d="m215.6 35q-0.4-0.9-1.3-1.2-0.9-0.4-2.2-0.4-0.9 0-1.7 0.1-0.7 0.2-1.1 0.3-0.1 0.3-0.2 0.9-0.1 0.5-0.1 1.2-0.1 0.7-0.1 1.5 0 0.7 0 1.3 0.1 0.2 0.1 0.4h-6.9v-5.7h-2v7.7q0 0.8-0.3 1.2-0.4 0.5-1 0.5-0.1 0-0.3 0-0.2 0-0.4 0l-0.1 1.6q0.2 0.1 0.5 0.1 0.2 0 0.4 0 0.9 0 1.7-0.4 0.7-0.5 1.1-1.3 0.4-0.7 0.4-1.7v-0.3h13.9v-3.6q0-1.4-0.4-2.2zm-1.5 4.1h-3.1q-0.1-0.3-0.1-0.7-0.1-0.5-0.1-1 0-0.6 0.1-1.2 0.1-0.5 0.1-1 0.5-0.1 1.1-0.1 0.7 0 1.2 0.2 0.4 0.2 0.6 0.6 0.2 0.5 0.2 1.3v1.9z"/>
	<path class="s5" d="m131.7 33.9q-0.8 0.4-1.2 1.2-0.4 0.8-0.4 2 0 1.2 0.4 2h-6.9v-1.9q0-1.4-0.4-2.2-0.5-0.9-1.3-1.2-0.9-0.4-2.2-0.4-0.9 0-1.7 0.1-0.7 0.2-1.1 0.3-0.1 0.3-0.2 0.9-0.1 0.5-0.2 1.2 0 0.7 0 1.5 0 0.7 0 1.3 0.1 0.2 0.1 0.4h-18.3v-5.7h-1.9v5.7h-7.6v-5.7h-3.3q-1.3 0-2.1 0.5-0.8 0.4-1.2 1.2-0.4 0.8-0.4 2.1 0 1.2 0.4 2 0.4 0.8 1.2 1.2 0.8 0.4 2.1 0.4h51.6v-7.4h-3.3q-1.3 0-2.1 0.5zm-44.9 5.2h-1.3q-0.7 0-1-0.1-0.4-0.1-0.6-0.6-0.1-0.4-0.1-1.2 0-0.9 0.2-1.3 0.1-0.5 0.5-0.6 0.4-0.2 1-0.2h1.3v4zm34.8 0h-3q-0.1-0.3-0.1-0.7-0.1-0.5-0.1-1 0-0.6 0.1-1.2 0-0.5 0.1-1 0.5-0.1 1.1-0.1 0.7 0 1.2 0.2 0.4 0.2 0.6 0.6 0.2 0.5 0.1 1.3v1.9zm13.5 0h-1.3q-0.7 0-1-0.1-0.4-0.2-0.6-0.6-0.1-0.4-0.1-1.3 0-0.8 0.1-1.2 0.2-0.4 0.6-0.6 0.3-0.2 1-0.2h1.3v4z"/>
	<path class="s5" d="m148.8 39.1h-6.9v-5.7h-2v7.7q0 0.8-0.3 1.2-0.4 0.5-0.9 0.5-0.1 0-0.3 0-0.3 0-0.5-0.1l-0.1 1.7q0.3 0 0.5 0.1 0.2 0 0.4 0 1 0 1.7-0.5 0.7-0.4 1.1-1.2 0.4-0.7 0.4-1.7v-0.3h8.9v-10.4h-2z"/>
	<path class="s5" d="m155.1 30.4h-2v10.4h2z"/>
	<path class="s5" d="m93.7 14.4l-5.3-12.7h-7.5v23.1h5.3v-16.5l5 12.1h5l5-12.1v16.5h5.4v-23.1h-7.6z"/>
	<path class="s5" d="m124.2 9.1q-1-1.3-2.5-2.1-1.4-0.7-3.2-0.7-1.9 0-3.5 0.7-1.6 0.7-2.7 1.9-1.1 1.2-1.8 3-0.6 1.7-0.6 3.8c0 1.4 0.2 2.7 0.7 3.8q0.6 1.8 1.7 3 1.2 1.2 2.8 1.9 1.5 0.8 3.4 0.8 1.8 0 3.4-0.8 1.5-0.7 2.3-2v2.4h5.2v-18.2h-5.2v2.5zm-0.3 8.5q-0.3 0.8-0.9 1.4-0.7 0.6-1.5 1-0.8 0.3-1.8 0.3-1 0-1.8-0.3-0.8-0.4-1.4-1-0.6-0.6-0.9-1.4-0.4-0.9-0.4-1.8 0-1 0.4-1.9 0.3-0.8 0.9-1.4 0.6-0.6 1.4-1 0.9-0.3 1.8-0.3 2 0 3.3 1.3 1.2 1.2 1.2 3.3 0 1-0.3 1.8z"/>
	<path class="s5" d="m138.4 9.9v-3.3h-5.2v18.2h5.2v-8.3q0-1.3 0.5-2.3 0.5-1 1.4-1.6 0.9-0.6 2.1-0.9 1.2-0.4 2.6-0.3v-5.1q-2 0-3.7 0.9-1.8 0.9-2.9 2.7z"/>
	<path class="s5" d="m160.9 9.1q-1-1.3-2.5-2.1-1.4-0.7-3.2-0.7-1.9 0-3.5 0.7-1.6 0.7-2.7 1.9-1.1 1.2-1.8 3-0.6 1.7-0.6 3.8c0 1.4 0.2 2.7 0.7 3.8q0.6 1.8 1.7 3 1.2 1.2 2.7 1.9 1.6 0.8 3.5 0.8 1.8 0 3.4-0.8 1.5-0.7 2.3-2v2.4h5.2v-18.2h-5.2v2.5zm-0.3 8.5q-0.4 0.8-1 1.4-0.6 0.6-1.4 1-0.8 0.3-1.8 0.3c-0.7 0-1.2-0.1-1.8-0.3q-0.8-0.4-1.4-1-0.6-0.6-0.9-1.4-0.4-0.9-0.4-1.8 0-1 0.4-1.9 0.3-0.8 0.9-1.4 0.6-0.6 1.4-1 0.8-0.3 1.8-0.3 2 0 3.3 1.3 1.2 1.2 1.2 3.3 0 1-0.3 1.8z"/>
	<path class="s5" d="m185.4 8.2q-0.8-0.9-2-1.4-1.2-0.5-2.6-0.5-1.6 0-3.1 0.7-1.5 0.7-2.6 2v-9h-5.2v24.8h5.2v-9.5q0-0.9 0.3-1.7 0.4-0.8 0.9-1.4 0.5-0.6 1.2-0.9 0.7-0.3 1.5-0.3 1.4 0 2.2 0.9 0.9 0.9 0.9 2.4v10.5h5.1v-11.6q0-1.5-0.4-2.8-0.5-1.2-1.4-2.2z"/>
	<path class="s5" d="m208.6 14.2q-0.1-1.7-0.9-3.2-0.7-1.5-2-2.5-1.2-1-2.8-1.6-1.7-0.6-3.6-0.6-2 0-3.8 0.7-1.7 0.7-2.9 1.9-1.3 1.3-2 3-0.6 1.8-0.6 3.8 0 2.1 0.7 3.8 0.7 1.8 1.9 3 1.3 1.3 3.1 2 1.7 0.6 3.8 0.6 3.4 0 5.7-1.6 2.3-1.6 3.1-4.7h-5.1q-0.4 1-1.3 1.5-0.9 0.5-2.1 0.5-1.8 0-3-1-1.1-1-1.4-2.7h13.3q0-0.4 0-0.9 0-0.3 0-0.7 0-0.5-0.1-1.3zm-13.2-0.2q0.4-1.5 1.5-2.4 1.1-0.9 2.6-0.9 1.6 0 2.7 0.9 1.1 0.9 1.3 2.4z"/>
	<path class="s5" d="m216.8 0h-5.2v24.8h5.2z"/>
</svg>