<svg width="28" height="28" viewBox="0 0 28 28" fill="none" xmlns="http://www.w3.org/2000/svg">
<rect width="28" height="28" rx="4" fill="#F6EBFF"/>
<path d="M20.3608 16.6151L19.1233 15.3776C18.7544 15.0116 18.2564 14.8053 17.7369 14.8031C17.2173 14.8009 16.7176 15.003 16.3456 15.3657C16.1471 15.5654 15.8853 15.6896 15.6051 15.717C15.3249 15.7444 15.044 15.6733 14.8106 15.5159C13.8893 14.9011 13.0979 14.1112 12.4813 13.1911C12.3267 12.9551 12.2581 12.673 12.2872 12.3924C12.3163 12.1117 12.4413 11.8497 12.641 11.6504C13.0005 11.2781 13.2 10.7798 13.1967 10.2623C13.1934 9.74474 12.9877 9.24903 12.6236 8.88125L11.3861 7.64375C11.0156 7.27453 10.5138 7.06721 9.99078 7.06721C9.46773 7.06721 8.96599 7.27453 8.5955 7.64375L8.23944 8.00037C6.38319 9.85662 6.52213 13.7592 10.3843 17.6191C12.713 19.9484 15.0569 20.9238 16.9576 20.9238C17.5171 20.9424 18.0747 20.8495 18.598 20.6505C19.1212 20.4515 19.5996 20.1503 20.0053 19.7645L20.3619 19.4079C20.7318 19.0372 20.9394 18.5349 20.9392 18.0112C20.939 17.4876 20.7309 16.9854 20.3608 16.6151ZM19.5654 18.6125L19.2088 18.9691C17.7463 20.4316 14.5181 20.1644 11.1785 16.8243C7.83894 13.4842 7.57119 10.2537 9.03369 8.79125L9.3875 8.43519C9.54681 8.27646 9.76252 8.18733 9.98741 8.18733C10.2123 8.18733 10.428 8.27646 10.5873 8.43519L11.8248 9.67269C11.9812 9.82988 12.07 10.042 12.0722 10.2637C12.0744 10.4855 11.9899 10.6993 11.8366 10.8596C11.4565 11.2421 11.2194 11.7436 11.1651 12.2801C11.1107 12.8166 11.2423 13.3555 11.5379 13.8065C12.2386 14.8549 13.1395 15.7546 14.189 16.4536C14.6387 16.7493 15.1761 16.8817 15.7117 16.8288C16.2472 16.7758 16.7484 16.5408 17.1314 16.1628C17.2914 16.0077 17.5058 15.9216 17.7286 15.923C17.9514 15.9244 18.1648 16.0131 18.3228 16.1701L19.5603 17.4076C19.6401 17.4862 19.7035 17.5798 19.7469 17.683C19.7904 17.7862 19.813 17.897 19.8135 18.009C19.8139 18.121 19.7923 18.232 19.7497 18.3355C19.7071 18.4391 19.6445 18.5332 19.5654 18.6125Z" fill="#473391"/>
</svg>
