<svg width="587" height="580" viewBox="0 0 587 580" fill="none" xmlns="http://www.w3.org/2000/svg">
<g opacity="0.58" filter="url(#filter0_f_16_1948)">
<rect x="56" y="77" width="447" height="447" rx="223.5" fill="url(#paint0_radial_16_1948)"/>
</g>
<g filter="url(#filter1_d_16_1948)">
<rect x="102.625" y="56.5349" width="423.542" height="419" rx="6.62644" fill="white"/>
<path d="M209.782 216.402C231.201 216.402 248.565 199.075 248.565 177.701C248.565 156.327 231.201 139 209.782 139C188.363 139 171 156.327 171 177.701C171 199.075 188.363 216.402 209.782 216.402Z" fill="#E0E0E0"/>
<path d="M415.775 226.835H283.603C277.039 226.835 271.719 221.515 271.719 214.952V159.451L257.148 146.516H271.719H415.775C422.339 146.516 427.659 151.837 427.659 158.4V214.952C427.659 221.515 422.337 226.835 415.775 226.835Z" fill="#EBEBEB"/>
<path d="M406.718 235.828C406.718 236.077 400.406 236.278 392.62 236.278C384.831 236.278 378.52 236.075 378.52 235.828C378.52 235.579 384.831 235.378 392.62 235.378C400.406 235.377 406.718 235.579 406.718 235.828Z" fill="#E0E0E0"/>
<path d="M412.553 236.938C412.402 236.919 412.321 236.889 412.24 236.804L409.513 233.948C409.347 233.775 409.354 233.502 409.527 233.336C409.7 233.173 409.975 233.177 410.137 233.35L412.556 235.883L417.855 230.49C418.027 230.321 418.3 230.319 418.468 230.485C418.639 230.652 418.642 230.926 418.474 231.097L412.86 236.808C412.777 236.891 412.668 236.938 412.553 236.938Z" fill="#FF725E"/>
<path d="M416.449 236.848C416.446 236.848 416.442 236.848 416.439 236.848L415.938 236.836C415.697 236.83 415.511 236.632 415.516 236.393C415.523 236.154 415.751 235.971 415.958 235.971L416.273 235.98L421.756 230.4C421.927 230.231 422.2 230.229 422.366 230.395C422.537 230.563 422.541 230.836 422.373 231.007L416.759 236.72C416.676 236.801 416.567 236.848 416.449 236.848Z" fill="#FF725E"/>
<path d="M414.087 162.409C414.087 162.658 385.23 162.859 349.641 162.859C314.04 162.859 285.189 162.657 285.189 162.409C285.189 162.162 314.04 161.96 349.641 161.96C385.23 161.96 414.087 162.16 414.087 162.409Z" fill="white"/>
<path d="M414.087 171.879C414.087 172.128 385.23 172.329 349.641 172.329C314.04 172.329 285.189 172.126 285.189 171.879C285.189 171.632 314.04 171.43 349.641 171.43C385.23 171.428 414.087 171.63 414.087 171.879Z" fill="white"/>
<path d="M414.087 181.348C414.087 181.597 385.23 181.797 349.641 181.797C314.04 181.797 285.189 181.595 285.189 181.348C285.189 181.1 314.04 180.898 349.641 180.898C385.23 180.898 414.087 181.099 414.087 181.348Z" fill="white"/>
<path d="M414.087 190.816C414.087 191.065 385.23 191.266 349.641 191.266C314.04 191.266 285.189 191.063 285.189 190.816C285.189 190.569 314.04 190.366 349.641 190.366C385.23 190.366 414.087 190.569 414.087 190.816Z" fill="white"/>
<path d="M414.087 200.286C414.087 200.535 385.23 200.736 349.641 200.736C314.04 200.736 285.189 200.533 285.189 200.286C285.189 200.039 314.04 199.836 349.641 199.836C385.23 199.835 414.087 200.037 414.087 200.286Z" fill="white"/>
<path d="M414.087 211.665C414.087 211.914 385.23 212.114 349.641 212.114C314.04 212.114 285.189 211.912 285.189 211.665C285.189 211.418 314.04 211.215 349.641 211.215C385.23 211.214 414.087 211.416 414.087 211.665Z" fill="white"/>
<path d="M209.782 428.402C231.201 428.402 248.565 411.075 248.565 389.701C248.565 368.327 231.201 351 209.782 351C188.363 351 171 368.327 171 389.701C171 411.075 188.363 428.402 209.782 428.402Z" fill="#E0E0E0"/>
<path d="M415.775 438.835H283.603C277.039 438.835 271.719 433.515 271.719 426.952V371.451L257.148 358.516H271.719H415.775C422.339 358.516 427.659 363.837 427.659 370.4V426.952C427.659 433.515 422.337 438.835 415.775 438.835Z" fill="#EBEBEB"/>
<path d="M406.718 447.828C406.718 448.077 400.406 448.278 392.62 448.278C384.831 448.278 378.52 448.075 378.52 447.828C378.52 447.579 384.831 447.378 392.62 447.378C400.406 447.377 406.718 447.579 406.718 447.828Z" fill="#E0E0E0"/>
<path d="M412.553 448.938C412.402 448.919 412.321 448.889 412.24 448.804L409.513 445.948C409.347 445.775 409.354 445.502 409.527 445.336C409.7 445.173 409.975 445.177 410.137 445.35L412.556 447.883L417.855 442.49C418.027 442.321 418.3 442.319 418.468 442.485C418.639 442.652 418.642 442.926 418.474 443.097L412.86 448.808C412.777 448.891 412.668 448.938 412.553 448.938Z" fill="#FF725E"/>
<path d="M416.449 448.848C416.446 448.848 416.442 448.848 416.439 448.848L415.938 448.836C415.697 448.83 415.511 448.632 415.516 448.393C415.523 448.154 415.751 447.971 415.958 447.971L416.273 447.98L421.756 442.4C421.927 442.231 422.2 442.229 422.366 442.395C422.537 442.563 422.541 442.836 422.373 443.007L416.759 448.72C416.676 448.801 416.567 448.848 416.449 448.848Z" fill="#FF725E"/>
<path d="M414.087 374.409C414.087 374.658 385.23 374.859 349.641 374.859C314.04 374.859 285.189 374.657 285.189 374.409C285.189 374.162 314.04 373.96 349.641 373.96C385.23 373.96 414.087 374.16 414.087 374.409Z" fill="white"/>
<path d="M414.087 383.879C414.087 384.128 385.23 384.329 349.641 384.329C314.04 384.329 285.189 384.126 285.189 383.879C285.189 383.632 314.04 383.43 349.641 383.43C385.23 383.428 414.087 383.63 414.087 383.879Z" fill="white"/>
<path d="M414.087 393.348C414.087 393.597 385.23 393.797 349.641 393.797C314.04 393.797 285.189 393.595 285.189 393.348C285.189 393.1 314.04 392.898 349.641 392.898C385.23 392.898 414.087 393.099 414.087 393.348Z" fill="white"/>
<path d="M414.087 402.816C414.087 403.065 385.23 403.266 349.641 403.266C314.04 403.266 285.189 403.063 285.189 402.816C285.189 402.569 314.04 402.366 349.641 402.366C385.23 402.366 414.087 402.569 414.087 402.816Z" fill="white"/>
<path d="M414.087 412.286C414.087 412.535 385.23 412.736 349.641 412.736C314.04 412.736 285.189 412.533 285.189 412.286C285.189 412.039 314.04 411.836 349.641 411.836C385.23 411.835 414.087 412.037 414.087 412.286Z" fill="white"/>
<path d="M414.087 423.665C414.087 423.914 385.23 424.114 349.641 424.114C314.04 424.114 285.189 423.912 285.189 423.665C285.189 423.418 314.04 423.215 349.641 423.215C385.23 423.214 414.087 423.416 414.087 423.665Z" fill="white"/>
<path d="M399.583 329.17C421.002 329.17 438.365 311.843 438.365 290.47C438.365 269.096 421.002 251.769 399.583 251.769C378.164 251.769 360.801 269.096 360.801 290.47C360.801 311.843 378.164 329.17 399.583 329.17Z" fill="#E0E0E0"/>
<path d="M407.867 327.341C428.375 322.559 441.123 302.057 436.341 281.549C431.559 261.041 411.057 248.293 390.549 253.075C370.041 257.857 357.293 278.359 362.075 298.867C366.857 319.375 387.359 332.123 407.867 327.341Z" fill="#424242"/>
<mask id="mask0_16_1948" style="mask-type:luminance" maskUnits="userSpaceOnUse" x="361" y="252" width="77" height="77">
<path d="M407.869 327.341C428.377 322.559 441.125 302.057 436.343 281.549C431.561 261.041 411.059 248.293 390.551 253.075C370.043 257.857 357.295 278.359 362.077 298.867C366.859 319.375 387.361 332.123 407.869 327.341Z" fill="white"/>
</mask>
<g mask="url(#mask0_16_1948)">
<path d="M379.371 262.414H378.891V277.483H379.371V262.414Z" fill="#424242"/>
<path d="M380.401 261.55C380.401 262.253 379.831 262.822 379.129 262.822C378.427 262.822 377.857 262.253 377.857 261.55C377.857 260.848 378.427 260.279 379.129 260.279C379.831 260.279 380.401 260.848 380.401 261.55Z" fill="#039BE5"/>
<path d="M378.335 260.804C378.104 261.036 378 261.305 378.101 261.407C378.203 261.509 378.472 261.404 378.703 261.172C378.934 260.941 379.038 260.673 378.937 260.57C378.836 260.469 378.566 260.573 378.335 260.804Z" fill="white"/>
<path d="M378.594 273.227C377.847 273.227 377.242 273.832 377.242 274.578V277.852C377.242 278.599 377.847 279.203 378.594 279.203H383.799V273.227H378.594Z" fill="#BDBDBD"/>
<path d="M414.223 268.799H384.16C381.972 268.799 380.197 270.574 380.197 272.762V299.032C380.197 301.221 381.972 302.995 384.16 302.995H414.223C416.411 302.995 418.186 301.221 418.186 299.032V272.762C418.187 270.574 416.411 268.799 414.223 268.799Z" fill="#EEEEEE"/>
<path d="M384.161 301.572C382.761 301.572 381.621 300.433 381.621 299.032V272.762C381.621 271.362 382.761 270.222 384.161 270.222H414.224C415.624 270.222 416.764 271.362 416.764 272.762V299.032C416.764 300.433 415.624 301.572 414.224 301.572H384.161Z" fill="white"/>
<path d="M408.183 274.853H390.379C387.329 274.853 384.857 277.326 384.857 280.375C384.857 283.425 387.329 285.897 390.379 285.897H408.183C411.233 285.897 413.706 283.425 413.706 280.375C413.706 277.326 411.233 274.853 408.183 274.853Z" fill="#424242"/>
<path d="M374.773 285.897C374.773 288.893 377.202 291.322 380.198 291.322V280.474C377.202 280.473 374.773 282.901 374.773 285.897Z" fill="#039BE5"/>
<path d="M423.612 285.897C423.612 288.893 421.183 291.322 418.188 291.322V280.474C421.183 280.473 423.612 282.901 423.612 285.897Z" fill="#039BE5"/>
<path d="M404.174 302.995H394.211V311.465H404.174V302.995Z" fill="#E0E0E0"/>
<path d="M404.174 304.596L394.211 303.796V302.995H404.174V304.596Z" fill="#BDBDBD"/>
<path d="M396.758 282.237C396.391 282.237 396.096 282.534 396.096 282.899C396.096 283.265 396.392 283.561 396.758 283.561C397.123 283.561 397.419 283.264 397.419 282.899C397.419 282.533 397.123 282.237 396.758 282.237Z" fill="#039BE5"/>
<path d="M399.281 283.561C399.646 283.561 399.943 283.265 399.943 282.899C399.943 282.534 399.646 282.237 399.281 282.237C398.915 282.237 398.619 282.534 398.619 282.899C398.619 283.265 398.915 283.561 399.281 283.561Z" fill="#039BE5"/>
<path d="M401.804 283.561C402.17 283.561 402.466 283.265 402.466 282.899C402.466 282.534 402.17 282.237 401.804 282.237C401.439 282.237 401.143 282.534 401.143 282.899C401.143 283.265 401.439 283.561 401.804 283.561Z" fill="#039BE5"/>
<path d="M394.232 279.713C393.866 279.713 393.57 280.009 393.57 280.374C393.57 280.74 393.867 281.037 394.232 281.037C394.598 281.037 394.894 280.74 394.894 280.374C394.894 280.009 394.598 279.713 394.232 279.713Z" fill="#039BE5"/>
<path d="M396.758 279.713C396.391 279.713 396.096 280.009 396.096 280.374C396.096 280.74 396.392 281.037 396.758 281.037C397.123 281.037 397.419 280.74 397.419 280.374C397.419 280.009 397.123 279.713 396.758 279.713Z" fill="#039BE5"/>
<path d="M399.281 279.713C398.915 279.713 398.619 280.009 398.619 280.374C398.619 280.74 398.916 281.037 399.281 281.037C399.646 281.037 399.943 280.74 399.943 280.374C399.943 280.009 399.647 279.713 399.281 279.713Z" fill="#039BE5"/>
<path d="M401.804 279.713C401.438 279.713 401.143 280.009 401.143 280.374C401.143 280.74 401.439 281.037 401.804 281.037C402.169 281.037 402.466 280.74 402.466 280.374C402.467 280.009 402.17 279.713 401.804 279.713Z" fill="#039BE5"/>
<path d="M404.331 279.713C403.965 279.713 403.668 280.009 403.668 280.374C403.668 280.74 403.965 281.037 404.331 281.037C404.697 281.037 404.993 280.74 404.993 280.374C404.993 280.009 404.696 279.713 404.331 279.713Z" fill="#039BE5"/>
<path d="M396.758 277.189C396.391 277.189 396.096 277.485 396.096 277.851C396.096 278.217 396.392 278.512 396.758 278.512C397.123 278.512 397.419 278.216 397.419 277.851C397.419 277.485 397.123 277.189 396.758 277.189Z" fill="#039BE5"/>
<path d="M399.281 277.189C398.915 277.189 398.619 277.485 398.619 277.851C398.619 278.217 398.916 278.512 399.281 278.512C399.646 278.512 399.943 278.216 399.943 277.851C399.943 277.485 399.647 277.189 399.281 277.189Z" fill="#039BE5"/>
<path d="M401.804 277.189C401.438 277.189 401.143 277.485 401.143 277.851C401.143 278.217 401.439 278.512 401.804 278.512C402.169 278.512 402.466 278.216 402.466 277.851C402.467 277.485 402.17 277.189 401.804 277.189Z" fill="#039BE5"/>
<path d="M402.138 296.395C402.352 296.395 402.526 296.222 402.526 296.007V292.18C402.526 291.966 402.353 291.792 402.138 291.792C401.923 291.792 401.75 291.965 401.75 292.18V296.007C401.751 296.222 401.924 296.395 402.138 296.395Z" fill="#424242"/>
<path d="M400.668 297.413C400.882 297.413 401.056 297.239 401.056 297.024V291.164C401.056 290.95 400.882 290.775 400.668 290.775C400.454 290.775 400.279 290.949 400.279 291.164V297.024C400.28 297.238 400.454 297.413 400.668 297.413Z" fill="#424242"/>
<path d="M399.197 298.429C399.412 298.429 399.585 298.256 399.585 298.041V290.146C399.585 289.932 399.412 289.758 399.197 289.758C398.982 289.758 398.809 289.931 398.809 290.146V298.041C398.809 298.256 398.982 298.429 399.197 298.429Z" fill="#424242"/>
<path d="M397.724 297.413C397.939 297.413 398.112 297.239 398.112 297.024V291.164C398.112 290.95 397.939 290.775 397.724 290.775C397.51 290.775 397.336 290.949 397.336 291.164V297.024C397.336 297.238 397.509 297.413 397.724 297.413Z" fill="#424242"/>
<path d="M396.251 296.395C396.466 296.395 396.64 296.222 396.64 296.007V292.18C396.64 291.966 396.466 291.792 396.251 291.792C396.038 291.792 395.863 291.965 395.863 292.18V296.007C395.863 296.222 396.037 296.395 396.251 296.395Z" fill="#424242"/>
<path d="M409.496 276.896C409.496 277.423 404.923 277.851 399.28 277.851C393.638 277.851 389.064 277.423 389.064 276.896C389.064 276.369 393.638 275.941 399.28 275.941C404.923 275.941 409.496 276.369 409.496 276.896Z" fill="#616161"/>
<path d="M405.134 309.748H393.253C386.404 309.748 380.852 315.301 380.852 322.15V328.091H417.536V322.15C417.536 315.301 411.983 309.748 405.134 309.748Z" fill="white"/>
</g>
<path d="M187.36 329.926H319.533C326.096 329.926 331.416 324.606 331.416 318.042V279.692L345.987 266.757H331.416H187.36C180.797 266.757 175.477 272.078 175.477 278.641V318.042C175.475 324.604 180.795 329.926 187.36 329.926Z" fill="#EBEBEB"/>
<path d="M313.674 285.505C313.674 285.754 286.452 285.955 252.878 285.955C219.293 285.955 192.076 285.753 192.076 285.505C192.076 285.256 219.293 285.056 252.878 285.056C286.452 285.056 313.674 285.256 313.674 285.505Z" fill="white"/>
<path d="M313.674 295.772C313.674 296.021 286.452 296.222 252.878 296.222C219.293 296.222 192.076 296.021 192.076 295.772C192.076 295.523 219.293 295.323 252.878 295.323C286.452 295.323 313.674 295.523 313.674 295.772Z" fill="white"/>
<path d="M313.674 306.039C313.674 306.288 286.452 306.489 252.878 306.489C219.293 306.489 192.076 306.286 192.076 306.039C192.076 305.79 219.293 305.59 252.878 305.59C286.452 305.59 313.674 305.79 313.674 306.039Z" fill="white"/>
<path d="M313.674 316.306C313.674 316.555 286.452 316.756 252.878 316.756C219.293 316.756 192.076 316.555 192.076 316.306C192.076 316.057 219.293 315.857 252.878 315.857C286.452 315.857 313.674 316.057 313.674 316.306Z" fill="white"/>
<path d="M102.625 63.1614C102.625 59.5017 105.592 56.5349 109.251 56.5349H519.541C523.2 56.5349 526.167 59.5017 526.167 63.1614V109.903H102.625V63.1614Z" fill="#473391"/>
<circle cx="456.309" cy="84.3634" r="5.30115" fill="#F23936"/>
<circle cx="474.864" cy="84.3634" r="5.30115" fill="#FABB18"/>
<circle cx="493.416" cy="84.3634" r="5.30115" fill="#008EFF"/>
<path d="M293.787 81.8931H290.97C290.89 81.4312 290.742 81.0221 290.526 80.6657C290.31 80.3042 290.042 79.998 289.72 79.747C289.399 79.496 289.033 79.3077 288.621 79.1822C288.214 79.0517 287.775 78.9865 287.303 78.9865C286.465 78.9865 285.722 79.1973 285.074 79.619C284.427 80.0356 283.92 80.6481 283.553 81.4563C283.187 82.2595 283.004 83.2409 283.004 84.4006C283.004 85.5803 283.187 86.5742 283.553 87.3825C283.925 88.1857 284.432 88.7931 285.074 89.2047C285.722 89.6114 286.462 89.8147 287.296 89.8147C287.758 89.8147 288.189 89.7544 288.591 89.6339C288.998 89.5084 289.361 89.3252 289.683 89.0843C290.009 88.8433 290.283 88.5471 290.504 88.1957C290.729 87.8443 290.885 87.4427 290.97 86.9909L293.787 87.006C293.681 87.7389 293.453 88.4266 293.101 89.0692C292.755 89.7118 292.301 90.279 291.738 90.771C291.176 91.2579 290.519 91.6394 289.766 91.9155C289.013 92.1866 288.177 92.3222 287.258 92.3222C285.903 92.3222 284.693 92.0084 283.629 91.3809C282.564 90.7534 281.726 89.8473 281.114 88.6626C280.501 87.4778 280.195 86.0572 280.195 84.4006C280.195 82.7389 280.504 81.3183 281.121 80.1386C281.739 78.9538 282.579 78.0477 283.644 77.4202C284.708 76.7927 285.913 76.479 287.258 76.479C288.117 76.479 288.915 76.5994 289.653 76.8404C290.391 77.0814 291.048 77.4353 291.626 77.9021C292.203 78.364 292.677 78.9312 293.049 79.6039C293.425 80.2716 293.671 81.0346 293.787 81.8931ZM298.95 85.3343V92.1113H296.224V76.6898H298.89V82.5105H299.026C299.297 81.8579 299.716 81.3434 300.283 80.9669C300.855 80.5853 301.583 80.3946 302.467 80.3946C303.27 80.3946 303.97 80.5627 304.568 80.8991C305.165 81.2354 305.627 81.7274 305.953 82.375C306.285 83.0226 306.45 83.8132 306.45 84.7469V92.1113H303.724V85.1686C303.724 84.3905 303.524 83.7856 303.122 83.3539C302.725 82.9171 302.168 82.6988 301.45 82.6988C300.968 82.6988 300.537 82.8042 300.155 83.015C299.779 83.2209 299.482 83.5195 299.267 83.9111C299.056 84.3027 298.95 84.7771 298.95 85.3343ZM312.557 92.3448C311.824 92.3448 311.164 92.2142 310.577 91.9532C309.994 91.6871 309.533 91.2956 309.191 90.7785C308.855 90.2614 308.687 89.6239 308.687 88.8659C308.687 88.2133 308.807 87.6736 309.048 87.2469C309.289 86.8202 309.618 86.4789 310.035 86.2228C310.451 85.9668 310.921 85.7735 311.443 85.643C311.97 85.5075 312.514 85.4096 313.077 85.3493C313.754 85.2791 314.304 85.2163 314.726 85.1611C315.147 85.1009 315.454 85.0105 315.644 84.89C315.84 84.7645 315.938 84.5712 315.938 84.3102V84.265C315.938 83.6978 315.77 83.2585 315.434 82.9473C315.097 82.636 314.613 82.4804 313.98 82.4804C313.313 82.4804 312.783 82.626 312.391 82.9171C312.005 83.2083 311.744 83.5522 311.608 83.9488L309.063 83.5873C309.264 82.8845 309.595 82.2972 310.057 81.8253C310.519 81.3484 311.084 80.992 311.751 80.756C312.419 80.5151 313.157 80.3946 313.965 80.3946C314.522 80.3946 315.077 80.4598 315.629 80.5904C316.182 80.7209 316.686 80.9367 317.143 81.2379C317.6 81.5341 317.966 81.9382 318.242 82.4503C318.523 82.9623 318.664 83.6024 318.664 84.3704V92.1113H316.044V90.5225H315.953C315.788 90.8438 315.554 91.145 315.253 91.4261C314.957 91.7022 314.583 91.9256 314.131 92.0963C313.684 92.2619 313.16 92.3448 312.557 92.3448ZM313.265 90.3418C313.812 90.3418 314.287 90.2338 314.688 90.018C315.09 89.7971 315.398 89.5059 315.614 89.1445C315.835 88.783 315.946 88.389 315.946 87.9623V86.5993C315.86 86.6696 315.715 86.7349 315.509 86.7951C315.308 86.8554 315.082 86.9081 314.831 86.9532C314.58 86.9984 314.332 87.0386 314.086 87.0737C313.84 87.1089 313.626 87.139 313.446 87.1641C313.039 87.2193 312.675 87.3097 312.354 87.4352C312.033 87.5607 311.779 87.7364 311.593 87.9623C311.408 88.1832 311.315 88.4693 311.315 88.8207C311.315 89.3227 311.498 89.7017 311.864 89.9577C312.231 90.2138 312.698 90.3418 313.265 90.3418ZM327.18 80.5452V82.6536H320.531V80.5452H327.18ZM322.173 77.7741H324.899V88.6324C324.899 88.9989 324.954 89.28 325.065 89.4758C325.18 89.6666 325.331 89.7971 325.516 89.8674C325.702 89.9377 325.908 89.9728 326.134 89.9728C326.305 89.9728 326.46 89.9602 326.601 89.9351C326.746 89.91 326.857 89.8875 326.932 89.8674L327.391 91.9984C327.246 92.0486 327.037 92.1038 326.766 92.164C326.5 92.2243 326.174 92.2594 325.787 92.2695C325.105 92.2895 324.49 92.1866 323.943 91.9607C323.395 91.7298 322.961 91.3734 322.64 90.8915C322.324 90.4095 322.168 89.8071 322.173 89.0843V77.7741Z" fill="white"/>
</g>
<path d="M389.861 79.9325C381.153 69.1694 382.024 45.3578 382.024 45.3578V25.5349H554.898V166.139C554.898 166.139 527.175 175.412 514.33 166.139C503.687 158.455 500.039 135.713 500.039 135.713C500.039 135.713 463.216 147.648 445.642 135.713C430.721 125.58 424.436 94.6844 424.436 94.6844C424.436 94.6844 399.095 91.3449 389.861 79.9325Z" fill="#F8FAFC"/>
<path d="M382.03 45.8193C382.03 45.8193 381.482 68.4796 390.336 79.0237C399.423 89.8446 422.952 94.2519 422.952 94.2519" stroke="black" stroke-width="2.38558" stroke-linecap="round"/>
<path d="M420.23 80.6101C420.23 80.6101 427.029 123.238 447.516 135.864C470.025 149.735 515.049 131.089 515.049 131.089" stroke="black" stroke-width="2.38558" stroke-linecap="round"/>
<path d="M500.041 136.546C500.041 136.546 502.958 156.169 511.638 163.832C524.233 174.953 554.613 165.879 554.613 165.879" stroke="black" stroke-width="2.38558" stroke-linecap="round"/>
<defs>
<filter id="filter0_f_16_1948" x="0" y="21" width="559" height="559" filterUnits="userSpaceOnUse" color-interpolation-filters="sRGB">
<feFlood flood-opacity="0" result="BackgroundImageFix"/>
<feBlend mode="normal" in="SourceGraphic" in2="BackgroundImageFix" result="shape"/>
<feGaussianBlur stdDeviation="28" result="effect1_foregroundBlur_16_1948"/>
</filter>
<filter id="filter1_d_16_1948" x="42.625" y="0.534912" width="543.543" height="539" filterUnits="userSpaceOnUse" color-interpolation-filters="sRGB">
<feFlood flood-opacity="0" result="BackgroundImageFix"/>
<feColorMatrix in="SourceAlpha" type="matrix" values="0 0 0 0 0 0 0 0 0 0 0 0 0 0 0 0 0 0 127 0" result="hardAlpha"/>
<feOffset dy="4"/>
<feGaussianBlur stdDeviation="30"/>
<feComposite in2="hardAlpha" operator="out"/>
<feColorMatrix type="matrix" values="0 0 0 0 0 0 0 0 0 0 0 0 0 0 0 0 0 0 0.08 0"/>
<feBlend mode="normal" in2="BackgroundImageFix" result="effect1_dropShadow_16_1948"/>
<feBlend mode="normal" in="SourceGraphic" in2="effect1_dropShadow_16_1948" result="shape"/>
</filter>
<radialGradient id="paint0_radial_16_1948" cx="0" cy="0" r="1" gradientUnits="userSpaceOnUse" gradientTransform="translate(279.979 300.859) rotate(-69.1391) scale(1704.58 809.435)">
<stop stop-color="#E9D8FF"/>
<stop offset="1" stop-color="white" stop-opacity="0"/>
<stop offset="1" stop-color="#E9D8FF" stop-opacity="0"/>
</radialGradient>
</defs>
</svg>
