<svg width="561" height="514" viewBox="0 0 561 514" fill="none" xmlns="http://www.w3.org/2000/svg">
<g filter="url(#filter0_d_16_1757)">
<rect x="70.5684" y="65.5349" width="420.17" height="373.484" rx="5.83569" fill="white"/>
<path d="M70.5684 71.3706C70.5684 68.1476 73.1811 65.5349 76.4041 65.5349H484.903C488.126 65.5349 490.738 68.1476 490.738 71.3706V112.22H70.5684V71.3706Z" fill="#473391"/>
<circle cx="430.046" cy="90.044" r="4.66856" fill="#F23936"/>
<circle cx="446.385" cy="90.044" r="4.66856" fill="#FABB18"/>
<circle cx="462.725" cy="90.044" r="4.66856" fill="#008EFF"/>
<path d="M96.9938 96.373H94.3677L99.149 82.7918H102.186L106.974 96.373H104.348L100.721 85.577H100.615L96.9938 96.373ZM97.08 91.048H104.242V93.0242H97.08V91.048ZM112.79 96.572C111.773 96.572 110.9 96.3487 110.171 95.9022C109.445 95.4557 108.886 94.839 108.493 94.052C108.104 93.2607 107.909 92.35 107.909 91.3199C107.909 90.2854 108.108 89.3724 108.506 88.5811C108.904 87.7853 109.465 87.1664 110.19 86.7243C110.92 86.2777 111.782 86.0545 112.777 86.0545C113.603 86.0545 114.335 86.207 114.972 86.512C115.613 86.8127 116.123 87.2393 116.504 87.7919C116.884 88.3401 117.1 88.9812 117.153 89.7151H114.859C114.766 89.2243 114.545 88.8154 114.196 88.4882C113.851 88.1567 113.389 87.9909 112.81 87.9909C112.319 87.9909 111.888 88.1235 111.517 88.3888C111.145 88.6496 110.856 89.0254 110.648 89.5161C110.445 90.0068 110.343 90.5948 110.343 91.2801C110.343 91.9742 110.445 92.571 110.648 93.0706C110.851 93.5657 111.137 93.9481 111.503 94.2178C111.875 94.4831 112.31 94.6157 112.81 94.6157C113.164 94.6157 113.48 94.5494 113.758 94.4168C114.041 94.2797 114.278 94.083 114.468 93.8266C114.658 93.5701 114.788 93.2585 114.859 92.8915H117.153C117.096 93.6121 116.884 94.251 116.517 94.808C116.15 95.3606 115.65 95.7939 115.018 96.1078C114.386 96.4173 113.643 96.572 112.79 96.572ZM124.211 86.1871V88.0439H118.355V86.1871H124.211ZM119.801 83.7467H122.202V93.3093C122.202 93.632 122.25 93.8796 122.348 94.052C122.449 94.22 122.582 94.335 122.745 94.3969C122.909 94.4588 123.09 94.4897 123.289 94.4897C123.44 94.4897 123.577 94.4787 123.7 94.4566C123.829 94.4344 123.926 94.4146 123.992 94.3969L124.397 96.2736C124.268 96.3178 124.085 96.3664 123.846 96.4195C123.612 96.4725 123.325 96.5035 122.984 96.5123C122.383 96.53 121.841 96.4394 121.359 96.2404C120.878 96.0371 120.495 95.7232 120.212 95.2987C119.934 94.8743 119.797 94.3438 119.801 93.7072V83.7467ZM126.219 96.373V86.1871H128.619V96.373H126.219ZM127.426 84.7414C127.045 84.7414 126.718 84.6154 126.444 84.3635C126.17 84.107 126.033 83.7998 126.033 83.4417C126.033 83.0792 126.17 82.7719 126.444 82.5199C126.718 82.2635 127.045 82.1353 127.426 82.1353C127.81 82.1353 128.137 82.2635 128.407 82.5199C128.681 82.7719 128.818 83.0792 128.818 83.4417C128.818 83.7998 128.681 84.107 128.407 84.3635C128.137 84.6154 127.81 84.7414 127.426 84.7414ZM140.186 86.1871L136.559 96.373H133.906L130.279 86.1871H132.839L135.179 93.7536H135.286L137.633 86.1871H140.186ZM146.01 96.572C144.989 96.572 144.107 96.3598 143.364 95.9354C142.626 95.5065 142.058 94.9009 141.66 94.1183C141.262 93.3314 141.063 92.4052 141.063 91.3398C141.063 90.292 141.262 89.3724 141.66 88.5811C142.062 87.7853 142.624 87.1664 143.344 86.7243C144.065 86.2777 144.912 86.0545 145.884 86.0545C146.512 86.0545 147.104 86.1562 147.662 86.3595C148.223 86.5585 148.718 86.8679 149.147 87.2879C149.58 87.7079 149.921 88.2429 150.168 88.8927C150.416 89.5382 150.54 90.3075 150.54 91.2005V91.9366H142.191V90.3185H148.238C148.234 89.8587 148.135 89.4498 147.94 89.0917C147.746 88.7292 147.474 88.444 147.124 88.2362C146.78 88.0284 146.377 87.9246 145.917 87.9246C145.427 87.9246 144.996 88.0439 144.624 88.2827C144.253 88.517 143.963 88.8264 143.756 89.2111C143.552 89.5913 143.448 90.009 143.444 90.4644V91.8769C143.444 92.4693 143.552 92.9777 143.769 93.4021C143.985 93.8221 144.288 94.1449 144.677 94.3703C145.066 94.5914 145.522 94.7019 146.043 94.7019C146.393 94.7019 146.709 94.6533 146.992 94.556C147.275 94.4543 147.52 94.3062 147.728 94.1117C147.936 93.9172 148.093 93.6762 148.199 93.3889L150.44 93.6409C150.299 94.2333 150.029 94.7505 149.631 95.1926C149.238 95.6303 148.734 95.9707 148.119 96.2139C147.505 96.4526 146.802 96.572 146.01 96.572ZM168.934 87.3741H166.453C166.383 86.9674 166.252 86.6071 166.062 86.2932C165.872 85.9749 165.636 85.7052 165.353 85.4842C165.07 85.2631 164.747 85.0973 164.384 84.9868C164.026 84.8719 163.64 84.8144 163.224 84.8144C162.486 84.8144 161.831 85.0001 161.261 85.3714C160.691 85.7384 160.244 86.2777 159.921 86.9895C159.599 87.6969 159.437 88.5612 159.437 89.5824C159.437 90.6214 159.599 91.4967 159.921 92.2085C160.249 92.9158 160.695 93.4508 161.261 93.8133C161.831 94.1714 162.483 94.3504 163.217 94.3504C163.624 94.3504 164.004 94.2974 164.358 94.1913C164.716 94.0808 165.037 93.9194 165.319 93.7072C165.607 93.495 165.848 93.2342 166.042 92.9247C166.241 92.6152 166.378 92.2615 166.453 91.8636L168.934 91.8769C168.841 92.5224 168.64 93.128 168.33 93.6939C168.025 94.2598 167.625 94.7594 167.13 95.1926C166.635 95.6215 166.056 95.9575 165.392 96.2006C164.729 96.4394 163.993 96.5587 163.184 96.5587C161.99 96.5587 160.925 96.2824 159.988 95.7298C159.051 95.1772 158.312 94.3792 157.773 93.3358C157.234 92.2925 156.964 91.0413 156.964 89.5824C156.964 88.1191 157.236 86.8679 157.78 85.829C158.323 84.7857 159.064 83.9877 160.001 83.435C160.938 82.8824 161.999 82.6061 163.184 82.6061C163.94 82.6061 164.643 82.7122 165.293 82.9244C165.943 83.1366 166.522 83.4483 167.03 83.8595C167.539 84.2662 167.957 84.7658 168.284 85.3582C168.615 85.9462 168.832 86.6182 168.934 87.3741ZM173.481 90.4047V96.373H171.081V82.7918H173.428V87.9179H173.547C173.786 87.3432 174.155 86.89 174.655 86.5585C175.159 86.2225 175.8 86.0545 176.578 86.0545C177.285 86.0545 177.902 86.2026 178.428 86.4988C178.954 86.795 179.361 87.2282 179.648 87.7986C179.94 88.3689 180.086 89.0652 180.086 89.8875V96.373H177.686V90.2588C177.686 89.5736 177.509 89.0409 177.155 88.6606C176.806 88.276 176.315 88.0837 175.683 88.0837C175.258 88.0837 174.878 88.1765 174.542 88.3622C174.211 88.5435 173.95 88.8065 173.76 89.1514C173.574 89.4962 173.481 89.914 173.481 90.4047ZM185.464 96.5786C184.819 96.5786 184.237 96.4637 183.72 96.2338C183.207 95.9995 182.801 95.6546 182.5 95.1993C182.204 94.7439 182.056 94.1825 182.056 93.5149C182.056 92.9402 182.162 92.4649 182.374 92.0891C182.586 91.7133 182.876 91.4127 183.243 91.1872C183.61 90.9618 184.023 90.7916 184.483 90.6766C184.947 90.5572 185.427 90.471 185.922 90.418C186.519 90.3561 187.003 90.3008 187.374 90.2522C187.745 90.1991 188.015 90.1196 188.183 90.0135C188.356 89.9029 188.442 89.7327 188.442 89.5028V89.4631C188.442 88.9635 188.294 88.5766 187.997 88.3025C187.701 88.0284 187.275 87.8914 186.718 87.8914C186.13 87.8914 185.663 88.0196 185.318 88.276C184.978 88.5324 184.748 88.8353 184.629 89.1845L182.387 88.8662C182.564 88.2473 182.856 87.73 183.263 87.3145C183.669 86.8945 184.167 86.5806 184.755 86.3728C185.343 86.1606 185.993 86.0545 186.704 86.0545C187.195 86.0545 187.684 86.112 188.17 86.2269C188.656 86.3418 189.1 86.5319 189.503 86.7972C189.905 87.058 190.228 87.4139 190.471 87.8649C190.719 88.3158 190.842 88.8795 190.842 89.5559V96.373H188.535V94.9738H188.455C188.309 95.2567 188.104 95.522 187.838 95.7696C187.577 96.0127 187.248 96.2095 186.85 96.3598C186.457 96.5057 185.995 96.5786 185.464 96.5786ZM186.088 94.8147C186.569 94.8147 186.987 94.7196 187.341 94.5295C187.695 94.335 187.967 94.0786 188.157 93.7602C188.351 93.4419 188.448 93.0949 188.448 92.7191V91.5188C188.373 91.5807 188.245 91.6382 188.064 91.6912C187.887 91.7443 187.688 91.7907 187.467 91.8305C187.246 91.8703 187.027 91.9056 186.81 91.9366C186.594 91.9675 186.406 91.9941 186.247 92.0162C185.889 92.0648 185.568 92.1444 185.285 92.2549C185.002 92.3654 184.779 92.5202 184.615 92.7191C184.452 92.9136 184.37 93.1656 184.37 93.4751C184.37 93.9172 184.531 94.251 184.854 94.4764C185.177 94.7019 185.588 94.8147 186.088 94.8147ZM198.343 86.1871V88.0439H192.487V86.1871H198.343ZM193.933 83.7467H196.333V93.3093C196.333 93.632 196.382 93.8796 196.479 94.052C196.581 94.22 196.713 94.335 196.877 94.3969C197.041 94.4588 197.222 94.4897 197.421 94.4897C197.571 94.4897 197.708 94.4787 197.832 94.4566C197.96 94.4344 198.057 94.4146 198.124 94.3969L198.528 96.2736C198.4 96.3178 198.217 96.3664 197.978 96.4195C197.744 96.4725 197.456 96.5035 197.116 96.5123C196.514 96.53 195.973 96.4394 195.491 96.2404C195.009 96.0371 194.627 95.7232 194.344 95.2987C194.065 94.8743 193.928 94.3438 193.933 93.7072V83.7467Z" fill="white"/>
<g clip-path="url(#clip0_16_1757)">
<rect x="78.1035" y="112.22" width="405.356" height="326.799" rx="6.28459" fill="white"/>
<path d="M97.8279 412.349V420.167H96.4907V412.349H97.8279ZM100.282 412.349V413.423H94.0581V412.349H100.282ZM102.227 411.919V420.167H100.938V411.919H102.227ZM102.001 417.047L101.582 417.042C101.586 416.641 101.641 416.271 101.749 415.93C101.86 415.59 102.014 415.295 102.211 415.044C102.411 414.79 102.651 414.595 102.93 414.459C103.209 414.319 103.519 414.25 103.859 414.25C104.146 414.25 104.403 414.289 104.632 414.368C104.865 414.446 105.066 414.574 105.234 414.749C105.402 414.921 105.529 415.146 105.615 415.426C105.705 415.701 105.749 416.038 105.749 416.435V420.167H104.45V416.424C104.45 416.145 104.409 415.923 104.326 415.759C104.248 415.594 104.131 415.476 103.977 415.404C103.823 415.329 103.635 415.291 103.413 415.291C103.181 415.291 102.975 415.338 102.796 415.431C102.62 415.524 102.474 415.651 102.356 415.812C102.237 415.973 102.148 416.16 102.087 416.371C102.03 416.582 102.001 416.808 102.001 417.047ZM108.21 414.357V420.167H106.91V414.357H108.21ZM106.824 412.832C106.824 412.635 106.889 412.472 107.017 412.343C107.15 412.211 107.332 412.144 107.565 412.144C107.794 412.144 107.975 412.211 108.108 412.343C108.24 412.472 108.306 412.635 108.306 412.832C108.306 413.025 108.24 413.186 108.108 413.315C107.975 413.444 107.794 413.509 107.565 413.509C107.332 413.509 107.15 413.444 107.017 413.315C106.889 413.186 106.824 413.025 106.824 412.832ZM112.651 418.594C112.651 418.465 112.619 418.349 112.555 418.245C112.49 418.138 112.367 418.041 112.184 417.955C112.005 417.869 111.74 417.79 111.389 417.719C111.081 417.651 110.799 417.57 110.541 417.477C110.287 417.38 110.068 417.264 109.886 417.128C109.703 416.992 109.562 416.831 109.461 416.645C109.361 416.459 109.311 416.244 109.311 416C109.311 415.764 109.363 415.54 109.467 415.329C109.571 415.118 109.719 414.932 109.913 414.77C110.106 414.609 110.34 414.482 110.616 414.389C110.895 414.296 111.207 414.25 111.55 414.25C112.037 414.25 112.454 414.332 112.802 414.497C113.153 414.658 113.421 414.878 113.607 415.157C113.793 415.433 113.886 415.744 113.886 416.092H112.592C112.592 415.938 112.553 415.794 112.474 415.662C112.399 415.526 112.284 415.417 112.13 415.334C111.976 415.248 111.783 415.205 111.55 415.205C111.328 415.205 111.144 415.241 110.997 415.313C110.854 415.381 110.747 415.47 110.675 415.581C110.607 415.692 110.573 415.814 110.573 415.947C110.573 416.043 110.591 416.131 110.627 416.21C110.666 416.285 110.731 416.355 110.82 416.419C110.91 416.48 111.031 416.537 111.185 416.591C111.343 416.645 111.54 416.697 111.776 416.747C112.22 416.84 112.601 416.96 112.92 417.107C113.242 417.25 113.489 417.436 113.661 417.665C113.833 417.891 113.919 418.177 113.919 418.524C113.919 418.782 113.863 419.018 113.752 419.233C113.645 419.444 113.487 419.629 113.28 419.786C113.072 419.94 112.823 420.06 112.533 420.146C112.247 420.232 111.925 420.275 111.567 420.275C111.04 420.275 110.595 420.182 110.229 419.996C109.864 419.806 109.587 419.564 109.397 419.271C109.211 418.974 109.118 418.666 109.118 418.347H110.369C110.383 418.587 110.45 418.778 110.568 418.922C110.689 419.061 110.84 419.163 111.019 419.228C111.201 419.289 111.389 419.319 111.583 419.319C111.815 419.319 112.01 419.289 112.168 419.228C112.326 419.163 112.445 419.077 112.528 418.97C112.61 418.859 112.651 418.734 112.651 418.594ZM118.898 418.879L120.241 414.357H121.068L120.842 415.71L119.489 420.167H118.748L118.898 418.879ZM118.109 414.357L119.156 418.9L119.242 420.167H118.415L116.841 414.357H118.109ZM122.324 418.846L123.339 414.357H124.601L123.033 420.167H122.206L122.324 418.846ZM121.207 414.357L122.534 418.825L122.7 420.167H121.959L120.59 415.705L120.364 414.357H121.207ZM127.808 420.275C127.378 420.275 126.99 420.205 126.642 420.065C126.299 419.922 126.005 419.724 125.762 419.469C125.522 419.215 125.337 418.916 125.209 418.573C125.08 418.229 125.015 417.858 125.015 417.461V417.246C125.015 416.791 125.081 416.38 125.214 416.011C125.346 415.642 125.531 415.327 125.767 415.066C126.003 414.801 126.283 414.599 126.605 414.459C126.927 414.319 127.276 414.25 127.652 414.25C128.067 414.25 128.431 414.319 128.742 414.459C129.054 414.599 129.311 414.796 129.515 415.05C129.723 415.3 129.877 415.599 129.977 415.947C130.081 416.294 130.133 416.677 130.133 417.096V417.649H125.644V416.72H128.855V416.618C128.848 416.385 128.801 416.167 128.715 415.963C128.633 415.759 128.506 415.594 128.334 415.469C128.162 415.343 127.933 415.281 127.647 415.281C127.432 415.281 127.24 415.327 127.072 415.42C126.907 415.51 126.769 415.64 126.658 415.812C126.547 415.984 126.462 416.192 126.401 416.435C126.343 416.675 126.315 416.945 126.315 417.246V417.461C126.315 417.715 126.349 417.951 126.417 418.17C126.488 418.385 126.592 418.573 126.728 418.734C126.864 418.895 127.029 419.022 127.222 419.115C127.416 419.204 127.636 419.249 127.883 419.249C128.194 419.249 128.472 419.187 128.715 419.061C128.959 418.936 129.17 418.759 129.349 418.53L130.031 419.19C129.906 419.373 129.743 419.548 129.542 419.716C129.342 419.881 129.097 420.015 128.807 420.119C128.52 420.223 128.187 420.275 127.808 420.275ZM133.468 420.275C133.039 420.275 132.65 420.205 132.303 420.065C131.959 419.922 131.666 419.724 131.422 419.469C131.183 419.215 130.998 418.916 130.869 418.573C130.74 418.229 130.676 417.858 130.676 417.461V417.246C130.676 416.791 130.742 416.38 130.875 416.011C131.007 415.642 131.191 415.327 131.428 415.066C131.664 414.801 131.943 414.599 132.266 414.459C132.588 414.319 132.937 414.25 133.313 414.25C133.728 414.25 134.091 414.319 134.403 414.459C134.714 414.599 134.972 414.796 135.176 415.05C135.384 415.3 135.538 415.599 135.638 415.947C135.742 416.294 135.794 416.677 135.794 417.096V417.649H131.304V416.72H134.516V416.618C134.508 416.385 134.462 416.167 134.376 415.963C134.294 415.759 134.167 415.594 133.995 415.469C133.823 415.343 133.594 415.281 133.307 415.281C133.093 415.281 132.901 415.327 132.733 415.42C132.568 415.51 132.43 415.64 132.319 415.812C132.208 415.984 132.122 416.192 132.061 416.435C132.004 416.675 131.976 416.945 131.976 417.246V417.461C131.976 417.715 132.01 417.951 132.078 418.17C132.149 418.385 132.253 418.573 132.389 418.734C132.525 418.895 132.69 419.022 132.883 419.115C133.076 419.204 133.297 419.249 133.544 419.249C133.855 419.249 134.133 419.187 134.376 419.061C134.619 418.936 134.831 418.759 135.01 418.53L135.692 419.19C135.566 419.373 135.403 419.548 135.203 419.716C135.002 419.881 134.757 420.015 134.467 420.119C134.181 420.223 133.848 420.275 133.468 420.275ZM137.873 411.919V420.167H136.573V411.919H137.873ZM141.481 414.357L138.952 417.16L137.566 418.578L137.228 417.482L138.275 416.188L139.919 414.357H141.481ZM140.198 420.167L138.313 417.439L139.129 416.532L141.696 420.167H140.198Z" fill="#181819" fill-opacity="0.9"/>
<g clip-path="url(#clip1_16_1757)">
<path d="M149.245 415.014L151.949 417.712L154.653 415.014L155.484 415.844L151.949 419.38L148.414 415.844L149.245 415.014Z" fill="#181819" fill-opacity="0.9"/>
</g>
<rect width="405.356" height="0.785574" transform="matrix(1 0 0 -1 78.1035 395.027)" fill="#E6E7E9"/>
<g clip-path="url(#clip2_16_1757)">
<g clip-path="url(#clip3_16_1757)">
<path d="M95.3488 130.996H96.7235L99.3073 137.889L101.885 130.996H103.26L99.8474 139.932H98.755L95.3488 130.996ZM94.7228 130.996H96.03L96.2571 136.962V139.932H94.7228V130.996ZM102.579 130.996H103.892V139.932H102.351V136.962L102.579 130.996ZM104.977 136.686V136.545C104.977 136.066 105.047 135.622 105.186 135.213C105.325 134.8 105.525 134.442 105.787 134.139C106.053 133.832 106.376 133.595 106.757 133.427C107.141 133.255 107.575 133.169 108.058 133.169C108.545 133.169 108.978 133.255 109.359 133.427C109.744 133.595 110.069 133.832 110.335 134.139C110.601 134.442 110.803 134.8 110.942 135.213C111.082 135.622 111.151 136.066 111.151 136.545V136.686C111.151 137.164 111.082 137.608 110.942 138.018C110.803 138.427 110.601 138.785 110.335 139.092C110.069 139.394 109.746 139.632 109.365 139.803C108.985 139.971 108.553 140.055 108.07 140.055C107.583 140.055 107.148 139.971 106.763 139.803C106.382 139.632 106.059 139.394 105.793 139.092C105.527 138.785 105.325 138.427 105.186 138.018C105.047 137.608 104.977 137.164 104.977 136.686ZM106.456 136.545V136.686C106.456 136.984 106.487 137.267 106.548 137.533C106.609 137.799 106.706 138.032 106.837 138.232C106.968 138.433 107.135 138.59 107.34 138.705C107.544 138.819 107.788 138.877 108.07 138.877C108.344 138.877 108.582 138.819 108.782 138.705C108.987 138.59 109.154 138.433 109.285 138.232C109.416 138.032 109.512 137.799 109.574 137.533C109.639 137.267 109.672 136.984 109.672 136.686V136.545C109.672 136.25 109.639 135.972 109.574 135.71C109.512 135.444 109.414 135.209 109.279 135.004C109.148 134.8 108.981 134.64 108.776 134.525C108.575 134.407 108.336 134.347 108.058 134.347C107.78 134.347 107.538 134.407 107.334 134.525C107.133 134.64 106.968 134.8 106.837 135.004C106.706 135.209 106.609 135.444 106.548 135.71C106.487 135.972 106.456 136.25 106.456 136.545ZM113.543 134.71V139.932H112.064V133.292H113.457L113.543 134.71ZM113.28 136.367L112.801 136.36C112.805 135.89 112.87 135.458 112.997 135.065C113.128 134.673 113.308 134.335 113.537 134.053C113.77 133.771 114.049 133.554 114.372 133.402C114.695 133.247 115.055 133.169 115.452 133.169C115.771 133.169 116.06 133.214 116.317 133.304C116.579 133.39 116.802 133.531 116.986 133.728C117.175 133.924 117.318 134.18 117.416 134.495C117.514 134.806 117.563 135.188 117.563 135.642V139.932H116.078V135.636C116.078 135.317 116.031 135.065 115.937 134.881C115.847 134.693 115.714 134.56 115.538 134.482C115.366 134.401 115.151 134.36 114.894 134.36C114.64 134.36 114.413 134.413 114.212 134.519C114.012 134.626 113.842 134.771 113.703 134.955C113.568 135.139 113.464 135.352 113.39 135.593C113.316 135.835 113.28 136.092 113.28 136.367ZM121.803 133.292V134.372H118.059V133.292H121.803ZM119.139 131.665H120.618V138.097C120.618 138.302 120.647 138.459 120.704 138.57C120.766 138.676 120.85 138.748 120.956 138.785C121.062 138.822 121.187 138.84 121.33 138.84C121.433 138.84 121.531 138.834 121.625 138.822C121.719 138.809 121.795 138.797 121.852 138.785L121.858 139.914C121.735 139.951 121.592 139.984 121.429 140.012C121.269 140.041 121.085 140.055 120.876 140.055C120.537 140.055 120.236 139.996 119.974 139.877C119.712 139.754 119.508 139.556 119.36 139.282C119.213 139.008 119.139 138.644 119.139 138.189V131.665ZM124.091 130.505V139.932H122.618V130.505H124.091ZM123.833 136.367L123.354 136.36C123.359 135.902 123.422 135.479 123.545 135.09C123.672 134.701 123.848 134.364 124.073 134.077C124.302 133.787 124.576 133.564 124.895 133.408C125.214 133.249 125.568 133.169 125.957 133.169C126.284 133.169 126.579 133.214 126.84 133.304C127.106 133.394 127.336 133.539 127.528 133.74C127.72 133.936 127.865 134.194 127.964 134.513C128.066 134.828 128.117 135.213 128.117 135.667V139.932H126.632V135.655C126.632 135.336 126.585 135.082 126.491 134.894C126.401 134.705 126.268 134.57 126.092 134.489C125.916 134.403 125.701 134.36 125.447 134.36C125.181 134.36 124.946 134.413 124.742 134.519C124.541 134.626 124.373 134.771 124.238 134.955C124.103 135.139 124.001 135.352 123.931 135.593C123.866 135.835 123.833 136.092 123.833 136.367ZM130.884 130.505V139.932H129.399V130.505H130.884ZM134.117 139.208L135.921 133.292H137.505L134.841 140.945C134.78 141.109 134.7 141.287 134.602 141.479C134.504 141.671 134.375 141.853 134.215 142.025C134.06 142.201 133.865 142.342 133.632 142.449C133.399 142.559 133.116 142.614 132.785 142.614C132.654 142.614 132.527 142.602 132.405 142.578C132.286 142.557 132.173 142.535 132.067 142.51L132.061 141.381C132.102 141.385 132.151 141.389 132.208 141.393C132.27 141.397 132.319 141.399 132.355 141.399C132.601 141.399 132.806 141.369 132.969 141.307C133.133 141.25 133.266 141.156 133.368 141.025C133.474 140.894 133.565 140.718 133.638 140.497L134.117 139.208ZM133.098 133.292L134.675 138.263L134.939 139.822L133.914 140.086L131.502 133.292H133.098ZM143.781 140.055C143.29 140.055 142.846 139.975 142.449 139.816C142.056 139.652 141.721 139.425 141.442 139.135C141.168 138.844 140.957 138.502 140.81 138.11C140.663 137.717 140.589 137.293 140.589 136.839V136.594C140.589 136.074 140.665 135.604 140.816 135.182C140.968 134.761 141.178 134.401 141.448 134.102C141.719 133.799 142.038 133.568 142.406 133.408C142.774 133.249 143.173 133.169 143.603 133.169C144.077 133.169 144.493 133.249 144.849 133.408C145.205 133.568 145.499 133.793 145.732 134.084C145.97 134.37 146.146 134.712 146.26 135.108C146.379 135.505 146.438 135.943 146.438 136.422V137.054H141.307V135.992H144.977V135.876C144.969 135.61 144.916 135.36 144.818 135.127C144.724 134.894 144.579 134.705 144.382 134.562C144.186 134.419 143.924 134.347 143.597 134.347C143.351 134.347 143.132 134.401 142.94 134.507C142.752 134.609 142.594 134.759 142.467 134.955C142.34 135.151 142.242 135.389 142.173 135.667C142.107 135.941 142.074 136.25 142.074 136.594V136.839C142.074 137.13 142.113 137.4 142.191 137.649C142.273 137.895 142.392 138.11 142.547 138.294C142.703 138.478 142.891 138.623 143.112 138.729C143.333 138.832 143.584 138.883 143.867 138.883C144.223 138.883 144.54 138.811 144.818 138.668C145.096 138.525 145.337 138.322 145.542 138.06L146.321 138.815C146.178 139.024 145.992 139.225 145.763 139.417C145.534 139.605 145.254 139.758 144.922 139.877C144.595 139.996 144.214 140.055 143.781 140.055ZM148.407 133.292L149.671 135.495L150.96 133.292H152.586L150.573 136.551L152.666 139.932H151.04L149.69 137.637L148.339 139.932H146.707L148.794 136.551L146.787 133.292H148.407ZM154.77 134.568V142.485H153.291V133.292H154.653L154.77 134.568ZM159.097 136.551V136.68C159.097 137.162 159.04 137.61 158.925 138.024C158.815 138.433 158.649 138.791 158.428 139.098C158.211 139.4 157.943 139.636 157.624 139.803C157.305 139.971 156.937 140.055 156.519 140.055C156.106 140.055 155.744 139.979 155.433 139.828C155.126 139.673 154.866 139.454 154.653 139.171C154.441 138.889 154.269 138.558 154.138 138.177C154.011 137.793 153.921 137.371 153.868 136.913V136.416C153.921 135.929 154.011 135.487 154.138 135.09C154.269 134.693 154.441 134.352 154.653 134.065C154.866 133.779 155.126 133.558 155.433 133.402C155.74 133.247 156.098 133.169 156.507 133.169C156.924 133.169 157.295 133.251 157.618 133.415C157.941 133.574 158.213 133.803 158.434 134.102C158.655 134.397 158.821 134.752 158.931 135.17C159.042 135.583 159.097 136.043 159.097 136.551ZM157.618 136.68V136.551C157.618 136.244 157.589 135.959 157.532 135.698C157.475 135.432 157.385 135.198 157.262 134.998C157.139 134.798 156.982 134.642 156.789 134.532C156.601 134.417 156.374 134.36 156.108 134.36C155.846 134.36 155.621 134.405 155.433 134.495C155.245 134.581 155.087 134.701 154.96 134.857C154.834 135.012 154.735 135.194 154.666 135.403C154.596 135.608 154.547 135.831 154.518 136.072V137.263C154.568 137.557 154.651 137.827 154.77 138.073C154.889 138.318 155.057 138.515 155.273 138.662C155.494 138.805 155.777 138.877 156.12 138.877C156.386 138.877 156.613 138.819 156.802 138.705C156.99 138.59 157.143 138.433 157.262 138.232C157.385 138.028 157.475 137.793 157.532 137.527C157.589 137.261 157.618 136.978 157.618 136.68ZM162.968 140.055C162.477 140.055 162.033 139.975 161.637 139.816C161.244 139.652 160.908 139.425 160.63 139.135C160.356 138.844 160.145 138.502 159.998 138.11C159.851 137.717 159.777 137.293 159.777 136.839V136.594C159.777 136.074 159.853 135.604 160.004 135.182C160.155 134.761 160.366 134.401 160.636 134.102C160.906 133.799 161.225 133.568 161.594 133.408C161.962 133.249 162.361 133.169 162.79 133.169C163.265 133.169 163.68 133.249 164.036 133.408C164.392 133.568 164.687 133.793 164.92 134.084C165.157 134.37 165.333 134.712 165.448 135.108C165.566 135.505 165.626 135.943 165.626 136.422V137.054H160.495V135.992H164.165V135.876C164.157 135.61 164.104 135.36 164.006 135.127C163.911 134.894 163.766 134.705 163.57 134.562C163.373 134.419 163.112 134.347 162.784 134.347C162.539 134.347 162.32 134.401 162.127 134.507C161.939 134.609 161.782 134.759 161.655 134.955C161.528 135.151 161.43 135.389 161.36 135.667C161.295 135.941 161.262 136.25 161.262 136.594V136.839C161.262 137.13 161.301 137.4 161.379 137.649C161.461 137.895 161.579 138.11 161.735 138.294C161.89 138.478 162.078 138.623 162.299 138.729C162.52 138.832 162.772 138.883 163.054 138.883C163.41 138.883 163.727 138.811 164.006 138.668C164.284 138.525 164.525 138.322 164.73 138.06L165.509 138.815C165.366 139.024 165.18 139.225 164.951 139.417C164.722 139.605 164.441 139.758 164.11 139.877C163.783 139.996 163.402 140.055 162.968 140.055ZM167.932 134.71V139.932H166.453V133.292H167.846L167.932 134.71ZM167.668 136.367L167.19 136.36C167.194 135.89 167.259 135.458 167.386 135.065C167.517 134.673 167.697 134.335 167.926 134.053C168.159 133.771 168.437 133.554 168.761 133.402C169.084 133.247 169.444 133.169 169.841 133.169C170.16 133.169 170.448 133.214 170.706 133.304C170.968 133.39 171.191 133.531 171.375 133.728C171.563 133.924 171.707 134.18 171.805 134.495C171.903 134.806 171.952 135.188 171.952 135.642V139.932H170.467V135.636C170.467 135.317 170.42 135.065 170.326 134.881C170.236 134.693 170.103 134.56 169.927 134.482C169.755 134.401 169.54 134.36 169.282 134.36C169.029 134.36 168.802 134.413 168.601 134.519C168.401 134.626 168.231 134.771 168.092 134.955C167.957 135.139 167.852 135.352 167.779 135.593C167.705 135.835 167.668 136.092 167.668 136.367ZM176.873 138.134C176.873 137.987 176.836 137.854 176.762 137.735C176.689 137.612 176.548 137.502 176.339 137.404C176.134 137.306 175.832 137.216 175.431 137.134C175.079 137.056 174.756 136.964 174.461 136.858C174.171 136.747 173.921 136.614 173.712 136.459C173.504 136.303 173.342 136.119 173.227 135.906C173.113 135.694 173.056 135.448 173.056 135.17C173.056 134.9 173.115 134.644 173.234 134.403C173.352 134.161 173.522 133.949 173.743 133.764C173.964 133.58 174.232 133.435 174.547 133.329C174.866 133.222 175.222 133.169 175.615 133.169C176.171 133.169 176.648 133.263 177.045 133.451C177.446 133.636 177.753 133.887 177.965 134.206C178.178 134.521 178.285 134.877 178.285 135.274H176.805C176.805 135.098 176.76 134.935 176.67 134.783C176.585 134.628 176.454 134.503 176.278 134.409C176.102 134.311 175.881 134.262 175.615 134.262C175.361 134.262 175.15 134.302 174.983 134.384C174.819 134.462 174.696 134.564 174.614 134.691C174.537 134.818 174.498 134.957 174.498 135.108C174.498 135.219 174.518 135.319 174.559 135.409C174.604 135.495 174.678 135.575 174.78 135.649C174.882 135.718 175.022 135.784 175.197 135.845C175.378 135.906 175.603 135.966 175.873 136.023C176.38 136.129 176.816 136.266 177.18 136.434C177.548 136.598 177.83 136.811 178.027 137.072C178.223 137.33 178.321 137.657 178.321 138.054C178.321 138.349 178.258 138.619 178.131 138.864C178.008 139.106 177.828 139.317 177.591 139.497C177.354 139.673 177.069 139.81 176.738 139.908C176.411 140.006 176.042 140.055 175.633 140.055C175.032 140.055 174.522 139.949 174.105 139.736C173.688 139.519 173.371 139.243 173.154 138.907C172.941 138.568 172.835 138.216 172.835 137.852H174.265C174.281 138.126 174.357 138.345 174.492 138.509C174.631 138.668 174.803 138.785 175.007 138.858C175.216 138.928 175.431 138.963 175.652 138.963C175.918 138.963 176.141 138.928 176.321 138.858C176.501 138.785 176.638 138.687 176.732 138.564C176.826 138.437 176.873 138.294 176.873 138.134ZM182.23 140.055C181.739 140.055 181.295 139.975 180.898 139.816C180.505 139.652 180.17 139.425 179.891 139.135C179.617 138.844 179.406 138.502 179.259 138.11C179.112 137.717 179.038 137.293 179.038 136.839V136.594C179.038 136.074 179.114 135.604 179.265 135.182C179.417 134.761 179.627 134.401 179.897 134.102C180.167 133.799 180.487 133.568 180.855 133.408C181.223 133.249 181.622 133.169 182.052 133.169C182.526 133.169 182.942 133.249 183.297 133.408C183.653 133.568 183.948 133.793 184.181 134.084C184.419 134.37 184.595 134.712 184.709 135.108C184.828 135.505 184.887 135.943 184.887 136.422V137.054H179.756V135.992H183.426V135.876C183.418 135.61 183.365 135.36 183.267 135.127C183.173 134.894 183.027 134.705 182.831 134.562C182.635 134.419 182.373 134.347 182.045 134.347C181.8 134.347 181.581 134.401 181.389 134.507C181.201 134.609 181.043 134.759 180.916 134.955C180.789 135.151 180.691 135.389 180.622 135.667C180.556 135.941 180.523 136.25 180.523 136.594V136.839C180.523 137.13 180.562 137.4 180.64 137.649C180.722 137.895 180.841 138.11 180.996 138.294C181.151 138.478 181.34 138.623 181.561 138.729C181.782 138.832 182.033 138.883 182.316 138.883C182.671 138.883 182.989 138.811 183.267 138.668C183.545 138.525 183.786 138.322 183.991 138.06L184.77 138.815C184.627 139.024 184.441 139.225 184.212 139.417C183.983 139.605 183.703 139.758 183.371 139.877C183.044 139.996 182.663 140.055 182.23 140.055ZM189.452 138.134C189.452 137.987 189.415 137.854 189.342 137.735C189.268 137.612 189.127 137.502 188.918 137.404C188.713 137.306 188.411 137.216 188.01 137.134C187.658 137.056 187.335 136.964 187.04 136.858C186.75 136.747 186.5 136.614 186.291 136.459C186.083 136.303 185.921 136.119 185.806 135.906C185.692 135.694 185.635 135.448 185.635 135.17C185.635 134.9 185.694 134.644 185.813 134.403C185.931 134.161 186.101 133.949 186.322 133.764C186.543 133.58 186.811 133.435 187.126 133.329C187.445 133.222 187.801 133.169 188.194 133.169C188.75 133.169 189.227 133.263 189.624 133.451C190.025 133.636 190.332 133.887 190.544 134.206C190.757 134.521 190.864 134.877 190.864 135.274H189.384C189.384 135.098 189.339 134.935 189.249 134.783C189.164 134.628 189.033 134.503 188.857 134.409C188.681 134.311 188.46 134.262 188.194 134.262C187.94 134.262 187.729 134.302 187.562 134.384C187.398 134.462 187.275 134.564 187.193 134.691C187.116 134.818 187.077 134.957 187.077 135.108C187.077 135.219 187.097 135.319 187.138 135.409C187.183 135.495 187.257 135.575 187.359 135.649C187.461 135.718 187.601 135.784 187.776 135.845C187.957 135.906 188.182 135.966 188.452 136.023C188.959 136.129 189.395 136.266 189.759 136.434C190.127 136.598 190.409 136.811 190.606 137.072C190.802 137.33 190.9 137.657 190.9 138.054C190.9 138.349 190.837 138.619 190.71 138.864C190.587 139.106 190.407 139.317 190.17 139.497C189.933 139.673 189.648 139.81 189.317 139.908C188.99 140.006 188.621 140.055 188.212 140.055C187.611 140.055 187.101 139.949 186.684 139.736C186.267 139.519 185.95 139.243 185.733 138.907C185.52 138.568 185.414 138.216 185.414 137.852H186.844C186.86 138.126 186.936 138.345 187.071 138.509C187.21 138.668 187.382 138.785 187.586 138.858C187.795 138.928 188.01 138.963 188.231 138.963C188.497 138.963 188.72 138.928 188.9 138.858C189.08 138.785 189.217 138.687 189.311 138.564C189.405 138.437 189.452 138.294 189.452 138.134Z" fill="#181819" fill-opacity="0.9"/>
</g>
</g>
</g>
<path d="M97.2658 161.714V168.57H96.4356V162.584H96.3955L94.7217 163.696V162.852L96.4356 161.714H97.2658ZM101.474 168.664C100.969 168.664 100.54 168.526 100.185 168.252C99.8301 167.975 99.559 167.574 99.3715 167.05C99.184 166.523 99.0903 165.887 99.0903 165.142C99.0903 164.401 99.184 163.768 99.3715 163.244C99.5612 162.717 99.8335 162.315 100.188 162.039C100.545 161.76 100.974 161.62 101.474 161.62C101.974 161.62 102.401 161.76 102.756 162.039C103.113 162.315 103.385 162.717 103.573 163.244C103.762 163.768 103.857 164.401 103.857 165.142C103.857 165.887 103.764 166.523 103.576 167.05C103.389 167.574 103.117 167.975 102.763 168.252C102.408 168.526 101.978 168.664 101.474 168.664ZM101.474 167.927C101.974 167.927 102.362 167.686 102.639 167.204C102.916 166.722 103.054 166.035 103.054 165.142C103.054 164.548 102.99 164.043 102.863 163.625C102.738 163.208 102.557 162.89 102.321 162.671C102.086 162.453 101.804 162.343 101.474 162.343C100.978 162.343 100.591 162.588 100.312 163.076C100.033 163.563 99.8937 164.251 99.8937 165.142C99.8937 165.736 99.9562 166.24 100.081 166.655C100.206 167.07 100.386 167.386 100.62 167.602C100.857 167.819 101.141 167.927 101.474 167.927ZM107.366 168.664C106.861 168.664 106.432 168.526 106.077 168.252C105.722 167.975 105.451 167.574 105.263 167.05C105.076 166.523 104.982 165.887 104.982 165.142C104.982 164.401 105.076 163.768 105.263 163.244C105.453 162.717 105.725 162.315 106.08 162.039C106.437 161.76 106.866 161.62 107.366 161.62C107.866 161.62 108.293 161.76 108.648 162.039C109.005 162.315 109.277 162.717 109.465 163.244C109.654 163.768 109.749 164.401 109.749 165.142C109.749 165.887 109.655 166.523 109.468 167.05C109.28 167.574 109.009 167.975 108.654 168.252C108.3 168.526 107.87 168.664 107.366 168.664ZM107.366 167.927C107.866 167.927 108.254 167.686 108.531 167.204C108.807 166.722 108.946 166.035 108.946 165.142C108.946 164.548 108.882 164.043 108.755 163.625C108.63 163.208 108.449 162.89 108.213 162.671C107.978 162.453 107.696 162.343 107.366 162.343C106.87 162.343 106.483 162.588 106.204 163.076C105.925 163.563 105.786 164.251 105.786 165.142C105.786 165.736 105.848 166.24 105.973 166.655C106.098 167.07 106.278 167.386 106.512 167.602C106.749 167.819 107.033 167.927 107.366 167.927Z" fill="#181819" fill-opacity="0.42"/>
<path d="M107.366 358.771C106.862 358.771 106.432 358.634 106.077 358.36C105.722 358.083 105.451 357.682 105.264 357.158C105.076 356.631 104.983 355.995 104.983 355.25C104.983 354.509 105.076 353.876 105.264 353.352C105.453 352.825 105.726 352.423 106.081 352.147C106.438 351.868 106.866 351.728 107.366 351.728C107.866 351.728 108.293 351.868 108.648 352.147C109.005 352.423 109.278 352.825 109.465 353.352C109.655 353.876 109.75 354.509 109.75 355.25C109.75 355.995 109.656 356.631 109.468 357.158C109.281 357.682 109.01 358.083 108.655 358.36C108.3 358.634 107.87 358.771 107.366 358.771ZM107.366 358.035C107.866 358.035 108.254 357.794 108.531 357.312C108.808 356.83 108.946 356.142 108.946 355.25C108.946 354.656 108.883 354.151 108.755 353.733C108.63 353.316 108.45 352.998 108.213 352.779C107.979 352.561 107.696 352.451 107.366 352.451C106.871 352.451 106.483 352.696 106.204 353.184C105.925 353.671 105.786 354.359 105.786 355.25C105.786 355.843 105.848 356.348 105.973 356.763C106.098 357.178 106.278 357.494 106.512 357.71C106.749 357.927 107.034 358.035 107.366 358.035Z" fill="#181819" fill-opacity="0.42"/>
<path d="M99.5796 295.832V295.23L101.843 292.752C102.108 292.462 102.327 292.21 102.499 291.996C102.671 291.779 102.798 291.576 102.88 291.387C102.965 291.195 103.008 290.994 103.008 290.784C103.008 290.543 102.95 290.334 102.833 290.158C102.72 289.982 102.563 289.846 102.365 289.75C102.166 289.654 101.943 289.606 101.695 289.606C101.432 289.606 101.202 289.66 101.006 289.77C100.812 289.877 100.661 290.028 100.554 290.222C100.449 290.416 100.396 290.643 100.396 290.905H99.6064C99.6064 290.503 99.699 290.15 99.8842 289.847C100.069 289.543 100.322 289.307 100.641 289.137C100.962 288.967 101.323 288.883 101.722 288.883C102.124 288.883 102.48 288.967 102.79 289.137C103.1 289.307 103.343 289.535 103.52 289.823C103.696 290.111 103.784 290.431 103.784 290.784C103.784 291.036 103.738 291.283 103.647 291.524C103.558 291.763 103.401 292.029 103.178 292.324C102.957 292.616 102.65 292.973 102.258 293.395L100.718 295.042V295.096H103.905V295.832H99.5796ZM107.43 295.926C107.037 295.926 106.683 295.848 106.369 295.692C106.054 295.535 105.802 295.321 105.612 295.049C105.422 294.777 105.319 294.466 105.301 294.118H106.104C106.135 294.429 106.276 294.685 106.526 294.888C106.778 295.089 107.079 295.19 107.43 295.19C107.711 295.19 107.961 295.124 108.18 294.992C108.401 294.86 108.574 294.68 108.699 294.45C108.826 294.218 108.889 293.955 108.889 293.663C108.889 293.364 108.823 293.097 108.692 292.863C108.562 292.626 108.384 292.44 108.156 292.304C107.929 292.168 107.669 292.099 107.376 292.096C107.166 292.094 106.951 292.126 106.73 292.193C106.509 292.258 106.327 292.342 106.184 292.444L105.408 292.351L105.823 288.976H109.385V289.713H106.519L106.278 291.735H106.318C106.459 291.623 106.635 291.531 106.847 291.457C107.059 291.383 107.28 291.346 107.51 291.346C107.93 291.346 108.304 291.447 108.632 291.648C108.962 291.846 109.221 292.119 109.408 292.465C109.598 292.81 109.693 293.206 109.693 293.65C109.693 294.087 109.595 294.478 109.398 294.821C109.204 295.163 108.936 295.433 108.595 295.631C108.253 295.828 107.865 295.926 107.43 295.926Z" fill="#181819" fill-opacity="0.42"/>
<path d="M101.538 229.938C101.145 229.938 100.791 229.86 100.477 229.704C100.162 229.548 99.9099 229.333 99.7202 229.061C99.5305 228.789 99.4267 228.479 99.4089 228.131H100.212C100.244 228.441 100.384 228.697 100.634 228.9C100.886 229.101 101.188 229.202 101.538 229.202C101.819 229.202 102.069 229.136 102.288 229.004C102.509 228.873 102.682 228.692 102.807 228.462C102.934 228.23 102.998 227.968 102.998 227.675C102.998 227.376 102.932 227.109 102.8 226.875C102.671 226.639 102.492 226.452 102.264 226.316C102.037 226.18 101.777 226.111 101.484 226.109C101.275 226.106 101.059 226.139 100.838 226.206C100.617 226.27 100.435 226.354 100.293 226.457L99.516 226.363L99.9311 222.989H103.493V223.725H100.627L100.386 225.747H100.427C100.567 225.635 100.743 225.543 100.955 225.469C101.167 225.395 101.388 225.359 101.618 225.359C102.038 225.359 102.412 225.459 102.74 225.66C103.07 225.859 103.329 226.131 103.516 226.477C103.706 226.823 103.801 227.218 103.801 227.662C103.801 228.099 103.703 228.49 103.506 228.834C103.312 229.175 103.044 229.445 102.703 229.644C102.361 229.84 101.973 229.938 101.538 229.938ZM107.367 229.938C106.863 229.938 106.433 229.801 106.078 229.526C105.723 229.25 105.452 228.849 105.265 228.325C105.077 227.798 104.984 227.162 104.984 226.417C104.984 225.676 105.077 225.043 105.265 224.518C105.454 223.992 105.727 223.59 106.082 223.313C106.439 223.034 106.867 222.895 107.367 222.895C107.867 222.895 108.294 223.034 108.649 223.313C109.006 223.59 109.278 223.992 109.466 224.518C109.656 225.043 109.751 225.676 109.751 226.417C109.751 227.162 109.657 227.798 109.469 228.325C109.282 228.849 109.011 229.25 108.656 229.526C108.301 229.801 107.871 229.938 107.367 229.938ZM107.367 229.202C107.867 229.202 108.255 228.961 108.532 228.479C108.809 227.997 108.947 227.309 108.947 226.417C108.947 225.823 108.883 225.317 108.756 224.9C108.631 224.483 108.451 224.165 108.214 223.946C107.98 223.727 107.697 223.618 107.367 223.618C106.872 223.618 106.484 223.862 106.205 224.351C105.926 224.838 105.787 225.526 105.787 226.417C105.787 227.01 105.849 227.515 105.974 227.93C106.099 228.345 106.279 228.661 106.513 228.877C106.75 229.094 107.034 229.202 107.367 229.202Z" fill="#181819" fill-opacity="0.42"/>
<rect x="117.381" y="358.105" width="351.937" height="0.785574" fill="#E6E7E9"/>
<rect x="117.381" y="293.688" width="351.937" height="0.785574" fill="#E6E7E9"/>
<rect x="117.381" y="229.271" width="351.937" height="0.785574" fill="#E6E7E9"/>
<rect x="117.381" y="164.854" width="351.937" height="0.785574" fill="#E6E7E9"/>
<rect x="116.794" y="165.05" width="0.392787" height="192.858" stroke="#E6E7E9" stroke-width="0.392787" stroke-dasharray="3.14 3.14"/>
<rect x="468.73" y="165.05" width="0.392787" height="192.858" stroke="#E6E7E9" stroke-width="0.392787" stroke-dasharray="3.14 3.14"/>
<rect x="166.873" y="164.854" width="0.785574" height="193.251" fill="#F0F1F2"/>
<rect x="217.15" y="164.854" width="0.785574" height="193.251" fill="#F0F1F2"/>
<rect x="267.426" y="164.854" width="0.785574" height="193.251" fill="#F0F1F2"/>
<rect x="317.705" y="164.854" width="0.785574" height="193.251" fill="#F0F1F2"/>
<rect x="367.98" y="164.854" width="0.785574" height="193.251" fill="#F0F1F2"/>
<rect x="418.258" y="164.854" width="0.785574" height="193.251" fill="#F0F1F2"/>
<rect x="130.738" y="252.052" width="9.42689" height="106.053" fill="#3855B3"/>
<rect x="143.307" y="296.045" width="9.42689" height="62.0604" fill="#B3E5FB"/>
<rect x="181.014" y="321.968" width="9.42689" height="36.1364" fill="#3855B3"/>
<rect x="193.582" y="291.331" width="9.42689" height="66.7738" fill="#B3E5FB"/>
<rect x="231.291" y="296.046" width="9.42689" height="62.0604" fill="#3855B3"/>
<rect x="243.859" y="286.619" width="9.42689" height="71.4873" fill="#B3E5FB"/>
<rect x="281.566" y="321.968" width="9.42689" height="36.1364" fill="#3855B3"/>
<rect x="294.135" y="332.966" width="9.42689" height="25.1384" fill="#B3E5FB"/>
<rect x="332.629" y="270.906" width="9.42689" height="87.1987" fill="#3855B3"/>
<rect x="345.197" y="310.97" width="9.42689" height="47.1345" fill="#B3E5FB"/>
<rect x="382.906" y="321.968" width="9.42689" height="36.1364" fill="#3855B3"/>
<rect x="395.475" y="291.331" width="9.42689" height="66.7738" fill="#B3E5FB"/>
<rect x="433.182" y="281.118" width="9.42689" height="76.9863" fill="#3855B3"/>
<rect x="445.75" y="310.97" width="9.42689" height="47.1345" fill="#B3E5FB"/>
<path d="M385.41 368.319H386.4L388.73 374.01H388.811L391.141 368.319H392.132V375.175H391.355V369.966H391.288L389.145 375.175H388.396L386.253 369.966H386.186V375.175H385.41V368.319ZM395.202 375.296C394.876 375.296 394.581 375.234 394.315 375.111C394.049 374.986 393.839 374.807 393.682 374.572C393.526 374.336 393.448 374.05 393.448 373.715C393.448 373.421 393.506 373.182 393.622 372.999C393.738 372.814 393.893 372.669 394.087 372.564C394.282 372.459 394.496 372.381 394.73 372.33C394.967 372.276 395.204 372.234 395.443 372.202C395.756 372.162 396.009 372.132 396.203 372.112C396.399 372.09 396.542 372.053 396.632 372.002C396.723 371.95 396.769 371.861 396.769 371.734V371.707C396.769 371.377 396.678 371.12 396.498 370.937C396.319 370.754 396.048 370.662 395.684 370.662C395.307 370.662 395.011 370.745 394.797 370.91C394.583 371.075 394.432 371.252 394.345 371.439L393.595 371.171C393.729 370.859 393.908 370.616 394.131 370.442C394.356 370.265 394.602 370.142 394.867 370.073C395.135 370.002 395.399 369.966 395.657 369.966C395.823 369.966 396.012 369.986 396.227 370.026C396.443 370.064 396.652 370.144 396.853 370.264C397.056 370.385 397.224 370.566 397.358 370.81C397.492 371.053 397.559 371.379 397.559 371.787V375.175H396.769V374.479H396.729C396.675 374.59 396.586 374.71 396.461 374.837C396.336 374.964 396.17 375.072 395.962 375.162C395.755 375.251 395.501 375.296 395.202 375.296ZM395.323 374.586C395.635 374.586 395.898 374.524 396.113 374.402C396.329 374.279 396.492 374.121 396.601 373.926C396.713 373.732 396.769 373.528 396.769 373.314V372.591C396.735 372.631 396.662 372.668 396.548 372.701C396.436 372.732 396.307 372.76 396.16 372.785C396.015 372.807 395.873 372.827 395.734 372.845C395.598 372.861 395.488 372.874 395.403 372.885C395.198 372.912 395.006 372.956 394.827 373.016C394.651 373.074 394.508 373.162 394.399 373.28C394.292 373.396 394.238 373.555 394.238 373.756C394.238 374.03 394.34 374.238 394.543 374.378C394.748 374.517 395.008 374.586 395.323 374.586ZM399.326 377.103C399.192 377.103 399.072 377.092 398.967 377.07C398.862 377.05 398.79 377.03 398.75 377.01L398.951 376.313C399.143 376.362 399.312 376.38 399.459 376.367C399.607 376.353 399.737 376.288 399.851 376.169C399.967 376.053 400.073 375.865 400.169 375.604L400.316 375.202L398.415 370.033H399.272L400.691 374.131H400.745L402.164 370.033H403.021L400.839 375.925C400.741 376.19 400.619 376.41 400.474 376.584C400.329 376.761 400.16 376.891 399.968 376.976C399.779 377.061 399.564 377.103 399.326 377.103Z" fill="#181819" fill-opacity="0.42"/>
<path d="M439.801 368.319H440.631V373.22C440.631 373.657 440.55 374.029 440.39 374.335C440.229 374.641 440.003 374.873 439.71 375.031C439.418 375.19 439.073 375.269 438.676 375.269C438.301 375.269 437.967 375.201 437.675 375.065C437.382 374.926 437.153 374.73 436.985 374.475C436.818 374.221 436.734 373.919 436.734 373.568H437.551C437.551 373.762 437.599 373.932 437.695 374.077C437.793 374.22 437.927 374.331 438.097 374.412C438.266 374.492 438.459 374.532 438.676 374.532C438.915 374.532 439.118 374.482 439.285 374.382C439.452 374.281 439.58 374.134 439.667 373.94C439.756 373.743 439.801 373.503 439.801 373.22V368.319ZM445.428 373.073V370.033H446.218V375.175H445.428V374.305H445.374C445.254 374.566 445.066 374.788 444.812 374.971C444.557 375.152 444.236 375.242 443.848 375.242C443.526 375.242 443.241 375.172 442.991 375.031C442.741 374.888 442.544 374.674 442.402 374.388C442.259 374.1 442.187 373.738 442.187 373.3V370.033H442.977V373.247C442.977 373.622 443.082 373.921 443.292 374.144C443.504 374.367 443.774 374.479 444.102 374.479C444.299 374.479 444.498 374.429 444.701 374.328C444.907 374.228 445.079 374.074 445.217 373.866C445.358 373.659 445.428 373.394 445.428 373.073ZM448.455 372.082V375.175H447.665V370.033H448.428V370.837H448.495C448.616 370.575 448.799 370.366 449.044 370.207C449.29 370.046 449.607 369.966 449.995 369.966C450.343 369.966 450.648 370.038 450.909 370.18C451.17 370.321 451.373 370.535 451.518 370.823C451.663 371.109 451.736 371.47 451.736 371.908V375.175H450.946V371.961C450.946 371.557 450.841 371.243 450.631 371.017C450.421 370.79 450.133 370.676 449.767 370.676C449.515 370.676 449.29 370.731 449.091 370.84C448.895 370.949 448.74 371.109 448.626 371.319C448.512 371.528 448.455 371.783 448.455 372.082Z" fill="#181819" fill-opacity="0.42"/>
<path d="M337.934 375.175H337.063L339.581 368.319H340.438L342.955 375.175H342.085L340.036 369.404H339.982L337.934 375.175ZM338.255 372.497H341.763V373.233H338.255V372.497ZM343.916 377.103V370.033H344.679V370.85H344.773C344.831 370.761 344.911 370.647 345.014 370.508C345.119 370.368 345.268 370.243 345.462 370.134C345.659 370.022 345.924 369.966 346.259 369.966C346.692 369.966 347.074 370.074 347.404 370.291C347.734 370.507 347.992 370.814 348.177 371.211C348.363 371.609 348.455 372.077 348.455 372.617C348.455 373.162 348.363 373.634 348.177 374.034C347.992 374.431 347.735 374.739 347.407 374.957C347.079 375.174 346.701 375.282 346.272 375.282C345.942 375.282 345.678 375.227 345.479 375.118C345.28 375.007 345.128 374.88 345.02 374.74C344.913 374.597 344.831 374.479 344.773 374.385H344.706V377.103H343.916ZM344.692 372.604C344.692 372.992 344.749 373.335 344.863 373.632C344.977 373.926 345.143 374.157 345.362 374.325C345.581 374.49 345.848 374.572 346.165 374.572C346.496 374.572 346.771 374.485 346.992 374.311C347.215 374.135 347.383 373.898 347.494 373.602C347.608 373.303 347.665 372.97 347.665 372.604C347.665 372.243 347.609 371.917 347.498 371.627C347.388 371.334 347.222 371.103 346.999 370.934C346.778 370.762 346.5 370.676 346.165 370.676C345.844 370.676 345.574 370.757 345.355 370.92C345.137 371.081 344.971 371.306 344.86 371.596C344.748 371.884 344.692 372.22 344.692 372.604ZM349.66 375.175V370.033H350.424V370.81H350.477C350.571 370.555 350.74 370.349 350.986 370.19C351.231 370.032 351.508 369.953 351.816 369.953C351.874 369.953 351.947 369.954 352.034 369.956C352.121 369.958 352.187 369.962 352.231 369.966V370.77C352.204 370.763 352.143 370.753 352.047 370.739C351.953 370.724 351.854 370.716 351.749 370.716C351.499 370.716 351.276 370.768 351.08 370.873C350.886 370.976 350.732 371.119 350.618 371.302C350.506 371.483 350.45 371.689 350.45 371.921V375.175H349.66Z" fill="#181819" fill-opacity="0.42"/>
<path d="M284.392 368.319H285.383L287.713 374.01H287.793L290.123 368.319H291.114V375.175H290.337V369.966H290.271L288.128 375.175H287.378L285.236 369.966H285.169V375.175H284.392V368.319ZM294.185 375.296C293.859 375.296 293.563 375.234 293.298 375.111C293.032 374.986 292.821 374.807 292.665 374.572C292.509 374.336 292.431 374.05 292.431 373.715C292.431 373.421 292.489 373.182 292.605 372.999C292.721 372.814 292.876 372.669 293.07 372.564C293.264 372.459 293.478 372.381 293.713 372.33C293.949 372.276 294.187 372.234 294.426 372.202C294.738 372.162 294.992 372.132 295.186 372.112C295.382 372.09 295.525 372.053 295.614 372.002C295.706 371.95 295.751 371.861 295.751 371.734V371.707C295.751 371.377 295.661 371.12 295.48 370.937C295.302 370.754 295.031 370.662 294.667 370.662C294.29 370.662 293.994 370.745 293.78 370.91C293.565 371.075 293.415 371.252 293.328 371.439L292.578 371.171C292.712 370.859 292.89 370.616 293.113 370.442C293.339 370.265 293.584 370.142 293.85 370.073C294.118 370.002 294.381 369.966 294.64 369.966C294.805 369.966 294.995 369.986 295.209 370.026C295.426 370.064 295.634 370.144 295.835 370.264C296.038 370.385 296.207 370.566 296.341 370.81C296.475 371.053 296.541 371.379 296.541 371.787V375.175H295.751V374.479H295.711C295.658 374.59 295.568 374.71 295.443 374.837C295.318 374.964 295.152 375.072 294.945 375.162C294.737 375.251 294.484 375.296 294.185 375.296ZM294.305 374.586C294.618 374.586 294.881 374.524 295.095 374.402C295.312 374.279 295.475 374.121 295.584 373.926C295.696 373.732 295.751 373.528 295.751 373.314V372.591C295.718 372.631 295.644 372.668 295.53 372.701C295.419 372.732 295.289 372.76 295.142 372.785C294.997 372.807 294.855 372.827 294.717 372.845C294.581 372.861 294.47 372.874 294.386 372.885C294.18 372.912 293.988 372.956 293.81 373.016C293.633 373.074 293.491 373.162 293.381 373.28C293.274 373.396 293.221 373.555 293.221 373.756C293.221 374.03 293.322 374.238 293.525 374.378C293.731 374.517 293.991 374.586 294.305 374.586ZM297.983 375.175V370.033H298.747V370.81H298.8C298.894 370.555 299.064 370.349 299.309 370.19C299.555 370.032 299.831 369.953 300.139 369.953C300.197 369.953 300.27 369.954 300.357 369.956C300.444 369.958 300.51 369.962 300.554 369.966V370.77C300.528 370.763 300.466 370.753 300.37 370.739C300.277 370.724 300.177 370.716 300.072 370.716C299.822 370.716 299.599 370.768 299.403 370.873C299.209 370.976 299.055 371.119 298.941 371.302C298.829 371.483 298.773 371.689 298.773 371.921V375.175H297.983Z" fill="#181819" fill-opacity="0.42"/>
<path d="M234.471 375.175V368.319H238.582V369.056H235.301V371.372H238.274V372.109H235.301V375.175H234.471ZM241.675 375.282C241.18 375.282 240.752 375.173 240.393 374.954C240.036 374.733 239.76 374.425 239.566 374.03C239.374 373.633 239.278 373.171 239.278 372.644C239.278 372.118 239.374 371.653 239.566 371.252C239.76 370.848 240.03 370.533 240.376 370.308C240.725 370.08 241.131 369.966 241.595 369.966C241.863 369.966 242.127 370.011 242.388 370.1C242.649 370.189 242.887 370.334 243.101 370.535C243.316 370.734 243.486 370.997 243.613 371.325C243.741 371.653 243.804 372.057 243.804 372.537V372.872H239.841V372.189H243.001C243.001 371.899 242.943 371.64 242.827 371.412C242.713 371.185 242.55 371.005 242.338 370.873C242.128 370.742 241.881 370.676 241.595 370.676C241.28 370.676 241.008 370.754 240.778 370.91C240.55 371.064 240.375 371.265 240.252 371.513C240.13 371.76 240.068 372.026 240.068 372.309V372.765C240.068 373.153 240.135 373.482 240.269 373.752C240.405 374.02 240.594 374.224 240.835 374.365C241.076 374.503 241.356 374.572 241.675 374.572C241.883 374.572 242.07 374.543 242.238 374.485C242.407 374.425 242.553 374.336 242.676 374.218C242.799 374.097 242.894 373.948 242.961 373.769L243.724 373.983C243.644 374.242 243.509 374.47 243.319 374.666C243.129 374.86 242.895 375.012 242.616 375.121C242.337 375.229 242.023 375.282 241.675 375.282ZM245.113 375.175V368.319H245.903V370.85H245.97C246.028 370.761 246.109 370.647 246.211 370.508C246.316 370.368 246.466 370.243 246.66 370.134C246.856 370.022 247.122 369.966 247.457 369.966C247.89 369.966 248.271 370.074 248.601 370.291C248.932 370.507 249.19 370.814 249.375 371.211C249.56 371.609 249.653 372.077 249.653 372.617C249.653 373.162 249.56 373.634 249.375 374.034C249.19 374.431 248.933 374.739 248.605 374.957C248.277 375.174 247.898 375.282 247.47 375.282C247.14 375.282 246.875 375.227 246.677 375.118C246.478 375.007 246.325 374.88 246.218 374.74C246.111 374.597 246.028 374.479 245.97 374.385H245.876V375.175H245.113ZM245.89 372.604C245.89 372.992 245.947 373.335 246.061 373.632C246.174 373.926 246.341 374.157 246.559 374.325C246.778 374.49 247.046 374.572 247.363 374.572C247.693 374.572 247.969 374.485 248.19 374.311C248.413 374.135 248.58 373.898 248.692 373.602C248.806 373.303 248.863 372.97 248.863 372.604C248.863 372.243 248.807 371.917 248.695 371.627C248.586 371.334 248.42 371.103 248.196 370.934C247.975 370.762 247.698 370.676 247.363 370.676C247.041 370.676 246.771 370.757 246.553 370.92C246.334 371.081 246.169 371.306 246.057 371.596C245.946 371.884 245.89 372.22 245.89 372.604Z" fill="#181819" fill-opacity="0.42"/>
<path d="M188.501 365.177H189.331V370.078C189.331 370.515 189.25 370.887 189.09 371.192C188.929 371.498 188.703 371.73 188.41 371.889C188.118 372.047 187.773 372.126 187.376 372.126C187.001 372.126 186.667 372.058 186.375 371.922C186.082 371.784 185.853 371.587 185.685 371.333C185.518 371.079 185.434 370.776 185.434 370.426H186.251C186.251 370.62 186.299 370.79 186.395 370.935C186.493 371.078 186.627 371.189 186.797 371.269C186.966 371.35 187.159 371.39 187.376 371.39C187.615 371.39 187.818 371.34 187.985 371.239C188.152 371.139 188.28 370.992 188.367 370.797C188.456 370.601 188.501 370.361 188.501 370.078V365.177ZM192.401 372.153C192.075 372.153 191.779 372.092 191.513 371.969C191.248 371.844 191.037 371.664 190.881 371.43C190.725 371.194 190.646 370.908 190.646 370.573C190.646 370.279 190.704 370.04 190.82 369.857C190.937 369.672 191.092 369.526 191.286 369.422C191.48 369.317 191.694 369.239 191.929 369.187C192.165 369.134 192.403 369.091 192.642 369.06C192.954 369.02 193.207 368.99 193.401 368.97C193.598 368.947 193.741 368.911 193.83 368.859C193.921 368.808 193.967 368.719 193.967 368.591V368.565C193.967 368.234 193.877 367.978 193.696 367.795C193.518 367.612 193.246 367.52 192.883 367.52C192.505 367.52 192.21 367.603 191.995 367.768C191.781 367.933 191.631 368.109 191.544 368.297L190.794 368.029C190.928 367.717 191.106 367.473 191.329 367.299C191.555 367.123 191.8 367 192.066 366.931C192.334 366.86 192.597 366.824 192.856 366.824C193.021 366.824 193.211 366.844 193.425 366.884C193.641 366.922 193.85 367.001 194.051 367.122C194.254 367.242 194.423 367.424 194.556 367.667C194.69 367.911 194.757 368.237 194.757 368.645V372.033H193.967V371.336H193.927C193.874 371.448 193.784 371.567 193.659 371.695C193.534 371.822 193.368 371.93 193.16 372.019C192.953 372.109 192.7 372.153 192.401 372.153ZM192.521 371.444C192.834 371.444 193.097 371.382 193.311 371.259C193.528 371.137 193.69 370.978 193.8 370.784C193.911 370.59 193.967 370.386 193.967 370.171V369.448C193.934 369.489 193.86 369.525 193.746 369.559C193.635 369.59 193.505 369.618 193.358 369.643C193.213 369.665 193.071 369.685 192.933 369.703C192.797 369.718 192.686 369.732 192.601 369.743C192.396 369.77 192.204 369.813 192.026 369.874C191.849 369.932 191.706 370.02 191.597 370.138C191.49 370.254 191.436 370.412 191.436 370.613C191.436 370.888 191.538 371.095 191.741 371.236C191.946 371.374 192.206 371.444 192.521 371.444ZM196.989 368.94V372.033H196.199V366.891H196.963V367.694H197.029C197.15 367.433 197.333 367.223 197.578 367.065C197.824 366.904 198.141 366.824 198.529 366.824C198.877 366.824 199.182 366.895 199.443 367.038C199.704 367.179 199.907 367.393 200.052 367.681C200.197 367.966 200.27 368.328 200.27 368.765V372.033H199.48V368.819C199.48 368.415 199.375 368.1 199.165 367.875C198.955 367.647 198.668 367.534 198.302 367.534C198.049 367.534 197.824 367.588 197.625 367.698C197.429 367.807 197.274 367.966 197.16 368.176C197.046 368.386 196.989 368.64 196.989 368.94Z" fill="#181819" fill-opacity="0.42"/>
<path d="M136.827 372.033H134.711V365.177H136.92C137.586 365.177 138.155 365.314 138.628 365.589C139.101 365.861 139.464 366.252 139.716 366.764C139.968 367.272 140.094 367.882 140.094 368.591C140.094 369.306 139.967 369.92 139.712 370.436C139.458 370.949 139.088 371.344 138.601 371.621C138.114 371.895 137.523 372.033 136.827 372.033ZM135.541 371.296H136.773C137.34 371.296 137.81 371.187 138.183 370.968C138.555 370.749 138.833 370.438 139.016 370.034C139.199 369.63 139.291 369.149 139.291 368.591C139.291 368.038 139.2 367.561 139.019 367.162C138.839 366.76 138.569 366.452 138.209 366.238C137.85 366.022 137.403 365.913 136.867 365.913H135.541V371.296ZM143.535 372.14C143.04 372.14 142.613 372.03 142.253 371.812C141.896 371.591 141.621 371.283 141.426 370.888C141.234 370.491 141.138 370.029 141.138 369.502C141.138 368.975 141.234 368.511 141.426 368.109C141.621 367.705 141.891 367.391 142.237 367.165C142.585 366.938 142.991 366.824 143.455 366.824C143.723 366.824 143.987 366.868 144.248 366.958C144.51 367.047 144.747 367.192 144.961 367.393C145.176 367.592 145.346 367.855 145.474 368.183C145.601 368.511 145.664 368.915 145.664 369.395V369.73H141.701V369.047H144.861C144.861 368.757 144.803 368.498 144.687 368.27C144.573 368.042 144.41 367.863 144.198 367.731C143.988 367.599 143.741 367.534 143.455 367.534C143.14 367.534 142.868 367.612 142.638 367.768C142.411 367.922 142.235 368.123 142.113 368.37C141.99 368.618 141.929 368.884 141.929 369.167V369.622C141.929 370.011 141.995 370.34 142.129 370.61C142.266 370.878 142.454 371.082 142.695 371.223C142.936 371.361 143.216 371.43 143.535 371.43C143.743 371.43 143.93 371.401 144.098 371.343C144.267 371.283 144.414 371.194 144.536 371.075C144.659 370.955 144.754 370.805 144.821 370.627L145.584 370.841C145.504 371.1 145.369 371.327 145.179 371.524C144.989 371.718 144.755 371.87 144.476 371.979C144.197 372.086 143.884 372.14 143.535 372.14ZM148.955 372.14C148.473 372.14 148.058 372.026 147.71 371.798C147.362 371.571 147.094 371.257 146.906 370.858C146.719 370.458 146.625 370.002 146.625 369.489C146.625 368.966 146.721 368.505 146.913 368.106C147.107 367.704 147.377 367.391 147.723 367.165C148.071 366.938 148.478 366.824 148.942 366.824C149.303 366.824 149.629 366.891 149.919 367.025C150.209 367.159 150.447 367.346 150.632 367.587C150.818 367.828 150.933 368.109 150.977 368.431H150.187C150.127 368.196 149.993 367.989 149.785 367.808C149.58 367.625 149.303 367.534 148.955 367.534C148.647 367.534 148.377 367.614 148.145 367.775C147.915 367.933 147.736 368.157 147.606 368.447C147.479 368.735 147.415 369.073 147.415 369.462C147.415 369.859 147.478 370.205 147.603 370.5C147.73 370.794 147.908 371.023 148.138 371.186C148.37 371.349 148.643 371.43 148.955 371.43C149.161 371.43 149.347 371.394 149.514 371.323C149.682 371.252 149.823 371.149 149.939 371.015C150.055 370.881 150.138 370.72 150.187 370.533H150.977C150.933 370.836 150.822 371.11 150.646 371.353C150.472 371.594 150.241 371.786 149.953 371.929C149.667 372.07 149.335 372.14 148.955 372.14Z" fill="#181819" fill-opacity="0.42"/>
</g>
<path d="M190.07 426.609C198.863 437.477 197.983 461.52 197.983 461.52V481.535H23.4313V339.566C23.4313 339.566 51.423 330.202 64.3928 339.566C75.1397 347.324 78.8225 370.287 78.8225 370.287C78.8225 370.287 116.003 358.237 133.748 370.287C148.814 380.518 155.16 411.714 155.16 411.714C155.16 411.714 180.747 415.086 190.07 426.609Z" fill="white"/>
<path d="M197.976 461.054C197.976 461.054 198.529 438.173 189.589 427.527C180.413 416.601 156.656 412.151 156.656 412.151" stroke="black" stroke-width="2.38558" stroke-linecap="round"/>
<path d="M159.404 425.925C159.404 425.925 152.54 382.883 131.853 370.134C109.127 356.129 63.6649 374.956 63.6649 374.956" stroke="black" stroke-width="2.38558" stroke-linecap="round"/>
<path d="M78.8184 369.446C78.8184 369.446 75.8728 349.633 67.1092 341.895C54.3919 330.666 23.7166 339.829 23.7166 339.829" stroke="black" stroke-width="2.38558" stroke-linecap="round"/>
<defs>
<filter id="filter0_d_16_1757" x="0.540031" y="0.175139" width="564.307" height="517.167" filterUnits="userSpaceOnUse" color-interpolation-filters="sRGB">
<feFlood flood-opacity="0" result="BackgroundImageFix"/>
<feColorMatrix in="SourceAlpha" type="matrix" values="0 0 0 0 0 0 0 0 0 0 0 0 0 0 0 0 0 0 127 0" result="hardAlpha"/>
<feOffset dy="4.66856"/>
<feGaussianBlur stdDeviation="35.0142"/>
<feComposite in2="hardAlpha" operator="out"/>
<feColorMatrix type="matrix" values="0 0 0 0 0 0 0 0 0 0 0 0 0 0 0 0 0 0 0.08 0"/>
<feBlend mode="normal" in2="BackgroundImageFix" result="effect1_dropShadow_16_1757"/>
<feBlend mode="normal" in="SourceGraphic" in2="effect1_dropShadow_16_1757" result="shape"/>
</filter>
<clipPath id="clip0_16_1757">
<rect x="78.1035" y="112.22" width="405.356" height="326.799" rx="6.28459" fill="white"/>
</clipPath>
<clipPath id="clip1_16_1757">
<rect width="14.1403" height="14.1403" fill="white" transform="translate(144.879 409.953)"/>
</clipPath>
<clipPath id="clip2_16_1757">
<rect width="98.1968" height="14.9259" fill="white" transform="translate(93.8145 127.932)"/>
</clipPath>
<clipPath id="clip3_16_1757">
<rect width="98.1968" height="14.9259" fill="white" transform="translate(93.8145 127.932)"/>
</clipPath>
</defs>
</svg>
