<svg width="40" height="41" viewBox="0 0 40 41" fill="none" xmlns="http://www.w3.org/2000/svg">
<g filter="url(#filter0_ii_454_1826)">
<path d="M0 8.375C0 3.95672 3.58172 0.375 8 0.375H32C36.4183 0.375 40 3.95672 40 8.375V32.375C40 36.7933 36.4183 40.375 32 40.375H8C3.58172 40.375 0 36.7933 0 32.375V8.375Z" fill="#F6EBFF" fill-opacity="0.44"/>
<path d="M28.481 23.8618L26.831 22.2118C26.3392 21.7239 25.6753 21.4488 24.9825 21.4459C24.2897 21.4429 23.6235 21.7124 23.1275 22.1961C22.8629 22.4622 22.5137 22.6278 22.1402 22.6644C21.7666 22.7009 21.392 22.6061 21.0808 22.3963C19.8524 21.5765 18.7972 20.5233 17.975 19.2966C17.7689 18.9819 17.6775 18.6058 17.7163 18.2316C17.7551 17.8574 17.9217 17.508 18.188 17.2423C18.6673 16.7459 18.9333 16.0815 18.9289 15.3915C18.9246 14.7014 18.6503 14.0404 18.1648 13.5501L16.5148 11.9001C16.0208 11.4078 15.3518 11.1313 14.6544 11.1313C13.957 11.1313 13.288 11.4078 12.794 11.9001L12.3193 12.3756C9.84425 14.8506 10.0295 20.0541 15.179 25.2006C18.284 28.3063 21.4093 29.6068 23.9435 29.6068C24.6895 29.6317 25.433 29.5078 26.1306 29.2424C26.8283 28.977 27.4661 28.5754 28.007 28.0611L28.4825 27.5856C28.9757 27.0914 29.2526 26.4216 29.2523 25.7234C29.252 25.0252 28.9746 24.3556 28.481 23.8618ZM27.4205 26.5251L26.945 27.0006C24.995 28.9506 20.6908 28.5943 16.238 24.1408C11.7853 19.6873 11.4283 15.3801 13.3783 13.4301L13.85 12.9553C14.0624 12.7437 14.35 12.6248 14.6499 12.6248C14.9497 12.6248 15.2373 12.7437 15.4498 12.9553L17.0998 14.6053C17.3083 14.8149 17.4267 15.0977 17.4296 15.3934C17.4326 15.689 17.3198 15.9741 17.1155 16.1878C16.6087 16.6978 16.2926 17.3665 16.2201 18.0819C16.1476 18.7972 16.3231 19.5157 16.7173 20.1171C17.6514 21.515 18.8527 22.7145 20.252 23.6466C20.8515 24.0408 21.5682 24.2173 22.2822 24.1468C22.9963 24.0762 23.6645 23.7628 24.1753 23.2588C24.3885 23.0521 24.6744 22.9373 24.9715 22.9391C25.2685 22.9409 25.553 23.0592 25.7638 23.2686L27.4138 24.9186C27.5201 25.0234 27.6047 25.1482 27.6626 25.2858C27.7205 25.4234 27.7507 25.5711 27.7513 25.7204C27.7519 25.8697 27.723 26.0177 27.6662 26.1558C27.6095 26.2939 27.526 26.4194 27.4205 26.5251Z" fill="white"/>
</g>
<defs>
<filter id="filter0_ii_454_1826" x="0" y="-1.625" width="40" height="54" filterUnits="userSpaceOnUse" color-interpolation-filters="sRGB">
<feFlood flood-opacity="0" result="BackgroundImageFix"/>
<feBlend mode="normal" in="SourceGraphic" in2="BackgroundImageFix" result="shape"/>
<feColorMatrix in="SourceAlpha" type="matrix" values="0 0 0 0 0 0 0 0 0 0 0 0 0 0 0 0 0 0 127 0" result="hardAlpha"/>
<feOffset dy="-2"/>
<feGaussianBlur stdDeviation="1"/>
<feComposite in2="hardAlpha" operator="arithmetic" k2="-1" k3="1"/>
<feColorMatrix type="matrix" values="0 0 0 0 0.189981 0 0 0 0 0.189981 0 0 0 0 0.189981 0 0 0 0.1 0"/>
<feBlend mode="normal" in2="shape" result="effect1_innerShadow_454_1826"/>
<feColorMatrix in="SourceAlpha" type="matrix" values="0 0 0 0 0 0 0 0 0 0 0 0 0 0 0 0 0 0 127 0" result="hardAlpha"/>
<feOffset dy="12"/>
<feGaussianBlur stdDeviation="6"/>
<feComposite in2="hardAlpha" operator="arithmetic" k2="-1" k3="1"/>
<feColorMatrix type="matrix" values="0 0 0 0 1 0 0 0 0 1 0 0 0 0 1 0 0 0 0.12 0"/>
<feBlend mode="normal" in2="effect1_innerShadow_454_1826" result="effect2_innerShadow_454_1826"/>
</filter>
</defs>
</svg>
