<svg width="40" height="41" viewBox="0 0 40 41" fill="none" xmlns="http://www.w3.org/2000/svg">
<g filter="url(#filter0_ii_454_1821)">
<path d="M0 8.375C0 3.95672 3.58172 0.375 8 0.375H32C36.4183 0.375 40 3.95672 40 8.375V32.375C40 36.7933 36.4183 40.375 32 40.375H8C3.58172 40.375 0 36.7933 0 32.375V8.375Z" fill="#F6EBFF" fill-opacity="0.44"/>
<path d="M26 12.8549C24.4087 11.2636 22.2504 10.3696 20 10.3696C17.7496 10.3696 15.5913 11.2636 14 12.8549C12.4087 14.4462 11.5147 16.6045 11.5147 18.8549C11.5147 21.1053 12.4087 23.2636 14 24.8549L19.27 30.1349C19.363 30.2286 19.4736 30.303 19.5954 30.3538C19.7173 30.4046 19.848 30.4307 19.98 30.4307C20.112 30.4307 20.2427 30.4046 20.3646 30.3538C20.4864 30.303 20.597 30.2286 20.69 30.1349L26 24.8049C27.5846 23.2202 28.4749 21.071 28.4749 18.8299C28.4749 16.5889 27.5846 14.4396 26 12.8549ZM24.57 23.3749L20 27.9649L15.43 23.3749C14.5271 22.4712 13.9125 21.3202 13.6637 20.0672C13.4149 18.8142 13.5432 17.5157 14.0323 16.3356C14.5214 15.1555 15.3494 14.147 16.4116 13.4374C17.4738 12.7278 18.7226 12.3491 20 12.3491C21.2774 12.3491 22.5261 12.7278 23.5884 13.4374C24.6506 14.147 25.4786 15.1555 25.9677 16.3356C26.4568 17.5157 26.5851 18.8142 26.3363 20.0672C26.0875 21.3202 25.4728 22.4712 24.57 23.3749ZM17 15.7849C16.1927 16.5947 15.7394 17.6915 15.7394 18.8349C15.7394 19.9783 16.1927 21.0751 17 21.8849C17.5998 22.4857 18.3636 22.896 19.1956 23.0643C20.0277 23.2326 20.8909 23.1515 21.6771 22.8311C22.4632 22.5106 23.1372 21.9652 23.6145 21.2632C24.0918 20.5611 24.3511 19.7338 24.36 18.8849C24.3645 18.3181 24.2553 17.7562 24.0389 17.2323C23.8225 16.7084 23.5032 16.2333 23.1 15.8349C22.7037 15.4295 22.2311 15.1064 21.7094 14.8844C21.1878 14.6623 20.6273 14.5456 20.0604 14.5409C19.4935 14.5363 18.9312 14.6438 18.406 14.8573C17.8807 15.0708 17.4029 15.386 17 15.7849ZM21.69 20.4649C21.311 20.8497 20.8102 21.0908 20.2731 21.1472C19.736 21.2035 19.1961 21.0716 18.7455 20.7738C18.2949 20.4761 17.9618 20.0312 17.803 19.515C17.6442 18.9988 17.6696 18.4435 17.8749 17.9441C18.0803 17.4446 18.4527 17.0319 18.9286 16.7766C19.4045 16.5214 19.9542 16.4393 20.4839 16.5445C21.0136 16.6497 21.4903 16.9357 21.8325 17.3534C22.1747 17.7712 22.3612 18.2949 22.36 18.8349C22.3454 19.4522 22.0865 20.0384 21.64 20.4649H21.69Z" fill="white"/>
</g>
<defs>
<filter id="filter0_ii_454_1821" x="0" y="-1.625" width="40" height="54" filterUnits="userSpaceOnUse" color-interpolation-filters="sRGB">
<feFlood flood-opacity="0" result="BackgroundImageFix"/>
<feBlend mode="normal" in="SourceGraphic" in2="BackgroundImageFix" result="shape"/>
<feColorMatrix in="SourceAlpha" type="matrix" values="0 0 0 0 0 0 0 0 0 0 0 0 0 0 0 0 0 0 127 0" result="hardAlpha"/>
<feOffset dy="-2"/>
<feGaussianBlur stdDeviation="1"/>
<feComposite in2="hardAlpha" operator="arithmetic" k2="-1" k3="1"/>
<feColorMatrix type="matrix" values="0 0 0 0 0.189981 0 0 0 0 0.189981 0 0 0 0 0.189981 0 0 0 0.1 0"/>
<feBlend mode="normal" in2="shape" result="effect1_innerShadow_454_1821"/>
<feColorMatrix in="SourceAlpha" type="matrix" values="0 0 0 0 0 0 0 0 0 0 0 0 0 0 0 0 0 0 127 0" result="hardAlpha"/>
<feOffset dy="12"/>
<feGaussianBlur stdDeviation="6"/>
<feComposite in2="hardAlpha" operator="arithmetic" k2="-1" k3="1"/>
<feColorMatrix type="matrix" values="0 0 0 0 1 0 0 0 0 1 0 0 0 0 1 0 0 0 0.12 0"/>
<feBlend mode="normal" in2="effect1_innerShadow_454_1821" result="effect2_innerShadow_454_1821"/>
</filter>
</defs>
</svg>
