<svg width="218" height="45" viewBox="0 0 218 45" fill="none" xmlns="http://www.w3.org/2000/svg">
<path d="M13.3436 27.4883H0.607544V40.2286H13.3436V27.4883Z" fill="#2FB6BC"/>
<path d="M38.8152 14.748H26.0792V27.4884H38.8152V14.748Z" fill="#EA5289"/>
<path d="M26.0799 14.748H13.3439V27.4884H26.0799V14.748Z" fill="#F088B6"/>
<path d="M64.2879 2.01123H51.5519V14.7516H64.2879V2.01123Z" fill="#6B6BAF"/>
<path d="M64.2879 14.748H51.5519V27.4884H64.2879V14.748Z" fill="#5E58A2"/>
<path d="M64.2879 27.4883H51.5519V40.2286H64.2879V27.4883Z" fill="#473391"/>
<path d="M51.5516 2.01123H38.8156V14.7516H51.5516V2.01123Z" fill="#8A87C0"/>
<path d="M38.8152 27.4883H26.0792V40.2286H38.8152V27.4883Z" fill="#E60064"/>
<path d="M85.7814 30.5283H83.8801V32.2042H85.7814V30.5283Z" fill="#F5F5F5"/>
<path d="M97.0645 42.4189H95.1632V44.0948H97.0645V42.4189Z" fill="#F5F5F5"/>
<path d="M136.889 30.5283H134.987V32.2042H136.889V30.5283Z" fill="#F5F5F5"/>
<path d="M99.748 42.4189H97.8468V44.0948H99.748V42.4189Z" fill="#F5F5F5"/>
<path d="M88.4618 30.5283H86.5605V32.2042H88.4618V30.5283Z" fill="#F5F5F5"/>
<path d="M134.209 30.5283H132.308V32.2042H134.209V30.5283Z" fill="#F5F5F5"/>
<path d="M191.472 33.9814C190.868 33.7008 190.159 33.5605 189.353 33.5605C188.928 33.5605 188.5 33.5955 188.063 33.6657C187.631 33.7319 187.194 33.8177 186.778 33.9151L186.968 35.478C187.432 35.4117 187.861 35.361 188.25 35.326C188.644 35.287 188.955 35.2753 189.177 35.2753C189.972 35.2753 190.553 35.4273 190.919 35.7313C191.293 36.0353 191.472 36.4796 191.472 37.0681V39.2506H169.522V30.54H167.547V41.0901C167.547 41.437 167.469 41.7488 167.317 42.0177C167.165 42.2944 166.924 42.5087 166.588 42.6646C166.257 42.8205 165.817 42.9024 165.279 42.9024C164.742 42.9024 164.317 42.8205 163.947 42.6607C163.581 42.497 163.3 42.2749 163.098 41.9904C162.903 41.7059 162.802 41.3668 162.802 40.9771C162.802 40.8017 162.825 40.5211 162.864 40.1353C162.903 39.7533 162.957 39.2934 163.031 38.7439C163.109 38.2022 163.199 37.5942 163.308 36.9395L161.36 36.6783C161.302 37.0681 161.239 37.4734 161.177 37.8943C161.111 38.3074 161.052 38.7166 161.002 39.1219C160.943 39.5273 160.9 39.8897 160.873 40.2132C160.846 40.5367 160.83 40.8017 160.83 40.9966C160.83 41.6903 161.021 42.3178 161.407 42.8712C161.789 43.4168 162.315 43.8494 162.989 44.1573C163.659 44.4691 164.426 44.625 165.279 44.625C166.133 44.625 166.822 44.4769 167.461 44.1846C168.1 43.9001 168.607 43.4831 168.973 42.9569C169.339 42.4269 169.526 41.8072 169.526 41.0979V40.9693H193.436V37.0758C193.436 36.3354 193.26 35.7079 192.91 35.1895C192.563 34.6712 192.08 34.2698 191.472 33.9892V33.9814Z" fill="#F5F5F5"/>
<path d="M197.6 30.54H195.645V40.9615H197.6V30.54Z" fill="#F5F5F5"/>
<path d="M216.2 35.096C215.908 34.5426 215.471 34.149 214.891 33.8996C214.302 33.6579 213.57 33.5332 212.686 33.5332C212.082 33.5332 211.525 33.5761 211.022 33.6657C210.523 33.7515 210.149 33.8411 209.916 33.9268C209.861 34.1568 209.799 34.453 209.729 34.8193C209.666 35.1896 209.612 35.6027 209.561 36.0587C209.507 36.5147 209.483 36.994 209.483 37.4851C209.483 37.9762 209.507 38.4244 209.549 38.8531C209.565 38.9895 209.577 39.1298 209.592 39.2545H202.692V33.5644H200.721V41.1837C200.721 41.7332 200.608 42.1619 200.374 42.4659C200.144 42.7699 199.837 42.9258 199.455 42.9258C199.385 42.9258 199.28 42.9219 199.135 42.9102C198.991 42.8985 198.843 42.8907 198.687 42.8829L198.617 44.5587C198.773 44.5782 198.929 44.5899 199.069 44.6055C199.217 44.6172 199.354 44.6211 199.482 44.6211C200.121 44.6211 200.682 44.473 201.161 44.1846C201.644 43.9001 202.018 43.4948 202.287 42.9686C202.56 42.4503 202.692 41.854 202.692 41.1876V40.9693H216.628V37.3292C216.628 36.3938 216.484 35.6533 216.196 35.1038L216.2 35.096ZM214.676 39.2506H211.575C211.552 39.0401 211.525 38.8063 211.497 38.5569C211.462 38.1827 211.451 37.8281 211.451 37.4851C211.451 37.1071 211.47 36.729 211.509 36.3432C211.548 35.9807 211.591 35.6339 211.638 35.3104C211.98 35.2675 212.331 35.248 212.686 35.248C213.2 35.248 213.601 35.3026 213.886 35.4273C214.178 35.552 214.38 35.7586 214.501 36.0626C214.622 36.3627 214.676 36.7797 214.676 37.3097V39.2545V39.2506Z" fill="#F5F5F5"/>
<path d="M132.323 33.9814C131.785 34.262 131.384 34.679 131.123 35.2246C130.862 35.7781 130.733 36.4562 130.733 37.259C130.733 38.0619 130.85 38.74 131.1 39.2506H124.223V37.3214C124.223 36.386 124.075 35.6456 123.791 35.096C123.498 34.5426 123.062 34.149 122.478 33.8996C121.897 33.6579 121.161 33.5332 120.276 33.5332C119.669 33.5332 119.115 33.5761 118.609 33.6657C118.11 33.7515 117.74 33.8411 117.503 33.9268C117.444 34.1568 117.386 34.453 117.323 34.8193C117.257 35.1896 117.199 35.6027 117.152 36.0587C117.105 36.5147 117.082 36.994 117.082 37.4851C117.082 37.9762 117.101 38.4244 117.148 38.8531C117.164 38.9895 117.175 39.1298 117.191 39.2545H98.942V33.5644H96.9862V39.2545H89.4124V33.5644H86.0813C85.2476 33.5644 84.558 33.7008 84.0165 33.9814C83.4788 34.262 83.0775 34.679 82.8165 35.2363C82.5554 35.7898 82.4269 36.4796 82.4269 37.3097C82.4269 38.1398 82.5554 38.8141 82.8165 39.3519C83.0775 39.8936 83.4788 40.2951 84.0165 40.564C84.5541 40.829 85.2476 40.9654 86.0813 40.9654H137.719V33.5644H134.388C133.554 33.5644 132.864 33.7008 132.327 33.9814H132.323ZM87.4332 39.2506H86.0774C85.6528 39.2506 85.3216 39.2077 85.0762 39.1181C84.8268 39.0284 84.6554 38.8453 84.5502 38.5647C84.445 38.284 84.3944 37.8631 84.3944 37.3058C84.3944 36.7134 84.4528 36.2769 84.5658 35.9846C84.6788 35.6923 84.858 35.5052 85.1034 35.4078C85.345 35.3182 85.6684 35.2714 86.0735 35.2714H87.4293V39.2506H87.4332ZM122.256 39.2506H119.162C119.135 39.0401 119.108 38.8063 119.084 38.5569C119.053 38.1827 119.034 37.8281 119.034 37.4851C119.034 37.1071 119.053 36.729 119.092 36.3432C119.131 35.9807 119.178 35.6339 119.225 35.3104C119.567 35.2675 119.914 35.248 120.273 35.248C120.783 35.248 121.184 35.3026 121.473 35.4273C121.765 35.552 121.967 35.7586 122.08 36.0626C122.201 36.3627 122.256 36.7797 122.256 37.3097V39.2545V39.2506ZM135.744 39.2506H134.384C133.951 39.2506 133.612 39.2038 133.371 39.1064C133.122 39.0167 132.95 38.8297 132.853 38.5491C132.759 38.2685 132.705 37.8397 132.705 37.259C132.705 36.729 132.759 36.3198 132.853 36.0275C132.954 35.7352 133.125 35.5364 133.371 35.4312C133.612 35.3221 133.951 35.2675 134.384 35.2675H135.744V39.2467V39.2506Z" fill="#F5F5F5"/>
<path d="M149.411 39.2506H142.515V33.5605H140.543V41.1797C140.543 41.7254 140.43 42.158 140.197 42.462C139.967 42.7659 139.659 42.9179 139.277 42.9179C139.207 42.9179 139.102 42.914 138.958 42.9024C138.821 42.8907 138.666 42.8829 138.51 42.8751L138.44 44.5509C138.595 44.5704 138.747 44.5821 138.895 44.5977C139.04 44.6055 139.176 44.6133 139.304 44.6133C139.943 44.6133 140.504 44.4652 140.984 44.1768C141.463 43.8923 141.841 43.487 142.106 42.9608C142.378 42.4425 142.511 41.8462 142.511 41.1797V40.9615H151.382V30.54H149.411V39.2506Z" fill="#F5F5F5"/>
<path d="M155.707 30.54H153.743V40.9615H155.707V30.54Z" fill="#F5F5F5"/>
<path d="M94.3297 14.514L89.0545 1.85547H81.504V24.9666H86.8493V8.47703L91.7817 20.5509H96.8465L101.814 8.47703V24.9666H107.159V1.85547H99.6087L94.3297 14.514Z" fill="#F5F5F5"/>
<path d="M124.812 9.23676C124.146 8.34037 123.324 7.65055 122.346 7.16728C121.368 6.68401 120.281 6.44238 119.089 6.44238C117.826 6.44238 116.661 6.66842 115.606 7.11661C114.55 7.5648 113.646 8.20397 112.898 9.0302C112.15 9.85643 111.569 10.8542 111.156 12.0156C110.743 13.177 110.537 14.4592 110.537 15.8622C110.537 17.2652 110.751 18.5085 111.176 19.6582C111.601 20.8079 112.193 21.7978 112.952 22.6241C113.712 23.4503 114.612 24.1012 115.66 24.5727C116.704 25.0443 117.85 25.2821 119.093 25.2821C120.335 25.2821 121.465 25.0326 122.49 24.5416C123.511 24.0466 124.286 23.3763 124.816 22.5227V24.9703H129.99V6.75807H124.816V9.24066L124.812 9.23676ZM124.485 17.7212C124.266 18.2747 123.955 18.7501 123.553 19.1516C123.152 19.553 122.681 19.8687 122.139 20.0986C121.598 20.3285 120.994 20.4416 120.328 20.4416C119.661 20.4416 119.085 20.3285 118.535 20.0986C117.986 19.8687 117.511 19.553 117.121 19.1516C116.732 18.7501 116.42 18.2669 116.19 17.7017C115.96 17.1366 115.847 16.5365 115.847 15.8895C115.847 15.2425 115.956 14.6073 116.174 14.0422C116.393 13.481 116.704 12.9977 117.106 12.5924C117.507 12.1909 117.986 11.8752 118.535 11.6453C119.089 11.4154 119.685 11.3023 120.328 11.3023C121.66 11.3023 122.739 11.7272 123.569 12.5768C124.395 13.4303 124.808 14.5332 124.808 15.8895C124.808 16.5559 124.699 17.1678 124.481 17.7173L124.485 17.7212Z" fill="#F5F5F5"/>
<path d="M139.017 10.0322V6.75457H133.847V24.9668H139.017V16.6187C139.017 15.7457 139.184 14.9857 139.515 14.3427C139.847 13.6996 140.306 13.1657 140.895 12.737C141.483 12.3122 142.176 11.9965 142.979 11.7899C143.785 11.5834 144.67 11.4898 145.636 11.5132V6.40771C144.304 6.40771 143.057 6.7078 141.896 7.30409C140.735 7.90428 139.776 8.81236 139.017 10.0283V10.0322Z" fill="#F5F5F5"/>
<path d="M161.501 9.23676C160.834 8.34037 160.012 7.65055 159.034 7.16728C158.056 6.68401 156.973 6.44238 155.777 6.44238C154.511 6.44238 153.35 6.66842 152.294 7.11661C151.238 7.5648 150.335 8.20397 149.587 9.0302C148.839 9.85643 148.258 10.8542 147.845 12.0156C147.432 13.177 147.226 14.4592 147.226 15.8622C147.226 17.2652 147.44 18.5085 147.865 19.6582C148.289 20.8079 148.881 21.7978 149.641 22.6241C150.401 23.4503 151.301 24.1012 152.349 24.5727C153.397 25.0443 154.538 25.2821 155.781 25.2821C157.024 25.2821 158.154 25.0326 159.178 24.5416C160.199 24.0466 160.975 23.3763 161.504 22.5227V24.9703H166.678V6.75807H161.504V9.24066L161.501 9.23676ZM161.173 17.7212C160.955 18.2747 160.643 18.7501 160.242 19.1516C159.841 19.553 159.369 19.8687 158.828 20.0986C158.286 20.3285 157.682 20.4416 157.016 20.4416C156.35 20.4416 155.777 20.3285 155.224 20.0986C154.671 19.8687 154.199 19.553 153.81 19.1516C153.42 18.7501 153.109 18.2669 152.879 17.7017C152.649 17.1366 152.536 16.5365 152.536 15.8895C152.536 15.2425 152.645 14.6073 152.863 14.0422C153.081 13.481 153.393 12.9977 153.794 12.5924C154.196 12.1909 154.675 11.8752 155.224 11.6453C155.777 11.4154 156.373 11.3023 157.016 11.3023C158.349 11.3023 159.432 11.7272 160.258 12.5768C161.084 13.4303 161.497 14.5332 161.497 15.8895C161.497 16.5559 161.388 17.1678 161.169 17.7173L161.173 17.7212Z" fill="#F5F5F5"/>
<path d="M186.03 8.37565C185.469 7.75597 184.791 7.2727 183.996 6.92584C183.205 6.57898 182.325 6.4075 181.358 6.4075C180.326 6.4075 179.305 6.64913 178.308 7.1324C177.307 7.61567 176.442 8.2938 175.705 9.16681V0.128906H170.535V24.9627H175.705V15.4415C175.729 14.8218 175.842 14.245 176.052 13.715C176.258 13.185 176.535 12.729 176.878 12.3353C177.225 11.9456 177.626 11.6416 178.086 11.4195C178.545 11.2012 179.04 11.0921 179.566 11.0921C180.509 11.0921 181.261 11.4039 181.826 12.0235C182.391 12.6432 182.671 13.4617 182.671 14.4711V24.9588H187.845V13.3681C187.845 12.3548 187.685 11.4272 187.362 10.5737C187.039 9.72412 186.598 8.98753 186.034 8.36786L186.03 8.37565Z" fill="#F5F5F5"/>
<path d="M209.219 14.3427C209.125 13.1696 208.829 12.0939 208.323 11.1196C207.816 10.1414 207.158 9.31122 206.34 8.61749C205.521 7.92767 204.571 7.38594 203.476 6.9962C202.385 6.60647 201.205 6.40771 199.942 6.40771C198.563 6.40771 197.301 6.64545 196.152 7.11313C195.002 7.58471 194.013 8.23556 193.187 9.06179C192.361 9.88803 191.714 10.8857 191.254 12.0432C190.795 13.2046 190.565 14.4752 190.565 15.8548C190.565 17.2345 190.798 18.505 191.27 19.6664C191.741 20.8278 192.396 21.8216 193.237 22.6518C194.075 23.478 195.088 24.1249 196.272 24.5809C197.457 25.0408 198.75 25.2708 200.149 25.2708C202.377 25.2708 204.263 24.729 205.806 23.6495C207.345 22.5699 208.381 21.0032 208.911 18.9571H203.772C203.542 19.5768 203.121 20.06 202.514 20.4069C201.906 20.7499 201.185 20.9253 200.359 20.9253C199.187 20.9253 198.213 20.5979 197.445 19.9431C196.674 19.2884 196.187 18.3842 195.98 17.2345H209.289C209.312 16.9383 209.324 16.6265 209.324 16.303C209.324 16.1432 209.32 15.9055 209.308 15.5976C209.297 15.2858 209.269 14.8688 209.223 14.3388L209.219 14.3427ZM196.05 14.1712C196.304 13.1345 196.787 12.3277 197.5 11.7393C198.213 11.1508 199.074 10.8624 200.087 10.8624C201.189 10.8624 202.105 11.1547 202.825 11.7393C203.55 12.3277 203.971 13.1345 204.084 14.1712H196.05Z" fill="#F5F5F5"/>
<path d="M217.393 0.132812H212.219V24.9666H217.393V0.132812Z" fill="#F5F5F5"/>
</svg>
