<svg width="265" height="69" viewBox="0 0 265 69" fill="none" xmlns="http://www.w3.org/2000/svg">
<path d="M36.736 39.3593H24V52.0996H36.736V39.3593Z" fill="#2FB6BC"/>
<path d="M62.2077 26.6189H49.4717V39.3593H62.2077V26.6189Z" fill="#EA5289"/>
<path d="M49.4723 26.6189H36.7363V39.3593H49.4723V26.6189Z" fill="#F088B6"/>
<path d="M87.6803 13.8824H74.9443V26.6227H87.6803V13.8824Z" fill="#6B6BAF"/>
<path d="M87.6803 26.6189H74.9443V39.3593H87.6803V26.6189Z" fill="#5E58A2"/>
<path d="M87.6803 39.3593H74.9443V52.0996H87.6803V39.3593Z" fill="#473391"/>
<path d="M74.944 13.8824H62.208V26.6227H74.944V13.8824Z" fill="#8A87C0"/>
<path d="M62.2077 39.3593H49.4717V52.0996H62.2077V39.3593Z" fill="#E60064"/>
<path d="M109.174 42.3991H107.272V44.075H109.174V42.3991Z" fill="#473391"/>
<path d="M120.457 54.2899H118.556V55.9657H120.457V54.2899Z" fill="#473391"/>
<path d="M160.281 42.3991H158.38V44.075H160.281V42.3991Z" fill="#473391"/>
<path d="M123.141 54.2899H121.239V55.9657H123.141V54.2899Z" fill="#473391"/>
<path d="M111.854 42.3991H109.953V44.075H111.854V42.3991Z" fill="#473391"/>
<path d="M157.601 42.3991H155.7V44.075H157.601V42.3991Z" fill="#473391"/>
<path d="M214.865 45.8522C214.261 45.5716 213.552 45.4313 212.745 45.4313C212.321 45.4313 211.892 45.4663 211.456 45.5365C211.023 45.6027 210.587 45.6885 210.17 45.7859L210.361 47.3487C210.825 47.2825 211.253 47.2318 211.643 47.1967C212.036 47.1578 212.348 47.1461 212.57 47.1461C213.365 47.1461 213.945 47.2981 214.311 47.6021C214.685 47.9061 214.865 48.3504 214.865 48.9388V51.1214H192.915V42.4108H190.939V52.9609C190.939 53.3078 190.861 53.6195 190.709 53.8885C190.558 54.1652 190.316 54.3795 189.981 54.5354C189.65 54.6913 189.21 54.7731 188.672 54.7731C188.134 54.7731 187.71 54.6913 187.339 54.5315C186.973 54.3678 186.693 54.1457 186.49 53.8612C186.295 53.5767 186.194 53.2376 186.194 52.8479C186.194 52.6725 186.217 52.3919 186.256 52.006C186.295 51.6241 186.35 51.1642 186.424 50.6147C186.502 50.073 186.591 49.465 186.701 48.8102L184.753 48.5491C184.694 48.9388 184.632 49.3442 184.569 49.7651C184.503 50.1782 184.445 50.5874 184.394 50.9927C184.336 51.3981 184.293 51.7605 184.266 52.084C184.238 52.4075 184.223 52.6725 184.223 52.8674C184.223 53.5611 184.414 54.1886 184.799 54.742C185.181 55.2876 185.707 55.7202 186.381 56.0281C187.051 56.3399 187.819 56.4958 188.672 56.4958C189.525 56.4958 190.215 56.3477 190.854 56.0554C191.493 55.7709 191.999 55.3539 192.365 54.8277C192.732 54.2977 192.919 53.678 192.919 52.9687V52.8401H216.828V48.9466C216.828 48.2061 216.653 47.5787 216.302 47.0603C215.956 46.542 215.472 46.1406 214.865 45.86V45.8522Z" fill="#473391"/>
<path d="M220.993 42.4108H219.037V52.8323H220.993V42.4108Z" fill="#473391"/>
<path d="M239.592 46.9668C239.3 46.4133 238.864 46.0197 238.283 45.7703C237.695 45.5286 236.963 45.4039 236.078 45.4039C235.474 45.4039 234.917 45.4468 234.415 45.5364C233.916 45.6222 233.542 45.7118 233.308 45.7976C233.254 46.0275 233.191 46.3237 233.121 46.6901C233.059 47.0603 233.004 47.4734 232.954 47.9294C232.899 48.3854 232.876 48.8648 232.876 49.3558C232.876 49.8469 232.899 50.2951 232.942 50.7238C232.958 50.8602 232.969 51.0005 232.985 51.1252H226.085V45.4351H224.114V53.0544C224.114 53.6039 224.001 54.0326 223.767 54.3366C223.537 54.6406 223.229 54.7965 222.847 54.7965C222.777 54.7965 222.672 54.7926 222.528 54.7809C222.384 54.7692 222.236 54.7614 222.08 54.7536L222.01 56.4295C222.166 56.449 222.321 56.4606 222.462 56.4762C222.61 56.4879 222.746 56.4918 222.875 56.4918C223.514 56.4918 224.075 56.3437 224.554 56.0553C225.037 55.7708 225.411 55.3655 225.68 54.8394C225.953 54.321 226.085 53.7247 226.085 53.0583V52.84H240.021V49.1999C240.021 48.2646 239.877 47.5241 239.589 46.9746L239.592 46.9668ZM238.069 51.1213H234.968C234.944 50.9109 234.917 50.677 234.89 50.4276C234.855 50.0534 234.843 49.6988 234.843 49.3558C234.843 48.9778 234.863 48.5997 234.902 48.2139C234.941 47.8515 234.983 47.5046 235.03 47.1811C235.373 47.1382 235.724 47.1188 236.078 47.1188C236.592 47.1188 236.994 47.1733 237.278 47.298C237.57 47.4228 237.773 47.6293 237.894 47.9333C238.015 48.2334 238.069 48.6504 238.069 49.1804V51.1252V51.1213Z" fill="#473391"/>
<path d="M155.715 45.8521C155.178 46.1327 154.776 46.5497 154.515 47.0954C154.254 47.6488 154.126 48.3269 154.126 49.1298C154.126 49.9326 154.243 50.6108 154.492 51.1213H147.616V49.1921C147.616 48.2568 147.468 47.5163 147.183 46.9668C146.891 46.4133 146.455 46.0197 145.87 45.7703C145.29 45.5286 144.553 45.4039 143.669 45.4039C143.061 45.4039 142.508 45.4468 142.001 45.5364C141.503 45.6222 141.133 45.7118 140.895 45.7976C140.837 46.0275 140.778 46.3237 140.716 46.6901C140.65 47.0603 140.591 47.4734 140.544 47.9294C140.498 48.3854 140.474 48.8648 140.474 49.3558C140.474 49.8469 140.494 50.2951 140.54 50.7238C140.556 50.8602 140.568 51.0005 140.583 51.1252H122.334V45.4351H120.379V51.1252H112.805V45.4351H109.474C108.64 45.4351 107.95 45.5715 107.409 45.8521C106.871 46.1327 106.47 46.5498 106.209 47.1071C105.948 47.6605 105.819 48.3503 105.819 49.1804C105.819 50.0106 105.948 50.6848 106.209 51.2226C106.47 51.7644 106.871 52.1658 107.409 52.4347C107.947 52.6997 108.64 52.8361 109.474 52.8361H161.111V45.4351H157.78C156.946 45.4351 156.257 45.5715 155.719 45.8521H155.715ZM110.826 51.1213H109.47C109.045 51.1213 108.714 51.0784 108.469 50.9888C108.219 50.8992 108.048 50.716 107.943 50.4354C107.837 50.1548 107.787 49.7339 107.787 49.1766C107.787 48.5842 107.845 48.1477 107.958 47.8554C108.071 47.5631 108.25 47.376 108.496 47.2785C108.737 47.1889 109.061 47.1421 109.466 47.1421H110.822V51.1213H110.826ZM145.648 51.1213H142.555C142.527 50.9109 142.5 50.677 142.477 50.4276C142.446 50.0534 142.426 49.6988 142.426 49.3558C142.426 48.9778 142.446 48.5997 142.485 48.2139C142.524 47.8515 142.57 47.5046 142.617 47.1811C142.96 47.1382 143.307 47.1188 143.665 47.1188C144.175 47.1188 144.577 47.1733 144.865 47.298C145.157 47.4228 145.36 47.6293 145.473 47.9333C145.594 48.2334 145.648 48.6504 145.648 49.1804V51.1252V51.1213ZM159.136 51.1213H157.776C157.344 51.1213 157.005 51.0745 156.763 50.9771C156.514 50.8875 156.343 50.7004 156.245 50.4198C156.152 50.1392 156.097 49.7105 156.097 49.1298C156.097 48.5997 156.152 48.1905 156.245 47.8982C156.347 47.6059 156.518 47.4072 156.763 47.3019C157.005 47.1928 157.344 47.1382 157.776 47.1382H159.136V51.1174V51.1213Z" fill="#473391"/>
<path d="M172.803 51.1214H165.907V45.4313H163.936V53.0505C163.936 53.5962 163.823 54.0288 163.589 54.3327C163.359 54.6367 163.051 54.7887 162.67 54.7887C162.6 54.7887 162.494 54.7848 162.35 54.7731C162.214 54.7615 162.058 54.7537 161.902 54.7459L161.832 56.4217C161.988 56.4412 162.14 56.4529 162.288 56.4685C162.432 56.4763 162.568 56.4841 162.697 56.4841C163.336 56.4841 163.897 56.336 164.376 56.0476C164.855 55.7631 165.233 55.3577 165.498 54.8316C165.771 54.3133 165.903 53.717 165.903 53.0505V52.8323H174.775V42.4108H172.803V51.1214Z" fill="#473391"/>
<path d="M179.099 42.4108H177.136V52.8323H179.099V42.4108Z" fill="#473391"/>
<path d="M117.722 26.385L112.447 13.7265H104.896V36.8376H110.242V20.3481L115.174 32.422H120.239L125.206 20.3481V36.8376H130.552V13.7265H123.001L117.722 26.385Z" fill="#473391"/>
<path d="M148.205 21.108C147.538 20.2117 146.716 19.5218 145.738 19.0386C144.761 18.5553 143.674 18.3137 142.481 18.3137C141.219 18.3137 140.054 18.5397 138.998 18.9879C137.943 19.4361 137.039 20.0752 136.291 20.9015C135.543 21.7277 134.962 22.7254 134.549 23.8868C134.136 25.0482 133.93 26.3305 133.93 27.7335C133.93 29.1365 134.144 30.3798 134.569 31.5295C134.993 32.6792 135.585 33.6691 136.345 34.4953C137.105 35.3216 138.005 35.9724 139.053 36.444C140.097 36.9156 141.242 37.1533 142.485 37.1533C143.728 37.1533 144.858 36.9039 145.883 36.4128C146.903 35.9179 147.679 35.2475 148.209 34.394V36.8415H153.382V18.6293H148.209V21.1119L148.205 21.108ZM147.877 29.5925C147.659 30.1459 147.347 30.6214 146.946 31.0228C146.545 31.4243 146.074 31.7399 145.532 31.9699C144.99 32.1998 144.387 32.3128 143.72 32.3128C143.054 32.3128 142.478 32.1998 141.928 31.9699C141.379 31.7399 140.904 31.4243 140.514 31.0228C140.124 30.6214 139.813 30.1381 139.583 29.573C139.353 29.0079 139.24 28.4077 139.24 27.7608C139.24 27.1138 139.349 26.4786 139.567 25.9134C139.785 25.3522 140.097 24.869 140.498 24.4636C140.9 24.0622 141.379 23.7465 141.928 23.5166C142.481 23.2866 143.077 23.1736 143.72 23.1736C145.053 23.1736 146.132 23.5984 146.962 24.448C147.788 25.3016 148.201 26.4045 148.201 27.7608C148.201 28.4272 148.092 29.0391 147.873 29.5886L147.877 29.5925Z" fill="#473391"/>
<path d="M162.409 21.9031V18.6255H157.239V36.8377H162.409V28.4896C162.409 27.6166 162.577 26.8566 162.908 26.2136C163.239 25.5705 163.699 25.0366 164.287 24.6079C164.875 24.1831 165.569 23.8674 166.371 23.6608C167.178 23.4543 168.062 23.3607 169.029 23.3841V18.2786C167.696 18.2786 166.449 18.5787 165.288 19.175C164.127 19.7752 163.169 20.6833 162.409 21.8992V21.9031Z" fill="#473391"/>
<path d="M184.893 21.108C184.227 20.2117 183.405 19.5218 182.427 19.0386C181.449 18.5553 180.366 18.3137 179.17 18.3137C177.904 18.3137 176.743 18.5397 175.687 18.9879C174.631 19.4361 173.727 20.0752 172.979 20.9015C172.231 21.7277 171.651 22.7254 171.238 23.8868C170.825 25.0482 170.618 26.3305 170.618 27.7335C170.618 29.1365 170.832 30.3798 171.257 31.5295C171.682 32.6792 172.274 33.6691 173.034 34.4953C173.793 35.3216 174.693 35.9724 175.741 36.444C176.789 36.9156 177.931 37.1533 179.174 37.1533C180.417 37.1533 181.546 36.9039 182.571 36.4128C183.592 35.9179 184.367 35.2475 184.897 34.394V36.8415H190.071V18.6293H184.897V21.1119L184.893 21.108ZM184.566 29.5925C184.348 30.1459 184.036 30.6214 183.635 31.0228C183.233 31.4243 182.762 31.7399 182.22 31.9699C181.679 32.1998 181.075 32.3128 180.409 32.3128C179.743 32.3128 179.17 32.1998 178.617 31.9699C178.063 31.7399 177.592 31.4243 177.202 31.0228C176.813 30.6214 176.501 30.1381 176.271 29.573C176.041 29.0079 175.928 28.4077 175.928 27.7608C175.928 27.1138 176.038 26.4786 176.256 25.9134C176.474 25.3522 176.786 24.869 177.187 24.4636C177.588 24.0622 178.067 23.7465 178.617 23.5166C179.17 23.2866 179.766 23.1736 180.409 23.1736C181.741 23.1736 182.824 23.5984 183.65 24.448C184.476 25.3016 184.889 26.4045 184.889 27.7608C184.889 28.4272 184.78 29.0391 184.562 29.5886L184.566 29.5925Z" fill="#473391"/>
<path d="M209.422 20.2467C208.861 19.6271 208.183 19.1438 207.388 18.7969C206.598 18.4501 205.717 18.2786 204.751 18.2786C203.718 18.2786 202.698 18.5202 201.7 19.0035C200.699 19.4868 199.834 20.1649 199.098 21.0379V12H193.928V36.8338H199.098V27.3126C199.121 26.6929 199.234 26.1161 199.444 25.5861C199.651 25.056 199.928 24.6001 200.27 24.2064C200.617 23.8167 201.018 23.5127 201.478 23.2906C201.938 23.0723 202.433 22.9632 202.959 22.9632C203.901 22.9632 204.653 23.275 205.218 23.8946C205.783 24.5143 206.064 25.3327 206.064 26.3422V36.8299H211.238V25.2392C211.238 24.2259 211.078 23.2983 210.755 22.4448C210.431 21.5952 209.991 20.8586 209.426 20.239L209.422 20.2467Z" fill="#473391"/>
<path d="M232.611 26.2136C232.518 25.0405 232.221 23.9648 231.715 22.9905C231.209 22.0123 230.55 21.1821 229.732 20.4884C228.914 19.7986 227.963 19.2568 226.868 18.8671C225.777 18.4774 224.597 18.2786 223.335 18.2786C221.956 18.2786 220.693 18.5164 219.544 18.984C218.395 19.4556 217.405 20.1065 216.579 20.9327C215.753 21.7589 215.106 22.7566 214.647 23.9142C214.187 25.0756 213.957 26.3461 213.957 27.7257C213.957 29.1054 214.191 30.3759 214.662 31.5373C215.134 32.6987 215.788 33.6925 216.63 34.5227C217.467 35.3489 218.48 35.9959 219.665 36.4518C220.849 36.9117 222.143 37.1417 223.541 37.1417C225.77 37.1417 227.655 36.5999 229.198 35.5204C230.737 34.4408 231.773 32.8741 232.303 30.828H227.164C226.935 31.4477 226.514 31.931 225.906 32.2778C225.298 32.6208 224.578 32.7962 223.752 32.7962C222.579 32.7962 221.605 32.4688 220.837 31.814C220.066 31.1593 219.579 30.2551 219.372 29.1054H232.681C232.705 28.8092 232.716 28.4974 232.716 28.1739C232.716 28.0141 232.712 27.7764 232.701 27.4685C232.689 27.1567 232.662 26.7397 232.615 26.2097L232.611 26.2136ZM219.443 26.0421C219.696 25.0054 220.179 24.1987 220.892 23.6102C221.605 23.0217 222.466 22.7333 223.479 22.7333C224.581 22.7333 225.497 23.0256 226.218 23.6102C226.942 24.1987 227.363 25.0054 227.476 26.0421H219.443Z" fill="#473391"/>
<path d="M240.785 12.0039H235.611V36.8377H240.785V12.0039Z" fill="#473391"/>
</svg>
