<svg width="131" height="83" viewBox="0 0 131 83" fill="none" xmlns="http://www.w3.org/2000/svg">
<path d="M130.967 79.3205L125.596 46.0249C125.552 45.73 125.452 45.4465 125.302 45.191V45.1853C125.101 44.8353 124.818 44.5346 124.473 44.312L118.575 40.5485C123.005 37.1908 125.707 31.9148 125.707 26.1829C125.707 21.2298 123.634 16.4426 120.026 13.0464C116.362 9.60491 111.569 7.88131 106.538 8.19268C97.2925 8.7653 89.8764 16.4763 89.6546 25.7434C89.51 31.6585 92.2179 37.107 96.7758 40.5485L93.8297 42.4331L98.4665 45.4071L102.919 42.5662C103.697 42.0716 104.143 41.1819 104.065 40.2535C103.992 39.3309 103.408 38.525 102.558 38.1578C97.6269 36.0505 94.5297 31.2198 94.6578 25.86C94.8189 19.1669 100.173 13.6017 106.844 13.1844C110.485 12.9568 113.949 14.2072 116.595 16.6924C119.241 19.1833 120.703 22.5517 120.703 26.1821C120.703 31.4022 117.601 36.0998 112.798 38.1569C111.947 38.5242 111.363 39.3301 111.291 40.2527C111.213 41.1811 111.658 42.0708 112.436 42.5654L120.836 47.9243L125.301 75.5989L126.029 80.1133C126.23 81.3424 127.291 82.2149 128.497 82.2149C128.626 82.2149 128.764 82.2091 128.897 82.1869C130.261 81.9667 131.19 80.6827 130.967 79.3205ZM41.5613 26.1837C41.5613 21.2306 39.4877 16.4435 35.8737 13.0472C32.2153 9.60573 27.4233 7.88213 22.3864 8.1935C13.1464 8.76612 5.73034 16.4772 5.5077 25.7442C5.36311 31.6593 8.06518 37.1078 12.6297 40.5493L6.73099 44.3128C6.13044 44.6965 5.71966 45.3192 5.60793 46.0249L0.237494 79.3205C0.0206053 80.6827 0.948942 81.9667 2.31107 82.1894C3.67319 82.4063 4.95727 81.4779 5.17991 80.1158L5.60793 77.4581L10.3671 47.9268L18.7732 42.5678C19.5512 42.0733 19.9965 41.1835 19.9185 40.2552C19.8404 39.3326 19.2628 38.5266 18.4117 38.1594C13.4808 36.0521 10.3844 31.2214 10.5117 25.8617C10.6728 19.1685 16.0268 13.6034 22.6977 13.186C26.3388 12.9585 29.8025 14.2089 32.4487 16.694C35.0949 19.185 36.5572 22.5533 36.5572 26.1837C36.5572 31.4038 33.4551 36.1014 28.6523 38.1586C27.8012 38.5258 27.2179 39.3318 27.1456 40.2544C27.0676 41.1827 27.5071 42.0724 28.2908 42.567L32.7272 45.3964L37.3582 42.4167L34.4286 40.5485C38.8592 37.1916 41.5613 31.9157 41.5613 26.1837ZM103.42 50.84L96.6772 46.5482L92.024 43.5849L75.4123 33.005C80.4155 29.7583 83.5456 24.1709 83.5456 17.9609C83.5456 13.0349 81.4835 8.27072 77.8917 4.89088C74.2449 1.46667 69.4692 -0.251181 64.4602 0.0593633C55.6878 0.604049 48.4992 7.60938 47.7319 16.3539C47.1371 23.1588 50.328 29.4683 55.7929 33.01L40.7159 42.6114L39.187 43.5841L34.5338 46.5474L32.6384 47.7534L27.7905 50.8392C27.0733 51.3009 26.6338 52.0953 26.6338 52.9514V65.5325C26.6338 70.1241 30.3693 73.8605 34.956 73.8605C37.2966 73.8605 39.5427 72.8657 41.116 71.1363C42.6893 69.4069 43.4673 67.0779 43.2454 64.7488L42.1725 53.4468L41.8611 50.2L37.1241 53.2184L37.4075 56.226L38.2636 65.2212C38.3523 66.1659 38.0524 67.0672 37.4133 67.7671C36.7741 68.4679 35.9065 68.8565 34.956 68.8565C33.1273 68.8565 31.637 67.3662 31.637 65.5317V54.3242L35.3619 51.9507L36.913 50.9665L41.65 47.9481L44.7242 45.9912L62.2922 34.8001C63.1096 34.2776 63.5541 33.3271 63.4259 32.365C63.2978 31.403 62.6257 30.5971 61.6974 30.3021C55.8767 28.4676 52.1855 22.9082 52.7187 16.7926C53.2691 10.4938 58.4506 5.44625 64.7716 5.05108C68.3905 4.82844 71.832 6.06323 74.4618 8.5369C77.0973 11.0106 78.5424 14.3576 78.5424 17.96C78.5424 23.6419 74.912 28.6007 69.5087 30.3021C68.5803 30.5971 67.9074 31.403 67.7793 32.365C67.6511 33.3271 68.0964 34.2776 68.9139 34.8001L81.3003 42.6886L89.5618 47.9481L94.2988 50.9665L96.3445 52.267L99.5748 54.3242V65.5317C99.5748 67.3662 98.0845 68.8565 96.25 68.8565C95.2995 68.8565 94.4319 68.4671 93.7927 67.7671C93.1536 67.0663 92.8529 66.1602 92.9425 65.2212L93.7426 56.8044L94.082 53.2356L89.3449 50.2222L88.9834 54.0194L87.9606 64.7488C87.7379 67.0779 88.5168 69.402 90.09 71.1363C91.6633 72.8648 93.9094 73.8605 96.2558 73.8605C100.842 73.8605 104.578 70.125 104.578 65.5325V52.9514C104.577 52.0961 104.138 51.3009 103.42 50.84Z" fill="url(#paint0_linear_558_179)"/>
<path d="M5.60891 46.0249V77.4581L5.18089 80.1158C4.95825 81.4779 3.67417 82.4063 2.31204 82.1894C0.949919 81.9668 0.0215819 80.6827 0.23847 79.3205L5.60891 46.0249Z" fill="url(#paint1_linear_558_179)"/>
<path d="M128.899 82.1894C128.766 82.2116 128.627 82.2174 128.499 82.2174C127.293 82.2174 126.231 81.3449 126.031 80.1158L125.303 75.6014V45.1919C125.453 45.4474 125.553 45.7308 125.598 46.0258L130.968 79.3214C131.19 80.6827 130.262 81.9668 128.899 82.1894Z" fill="url(#paint2_linear_558_179)"/>
<path opacity="0.46" d="M41.8612 50.2L42.1726 53.4467L37.4085 56.2268L37.125 53.2191L41.8612 50.2Z" fill="url(#paint3_linear_558_179)"/>
<path opacity="0.46" d="M89.3439 50.2229L94.0809 53.2355L93.7417 56.8051L88.9824 54.0193L89.3439 50.2229Z" fill="url(#paint4_linear_558_179)"/>
<defs>
<linearGradient id="paint0_linear_558_179" x1="65.6036" y1="5.28013" x2="65.6036" y2="82.2191" gradientUnits="userSpaceOnUse">
<stop stop-color="#F84FFF"/>
<stop offset="1" stop-color="#7B86FF"/>
</linearGradient>
<linearGradient id="paint1_linear_558_179" x1="2.95589" y1="78.1545" x2="5.7844" y2="57.7264" gradientUnits="userSpaceOnUse">
<stop stop-color="white" stop-opacity="0"/>
<stop offset="1" stop-color="white"/>
</linearGradient>
<linearGradient id="paint2_linear_558_179" x1="129.002" y1="84.3075" x2="125.437" y2="56.1238" gradientUnits="userSpaceOnUse">
<stop stop-color="white" stop-opacity="0"/>
<stop offset="1" stop-color="white"/>
</linearGradient>
<linearGradient id="paint3_linear_558_179" x1="38.9014" y1="51.792" x2="40.2891" y2="54.4808" gradientUnits="userSpaceOnUse">
<stop stop-color="#02023B"/>
<stop offset="1" stop-color="#02023B" stop-opacity="0"/>
</linearGradient>
<linearGradient id="paint4_linear_558_179" x1="91.9005" y1="50.8906" x2="91.3801" y2="54.7068" gradientUnits="userSpaceOnUse">
<stop stop-color="#02023B"/>
<stop offset="1" stop-color="#02023B" stop-opacity="0"/>
</linearGradient>
</defs>
</svg>
