<svg width="129" height="100" viewBox="0 0 129 100" fill="none" xmlns="http://www.w3.org/2000/svg">
<path d="M118.796 65.1663C89.2215 63.6488 65.5062 39.9334 63.9886 10.3591C63.9357 9.35491 63.9131 8.35072 63.9131 7.33899H18.6493C8.78869 7.33899 0.792969 15.3347 0.792969 25.1953V65.7704C0.792969 75.631 8.78869 83.6267 18.6493 83.6267H30.3824V96.8699C30.3824 99.3841 33.2062 100.871 35.275 99.4445L58.273 83.6267H103.96C113.82 83.6267 121.816 75.631 121.816 65.7704V65.2419C120.804 65.2419 119.8 65.2192 118.796 65.1663ZM34.6936 45.4828C34.6936 49.7789 31.2129 53.2596 26.9168 53.2596C22.6207 53.2596 19.1401 49.7789 19.1401 45.4828C19.1401 41.1867 22.6207 37.7061 26.9168 37.7061C31.2129 37.7061 34.6936 41.1867 34.6936 45.4828ZM47.7555 45.4828C47.7555 41.1867 51.2437 37.7061 55.5398 37.7061C59.8359 37.7061 63.3166 41.1867 63.3166 45.4828C63.3166 49.7789 59.8359 53.2596 55.5398 53.2596C51.2437 53.2596 47.7555 49.7789 47.7555 45.4828Z" fill="url(#paint0_linear_558_129)"/>
<path d="M63.989 10.3591H18.6497C10.4653 10.3591 3.81348 17.0184 3.81348 25.1954V65.7704C3.81348 73.9473 10.4653 80.6067 18.6497 80.6067H33.4029V96.8699C33.4029 96.9756 33.5162 96.9831 33.5162 96.9831L33.5615 96.9529L57.3297 80.6067H103.96C112.137 80.6067 118.796 73.9473 118.796 65.7704V65.1664C89.2219 63.6488 65.5066 39.9335 63.989 10.3591ZM55.5402 53.2596C51.2442 53.2596 47.7559 49.779 47.7559 45.4829C47.7559 41.1868 51.2442 37.7061 55.5402 37.7061C59.8363 37.7061 63.317 41.1868 63.317 45.4829C63.317 49.779 59.8363 53.2596 55.5402 53.2596ZM26.9172 53.2596C22.6212 53.2596 19.1405 49.779 19.1405 45.4829C19.1405 41.1868 22.6212 37.7061 26.9172 37.7061C31.2133 37.7061 34.694 41.1868 34.694 45.4829C34.694 49.779 31.2133 53.2596 26.9172 53.2596Z" fill="url(#paint1_linear_558_129)"/>
<path d="M26.9168 35.441C21.375 35.441 16.875 39.9485 16.875 45.4829C16.875 51.0247 21.375 55.5247 26.9168 55.5247C32.4512 55.5247 36.9587 51.0247 36.9587 45.4829C36.9587 39.9485 32.4512 35.441 26.9168 35.441ZM26.9168 53.2596C22.6207 53.2596 19.1401 49.779 19.1401 45.4829C19.1401 41.1868 22.6207 37.7061 26.9168 37.7061C31.2129 37.7061 34.6936 41.1868 34.6936 45.4829C34.6936 49.779 31.2129 53.2596 26.9168 53.2596Z" fill="url(#paint2_linear_558_129)"/>
<path d="M55.5406 35.441C49.9987 35.441 45.4912 39.9485 45.4912 45.4829C45.4912 51.0247 49.9987 55.5247 55.5406 55.5247C61.0749 55.5247 65.5824 51.0247 65.5824 45.4829C65.5824 39.9485 61.0749 35.441 55.5406 35.441ZM55.5406 53.2596C51.2445 53.2596 47.7563 49.779 47.7563 45.4829C47.7563 41.1868 51.2445 37.7061 55.5406 37.7061C59.8367 37.7061 63.3174 41.1868 63.3174 45.4829C63.3174 49.779 59.8367 53.2596 55.5406 53.2596Z" fill="url(#paint3_linear_558_129)"/>
<path d="M121.815 14.4921C125.764 14.4921 128.965 11.2909 128.965 7.34198C128.965 3.3931 125.764 0.191895 121.815 0.191895C117.866 0.191895 114.665 3.3931 114.665 7.34198C114.665 11.2909 117.866 14.4921 121.815 14.4921Z" fill="url(#paint4_radial_558_129)"/>
<path d="M107.297 41.7145C100.611 38.8876 94.9038 34.1499 90.881 28.1935C86.8582 22.2333 84.5161 15.087 84.5139 7.34119H73.1885C73.1877 14.0398 74.549 20.4499 77.0119 26.2712C80.707 35.0053 86.8658 42.4181 94.6236 47.6603C102.378 52.9032 111.764 55.9708 121.816 55.9686V44.6432C116.649 44.6432 111.757 43.5998 107.297 41.7145Z" fill="url(#paint5_linear_558_129)"/>
<path d="M106.051 30.7122C110.543 33.7512 115.997 35.5323 121.815 35.53V25.1983C121.815 24.8645 121.805 24.5331 121.787 24.2039C119.454 24.1994 117.259 23.729 115.253 22.8818C112.235 21.6059 109.648 19.4601 107.829 16.7661C106.016 14.0752 104.962 10.8717 104.954 7.37061C104.625 7.35249 104.293 7.34192 103.96 7.34192H93.6279C93.6272 11.2182 94.4169 14.9405 95.8454 18.3154C97.9882 23.3817 101.555 27.674 106.051 30.7122Z" fill="url(#paint6_linear_558_129)"/>
<defs>
<linearGradient id="paint0_linear_558_129" x1="61.3045" y1="7.33899" x2="61.3045" y2="100" gradientUnits="userSpaceOnUse">
<stop stop-color="#1D4DDA"/>
<stop offset="0.3032" stop-color="#3887FE"/>
<stop offset="1" stop-color="#5100BD"/>
</linearGradient>
<linearGradient id="paint1_linear_558_129" x1="24.9262" y1="4.44336" x2="78.656" y2="97.506" gradientUnits="userSpaceOnUse">
<stop stop-color="#1D4DDA"/>
<stop offset="0.3032" stop-color="#3887FE"/>
<stop offset="1" stop-color="#5100BD"/>
</linearGradient>
<linearGradient id="paint2_linear_558_129" x1="21.8961" y1="54.1793" x2="31.9363" y2="36.7891" gradientUnits="userSpaceOnUse">
<stop stop-color="#1D4DDA"/>
<stop offset="0.3032" stop-color="#3887FE"/>
<stop offset="1" stop-color="#5100BD"/>
</linearGradient>
<linearGradient id="paint3_linear_558_129" x1="50.5173" y1="54.1789" x2="60.558" y2="36.7879" gradientUnits="userSpaceOnUse">
<stop stop-color="#1D4DDA"/>
<stop offset="0.3032" stop-color="#3887FE"/>
<stop offset="1" stop-color="#5100BD"/>
</linearGradient>
<radialGradient id="paint4_radial_558_129" cx="0" cy="0" r="1" gradientUnits="userSpaceOnUse" gradientTransform="translate(118.971 4.18567) scale(10.5571)">
<stop stop-color="#B37CE0"/>
<stop offset="1" stop-color="#7B1DC8"/>
</radialGradient>
<linearGradient id="paint5_linear_558_129" x1="75.2678" y1="5.72543" x2="117.142" y2="59.6015" gradientUnits="userSpaceOnUse">
<stop stop-color="#7B1DC8"/>
<stop offset="0.3066" stop-color="#B37CE0"/>
<stop offset="1" stop-color="#62179E"/>
</linearGradient>
<linearGradient id="paint6_linear_558_129" x1="95.9771" y1="5.51536" x2="120.251" y2="36.7463" gradientUnits="userSpaceOnUse">
<stop stop-color="#7B1DC8"/>
<stop offset="0.3066" stop-color="#B37CE0"/>
<stop offset="1" stop-color="#7B1DC8"/>
</linearGradient>
</defs>
</svg>
