<svg width="117" height="117" viewBox="0 0 117 117" fill="none" xmlns="http://www.w3.org/2000/svg">
<path d="M106.459 85.3566C105.595 84.4925 105.324 83.146 105.879 81.9805C112.708 67.6362 112.79 51.1448 106.103 36.7343C105.414 35.2467 106.06 33.4818 107.547 32.7915C109.035 32.1012 110.8 32.7474 111.491 34.2356C118.923 50.2546 118.832 68.5878 111.241 84.5333C110.537 86.0135 108.764 86.6423 107.284 85.938C106.969 85.7876 106.693 85.5898 106.459 85.3566Z" fill="url(#paint0_linear_558_192)"/>
<path d="M33.3892 10.328C33.1493 10.0881 32.9474 9.8034 32.7957 9.47796C32.1061 7.9904 32.7523 6.22484 34.2399 5.53452C50.2589 -1.89793 68.592 -1.80705 84.5375 5.78445C86.0184 6.48813 86.6473 8.26037 85.9422 9.74192C85.2372 11.2221 83.4656 11.851 81.9854 11.1466C67.6411 4.31761 51.1497 4.23541 36.7392 10.9221C35.5771 11.4614 34.2459 11.1847 33.3892 10.328Z" fill="url(#paint1_linear_558_192)"/>
<path d="M6.13539 83.6334C5.89548 83.3935 5.69366 83.1088 5.54197 82.7833C-1.89048 66.7643 -1.7996 48.4311 5.79189 32.4857C6.49692 31.0055 8.26849 30.3759 9.7487 31.081C11.2282 31.7853 11.8577 33.5569 11.1534 35.0378C4.32439 49.3821 4.24219 65.8735 10.9289 80.284C11.6185 81.7716 10.9723 83.5371 9.48473 84.2275C8.32329 84.7661 6.99144 84.4894 6.13539 83.6334Z" fill="url(#paint2_linear_558_192)"/>
<path d="M31.6677 110.653C30.8037 109.789 30.5317 108.443 31.087 107.277C31.792 105.796 33.5636 105.167 35.0438 105.872C41.0448 108.729 47.4649 110.417 54.1262 110.889C55.7768 111.005 57.4534 111.046 59.1107 111.009C66.4971 110.842 73.6228 109.19 80.2894 106.096C81.777 105.406 83.5425 106.052 84.2329 107.54C84.9232 109.027 84.277 110.793 82.7894 111.483C75.3757 114.923 67.454 116.761 59.2444 116.946C57.4033 116.988 55.5402 116.943 53.7065 116.813C46.3028 116.288 39.165 114.411 32.4917 111.234C32.177 111.084 31.901 110.886 31.6677 110.653Z" fill="url(#paint3_linear_558_192)"/>
<path d="M106.946 14.2807L80.1517 41.0741L75.9496 36.872L79.0891 33.7405L84.204 28.6256C71.5899 17.7744 53.7037 16.2159 39.5713 23.9511C38.4145 24.5806 36.9824 24.3842 36.0542 23.4473C34.6535 22.0466 34.9843 19.6856 36.7231 18.7413C53.1063 9.77053 73.888 11.6671 88.4068 24.4149L99.3289 13.4928L102.752 10.0773C102.799 11.1318 103.224 12.1783 104.034 12.9969C104.837 13.8008 105.884 14.2339 106.946 14.2807Z" fill="url(#paint4_linear_558_192)"/>
<path d="M113.233 3.79151C109.873 0.431475 104.42 0.431475 101.06 3.79151C98.44 6.41178 97.8653 10.3071 99.3288 13.4941C99.7458 14.3909 100.321 15.2249 101.06 15.9646C101.8 16.7044 102.634 17.2791 103.531 17.6961C106.718 19.1596 110.613 18.5856 113.233 15.9646C116.593 12.6046 116.593 7.15155 113.233 3.79151ZM110.266 12.9982C109.353 13.9111 108.142 14.3361 106.946 14.2806C105.883 14.2332 104.837 13.8008 104.034 12.9982C103.223 12.1796 102.798 11.1331 102.752 10.0786C102.697 8.88236 103.121 7.6708 104.034 6.75795C105.75 5.03449 108.543 5.03449 110.266 6.75795C111.99 8.4814 111.99 11.2747 110.266 12.9982Z" fill="url(#paint5_linear_558_192)"/>
<path d="M80.3252 98.2896C74.1638 101.673 67.2626 103.586 60.0781 103.83L60.0627 103.846L58.8351 103.861C52.5006 103.908 46.3472 102.657 40.54 100.163C36.1809 98.2743 32.1833 95.7328 28.6261 92.6007L14.2812 106.946C14.2417 105.883 13.8167 104.837 12.9988 104.027C12.1882 103.208 11.1416 102.783 10.0791 102.744L13.502 99.3288L24.4161 88.4146L28.6261 84.2046L33.7411 79.0897L36.8806 75.9421L37.8876 76.9492L40.0361 79.0977L41.0826 80.1442L37.9271 83.2917L32.8282 88.3906C35.8575 90.9955 39.2255 93.1199 42.893 94.7017C47.7559 96.8027 52.9103 97.8806 58.2136 97.9201L58.8037 97.912C65.4215 97.8646 71.7874 96.1966 77.445 93.0885C78.6097 92.451 80.0499 92.6401 80.9861 93.5763C82.3868 94.977 82.056 97.33 80.3252 98.2896Z" fill="url(#paint6_linear_558_192)"/>
<path d="M17.703 103.523C17.286 102.633 16.7112 101.792 15.9715 101.052C15.2317 100.313 14.3897 99.7385 13.5009 99.3289C10.322 97.8573 6.41862 98.432 3.79835 101.052C0.43831 104.412 0.43831 109.865 3.79835 113.225C7.15839 116.585 12.6114 116.585 15.9715 113.225C18.5917 110.605 19.1665 106.702 17.703 103.523ZM12.997 110.258C11.2816 111.982 8.48825 111.982 6.76479 110.258C5.04133 108.535 5.04133 105.742 6.76479 104.026C7.67764 103.113 8.88921 102.688 10.0774 102.744C11.1399 102.783 12.1864 103.208 12.997 104.026C13.8157 104.837 14.2407 105.883 14.2794 106.945C14.3349 108.134 13.9099 109.345 12.997 110.258Z" fill="url(#paint7_linear_558_192)"/>
<path d="M30.6471 30.6487C23.2815 38.0143 19.1817 47.8184 19.1035 58.2374C19.0641 63.659 20.1741 69.1515 22.3219 74.1327C22.8177 75.2735 23.353 76.3834 23.9431 77.4614C24.5806 78.6181 24.3761 80.0502 23.4472 80.9791C22.0465 82.3878 19.6862 82.0416 18.734 80.3022C18.0497 79.0665 17.4275 77.7921 16.8608 76.4857C14.3588 70.6785 13.1152 64.5171 13.1707 58.1906C13.2495 47.1976 17.215 36.8027 24.4156 28.6111L10.0859 14.2815C11.1485 14.2341 12.195 13.8017 12.9976 12.9991C13.8162 12.1805 14.2412 11.134 14.28 10.0795L17.7028 13.495L32.827 28.6192C32.0792 29.2634 31.3548 29.9403 30.6471 30.6487Z" fill="url(#paint8_linear_558_192)"/>
<path d="M15.9715 3.79164C12.6114 0.431597 7.15839 0.431597 3.79835 3.79164C0.43831 7.15168 0.43831 12.6047 3.79835 15.9648C6.41862 18.585 10.322 19.1597 13.5009 17.6962C14.3904 17.2792 15.2317 16.6972 15.9715 15.9648C16.7112 15.225 17.2853 14.391 17.703 13.4942C19.1665 10.3072 18.5917 6.41191 15.9715 3.79164ZM12.997 12.9983C12.1944 13.8009 11.1479 14.234 10.0854 14.2807C8.8892 14.3355 7.67764 13.9112 6.76479 12.9983C5.04133 11.2749 5.04133 8.48153 6.76479 6.75807C8.48825 5.03461 11.2816 5.03461 12.997 6.75807C13.9099 7.67092 14.3349 8.88249 14.2794 10.0787C14.24 11.1332 13.8157 12.1797 12.997 12.9983Z" fill="url(#paint9_linear_558_192)"/>
<path d="M106.945 102.744C105.89 102.783 104.844 103.208 104.026 104.026C103.223 104.829 102.79 105.875 102.743 106.938L84.1963 88.3906C84.9514 87.7531 85.6758 87.0768 86.3762 86.3765C99.0371 73.7155 101.272 54.5229 93.0802 39.5558C92.8363 39.1074 92.718 38.6195 92.718 38.1317C92.718 37.3685 93.0094 36.6127 93.5834 36.0387C94.9761 34.646 97.3371 34.9688 98.2813 36.6996C107.26 53.0828 105.364 73.8806 92.6078 88.4067L103.522 99.3208L106.945 102.744Z" fill="url(#paint10_linear_558_192)"/>
<path d="M113.233 101.052C110.613 98.4313 106.71 97.8566 103.523 99.3208C102.633 99.7378 101.791 100.312 101.059 101.052C100.328 101.791 99.7457 102.633 99.328 103.522C97.8645 106.701 98.4385 110.604 101.059 113.225C104.42 116.585 109.873 116.585 113.233 113.225C116.593 109.865 116.593 104.412 113.233 101.052ZM110.266 110.258C108.543 111.982 105.749 111.982 104.026 110.258C103.113 109.345 102.688 108.134 102.744 106.938C102.791 105.875 103.223 104.829 104.026 104.026C104.845 103.207 105.891 102.782 106.945 102.744C108.141 102.689 109.353 103.113 110.266 104.026C111.99 105.741 111.99 108.535 110.266 110.258Z" fill="url(#paint11_linear_558_192)"/>
<path d="M83.2847 37.9425C82.0256 36.4162 80.6169 35.0075 79.0906 33.7404C73.5113 29.09 66.3428 26.2966 58.5214 26.2966C40.7609 26.2966 26.3057 40.7439 26.3057 58.5124C26.3057 66.1059 28.9259 73.3138 33.7421 79.0896C34.3242 79.79 34.9383 80.4669 35.5832 81.1278C36.331 81.891 37.1175 82.6154 37.9281 83.2917C40.525 85.4555 43.444 87.187 46.631 88.454C50.416 89.965 54.4136 90.7201 58.5207 90.7201C62.6206 90.7201 66.6181 89.965 70.4025 88.454C74.5812 86.8014 78.2954 84.3308 81.4583 81.1278L82.3083 80.2544V80.223C87.746 74.2741 90.7278 66.6178 90.7278 58.5124C90.7285 50.6983 87.9351 43.5299 83.2847 37.9425ZM68.2159 82.9375C65.1312 84.1651 61.8654 84.7866 58.5214 84.7866C55.1694 84.7866 51.9036 84.1651 48.8189 82.9375C46.8081 82.1362 44.8841 81.0764 43.1239 79.7966C45.8678 73.7729 51.8301 69.9023 58.4847 69.8896C58.4947 69.8896 58.504 69.8909 58.5134 69.8909H58.5214C58.5308 69.8909 58.5401 69.8896 58.5502 69.8896C65.2054 69.9023 71.171 73.7776 73.9189 79.8073C72.1641 81.081 70.2528 82.1275 68.2159 82.9375ZM53.0757 58.5124C53.0757 55.5065 55.5149 53.0673 58.5207 53.0673C61.5186 53.0673 63.9584 55.5065 63.9584 58.5124C63.9584 59.9525 63.3998 61.3057 62.3927 62.3288L62.3058 62.4157C61.7946 62.9116 61.1804 63.3125 60.5275 63.5725C59.8827 63.8244 59.1977 63.9501 58.5134 63.9501C57.8291 63.9501 57.1441 63.8244 56.5066 63.5725C55.8143 63.2972 55.1687 62.8641 54.6415 62.3288C53.6344 61.3057 53.0757 59.9445 53.0757 58.5124ZM78.4531 75.6033C78.4511 75.6053 78.4491 75.6079 78.4471 75.61C75.9237 71.1199 72.005 67.681 67.3713 65.7383L67.3819 65.7276L67.4762 65.6334V65.5312C69.0419 63.5324 69.9 61.0852 69.9 58.5117C69.9 52.232 64.7931 47.1251 58.5214 47.1251C52.2417 47.1251 47.1348 52.232 47.1348 58.5117C47.1348 61.1634 48.0397 63.6814 49.7003 65.7116C49.7023 65.7143 49.7043 65.7163 49.7063 65.7183C45.0498 67.6583 41.1138 71.1072 38.585 75.6146C38.5837 75.6133 38.5824 75.612 38.581 75.61C34.4812 70.8492 32.2465 64.8449 32.2465 58.5104C32.2465 44.0157 44.0341 32.2282 58.5207 32.2282C73.0074 32.2282 84.7876 44.0157 84.7876 58.5104C84.7876 64.8469 82.5609 70.8506 78.4531 75.6033Z" fill="url(#paint12_linear_558_192)"/>
<defs>
<linearGradient id="paint0_linear_558_192" x1="94.6946" y1="45.3867" x2="122.662" y2="73.3541" gradientUnits="userSpaceOnUse">
<stop stop-color="#4776E6"/>
<stop offset="0.1822" stop-color="#477CE6"/>
<stop offset="0.4228" stop-color="#478DE6"/>
<stop offset="0.6962" stop-color="#47A8E6"/>
<stop offset="0.9918" stop-color="#47CEE6"/>
<stop offset="1" stop-color="#47CFE6"/>
</linearGradient>
<linearGradient id="paint1_linear_558_192" x1="45.2734" y1="-5.75558" x2="73.4783" y2="22.4493" gradientUnits="userSpaceOnUse">
<stop stop-color="#4776E6"/>
<stop offset="0.1822" stop-color="#477CE6"/>
<stop offset="0.4228" stop-color="#478DE6"/>
<stop offset="0.6962" stop-color="#47A8E6"/>
<stop offset="0.9918" stop-color="#47CEE6"/>
<stop offset="1" stop-color="#47CFE6"/>
</linearGradient>
<linearGradient id="paint2_linear_558_192" x1="-5.62951" y1="43.6639" x2="22.3379" y2="71.6313" gradientUnits="userSpaceOnUse">
<stop stop-color="#4776E6"/>
<stop offset="0.1822" stop-color="#477CE6"/>
<stop offset="0.4228" stop-color="#478DE6"/>
<stop offset="0.6962" stop-color="#47A8E6"/>
<stop offset="0.9918" stop-color="#47CEE6"/>
<stop offset="1" stop-color="#47CFE6"/>
</linearGradient>
<linearGradient id="paint3_linear_558_192" x1="43.5516" y1="94.5685" x2="71.7563" y2="122.773" gradientUnits="userSpaceOnUse">
<stop stop-color="#4776E6"/>
<stop offset="0.1822" stop-color="#477CE6"/>
<stop offset="0.4228" stop-color="#478DE6"/>
<stop offset="0.6962" stop-color="#47A8E6"/>
<stop offset="0.9918" stop-color="#47CEE6"/>
<stop offset="1" stop-color="#47CFE6"/>
</linearGradient>
<linearGradient id="paint4_linear_558_192" x1="112.037" y1="-18.1032" x2="69.3646" y2="20.0778" gradientUnits="userSpaceOnUse">
<stop stop-color="#8E54E9"/>
<stop offset="0.5936" stop-color="#6567E7"/>
<stop offset="1" stop-color="#4776E6"/>
</linearGradient>
<linearGradient id="paint5_linear_558_192" x1="127.236" y1="-8.09647" x2="82.2028" y2="32.1962" gradientUnits="userSpaceOnUse">
<stop stop-color="#8E54E9"/>
<stop offset="0.5936" stop-color="#6567E7"/>
<stop offset="1" stop-color="#4776E6"/>
</linearGradient>
<linearGradient id="paint6_linear_558_192" x1="46.1767" y1="-6.78909" x2="45.9239" y2="122.214" gradientUnits="userSpaceOnUse">
<stop stop-color="#8E54E9"/>
<stop offset="0.5936" stop-color="#6567E7"/>
<stop offset="1" stop-color="#4776E6"/>
</linearGradient>
<linearGradient id="paint7_linear_558_192" x1="10.18" y1="-43.6836" x2="9.84489" y2="127.301" gradientUnits="userSpaceOnUse">
<stop stop-color="#8E54E9"/>
<stop offset="0.5936" stop-color="#6567E7"/>
<stop offset="1" stop-color="#4776E6"/>
</linearGradient>
<linearGradient id="paint8_linear_558_192" x1="23.3375" y1="-938.493" x2="19.3226" y2="1109.95" gradientUnits="userSpaceOnUse">
<stop stop-color="#8E54E9"/>
<stop offset="0.5936" stop-color="#6567E7"/>
<stop offset="1" stop-color="#4776E6"/>
</linearGradient>
<linearGradient id="paint9_linear_558_192" x1="10.0456" y1="-72.3305" x2="9.71036" y2="98.6739" gradientUnits="userSpaceOnUse">
<stop stop-color="#8E54E9"/>
<stop offset="0.5936" stop-color="#6567E7"/>
<stop offset="1" stop-color="#4776E6"/>
</linearGradient>
<linearGradient id="paint10_linear_558_192" x1="97.5427" y1="-910.758" x2="93.5279" y2="1137.59" gradientUnits="userSpaceOnUse">
<stop stop-color="#8E54E9"/>
<stop offset="0.5936" stop-color="#6567E7"/>
<stop offset="1" stop-color="#4776E6"/>
</linearGradient>
<linearGradient id="paint11_linear_558_192" x1="107.307" y1="25.2003" x2="106.972" y2="196.205" gradientUnits="userSpaceOnUse">
<stop stop-color="#8E54E9"/>
<stop offset="0.5936" stop-color="#6567E7"/>
<stop offset="1" stop-color="#4776E6"/>
</linearGradient>
<linearGradient id="paint12_linear_558_192" x1="129.182" y1="-39.6219" x2="36.7716" y2="88.7257" gradientUnits="userSpaceOnUse">
<stop stop-color="#4776E6"/>
<stop offset="0.1822" stop-color="#477CE6"/>
<stop offset="0.4228" stop-color="#478DE6"/>
<stop offset="0.6962" stop-color="#47A8E6"/>
<stop offset="0.9918" stop-color="#47CEE6"/>
<stop offset="1" stop-color="#47CFE6"/>
</linearGradient>
</defs>
</svg>
