<svg width="190" height="74" viewBox="0 0 190 74" fill="none" xmlns="http://www.w3.org/2000/svg">
<path d="M186.744 73.365H76.6513C75.8018 73.365 74.9871 73.0276 74.3864 72.4269C73.7857 71.8262 73.4482 71.0115 73.4482 70.162V3.69184C73.4482 2.84233 73.7857 2.02762 74.3864 1.42692C74.9871 0.826232 75.8018 0.48877 76.6513 0.48877H186.744C187.594 0.48877 188.408 0.826232 189.009 1.42692C189.61 2.02762 189.947 2.84233 189.947 3.69184V70.162C189.947 71.0115 189.61 71.8262 189.009 72.4269C188.408 73.0276 187.594 73.365 186.744 73.365ZM79.848 66.9589H183.541V6.89491H79.8544L79.848 66.9589Z" fill="#0081BE"/>
<path d="M131.703 51.1164C130.974 51.1181 130.266 50.8693 129.698 50.4117L74.637 6.19971C73.9748 5.6675 73.5511 4.89402 73.4592 4.04945C73.3673 3.20488 73.6147 2.35839 74.1469 1.6962C74.6791 1.03401 75.4526 0.610357 76.2972 0.518452C77.1417 0.426546 77.9883 0.673911 78.6504 1.20613L131.693 43.807L184.736 1.20613C185.063 0.931557 185.441 0.725006 185.848 0.598606C186.256 0.472207 186.685 0.428504 187.109 0.470065C187.534 0.511626 187.946 0.637611 188.321 0.840626C188.697 1.04364 189.028 1.31959 189.295 1.65228C189.562 1.98496 189.76 2.36767 189.877 2.77794C189.994 3.1882 190.028 3.61775 189.977 4.04137C189.926 4.46498 189.791 4.87412 189.58 5.24476C189.368 5.61541 189.085 5.94008 188.746 6.19971L133.698 50.4021C133.134 50.8597 132.43 51.1116 131.703 51.1164Z" fill="#0081BE"/>
<path d="M76.6548 73.3649C75.9981 73.3654 75.3571 73.1641 74.8187 72.7882C74.2803 72.4123 73.8704 71.8799 73.6446 71.2633C73.4187 70.6467 73.3879 69.9755 73.5562 69.3408C73.7246 68.7061 74.0839 68.1384 74.5856 67.7147L114.883 33.6212C115.532 33.0724 116.372 32.8038 117.219 32.8744C118.065 32.9449 118.849 33.349 119.398 33.9976C119.947 34.6462 120.216 35.4862 120.145 36.3329C120.074 37.1796 119.67 37.9635 119.022 38.5123L78.7208 72.6058C78.1443 73.0964 77.4118 73.3655 76.6548 73.3649Z" fill="#0081BE"/>
<path d="M186.744 73.365C185.987 73.3639 185.255 73.095 184.678 72.6058L144.383 38.5124C144.053 38.2439 143.779 37.9121 143.578 37.5364C143.377 37.1608 143.253 36.7488 143.213 36.3247C143.173 35.9006 143.219 35.4727 143.346 35.0663C143.474 34.6598 143.681 34.2829 143.956 33.9576C144.231 33.6323 144.568 33.3651 144.948 33.1717C145.328 32.9783 145.742 32.8625 146.167 32.8312C146.592 32.7999 147.019 32.8536 147.422 32.9893C147.826 33.1249 148.199 33.3398 148.519 33.6213L188.82 67.7148C189.322 68.1388 189.681 68.7071 189.849 69.3424C190.018 69.9778 189.986 70.6495 189.76 71.2664C189.533 71.8833 189.122 72.4156 188.583 72.791C188.043 73.1664 187.401 73.3668 186.744 73.365Z" fill="#0081BE"/>
<path d="M65.1838 7.21498H40.3632C39.5137 7.21498 38.699 6.87752 38.0983 6.27682C37.4976 5.67613 37.1602 4.86142 37.1602 4.01191C37.1602 3.1624 37.4976 2.34769 38.0983 1.74699C38.699 1.1463 39.5137 0.808838 40.3632 0.808838H65.1774C66.0269 0.808838 66.8416 1.1463 67.4423 1.74699C68.043 2.34769 68.3805 3.1624 68.3805 4.01191C68.3805 4.86142 68.043 5.67613 67.4423 6.27682C66.8416 6.87752 66.0269 7.21498 65.1774 7.21498H65.1838Z" fill="#F7BA8B"/>
<path d="M65.1839 20.4791H58.9091C58.0596 20.4791 57.2449 20.1417 56.6442 19.541C56.0435 18.9403 55.7061 18.1256 55.7061 17.2761C55.7061 16.4266 56.0435 15.6118 56.6442 15.0112C57.2449 14.4105 58.0596 14.073 58.9091 14.073H65.1839C66.0334 14.073 66.8482 14.4105 67.4489 15.0112C68.0496 15.6118 68.387 16.4266 68.387 17.2761C68.387 18.1256 68.0496 18.9403 67.4489 19.541C66.8482 20.1417 66.0334 20.4791 65.1839 20.4791Z" fill="#0081BE"/>
<path d="M33.8069 20.4791H3.52827C2.67876 20.4791 1.86404 20.1417 1.26335 19.541C0.662658 18.9403 0.325195 18.1256 0.325195 17.2761C0.325195 16.4266 0.662658 15.6118 1.26335 15.0112C1.86404 14.4105 2.67876 14.073 3.52827 14.073H33.8133C34.6628 14.073 35.4775 14.4105 36.0782 15.0112C36.6789 15.6118 37.0164 16.4266 37.0164 17.2761C37.0164 18.1256 36.6789 18.9403 36.0782 19.541C35.4775 20.1417 34.6628 20.4791 33.8133 20.4791H33.8069Z" fill="#0081BE"/>
<path d="M65.1838 33.7365H40.3632C39.5137 33.7365 38.699 33.399 38.0983 32.7983C37.4976 32.1976 37.1602 31.3829 37.1602 30.5334C37.1602 29.6839 37.4976 28.8692 38.0983 28.2685C38.699 27.6678 39.5137 27.3303 40.3632 27.3303H65.1774C66.0269 27.3303 66.8416 27.6678 67.4423 28.2685C68.043 28.8692 68.3805 29.6839 68.3805 30.5334C68.3805 31.3829 68.043 32.1976 67.4423 32.7983C66.8416 33.399 66.0269 33.7365 65.1774 33.7365H65.1838Z" fill="#0081BE"/>
<path d="M24.9663 33.7365H12.5576C11.7081 33.7365 10.8933 33.399 10.2926 32.7983C9.69196 32.1976 9.35449 31.3829 9.35449 30.5334C9.35449 29.6839 9.69196 28.8692 10.2926 28.2685C10.8933 27.6678 11.7081 27.3303 12.5576 27.3303H24.9663C25.8158 27.3303 26.6305 27.6678 27.2312 28.2685C27.8319 28.8692 28.1693 29.6839 28.1693 30.5334C28.1693 31.3829 27.8319 32.1976 27.2312 32.7983C26.6305 33.399 25.8158 33.7365 24.9663 33.7365Z" fill="#F7BA8B"/>
<path d="M65.1847 46.9909H34.0956C33.2461 46.9909 32.4314 46.6534 31.8307 46.0527C31.23 45.452 30.8926 44.6373 30.8926 43.7878C30.8926 42.9383 31.23 42.1236 31.8307 41.5229C32.4314 40.9222 33.2461 40.5847 34.0956 40.5847H65.1847C66.0342 40.5847 66.8489 40.9222 67.4496 41.5229C68.0503 42.1236 68.3877 42.9383 68.3877 43.7878C68.3877 44.6373 68.0503 45.452 67.4496 46.0527C66.8489 46.6534 66.0342 46.9909 65.1847 46.9909Z" fill="#F7BA8B"/>
<path d="M65.1848 60.2453H57.4814C56.6319 60.2453 55.8172 59.9078 55.2165 59.3071C54.6158 58.7064 54.2783 57.8917 54.2783 57.0422C54.2783 56.1927 54.6158 55.378 55.2165 54.7773C55.8172 54.1766 56.6319 53.8391 57.4814 53.8391H65.1848C66.0343 53.8391 66.849 54.1766 67.4497 54.7773C68.0504 55.378 68.3878 56.1927 68.3878 57.0422C68.3878 57.8917 68.0504 58.7064 67.4497 59.3071C66.849 59.9078 66.0343 60.2453 65.1848 60.2453Z" fill="#0081BE"/>
<path d="M48.0708 60.2453H21.5429C20.6934 60.2453 19.8787 59.9078 19.278 59.3071C18.6773 58.7064 18.3398 57.8917 18.3398 57.0422C18.3398 56.1927 18.6773 55.378 19.278 54.7773C19.8787 54.1766 20.6934 53.8391 21.5429 53.8391H48.0708C48.9203 53.8391 49.735 54.1766 50.3357 54.7773C50.9364 55.378 51.2738 56.1927 51.2738 57.0422C51.2738 57.8917 50.9364 58.7064 50.3357 59.3071C49.735 59.9078 48.9203 60.2453 48.0708 60.2453Z" fill="#0081BE"/>
<path d="M65.1833 73.4994H48.0693C47.2198 73.4994 46.4051 73.1619 45.8044 72.5612C45.2037 71.9606 44.8662 71.1458 44.8662 70.2963C44.8662 69.4468 45.2037 68.6321 45.8044 68.0314C46.4051 67.4307 47.2198 67.0933 48.0693 67.0933H65.1833C66.0328 67.0933 66.8475 67.4307 67.4482 68.0314C68.0489 68.6321 68.3864 69.4468 68.3864 70.2963C68.3864 71.1458 68.0489 71.9606 67.4482 72.5612C66.8475 73.1619 66.0328 73.4994 65.1833 73.4994Z" fill="#F7BA8B"/>
</svg>
