<svg width="77" height="109" viewBox="0 0 77 109" fill="none" xmlns="http://www.w3.org/2000/svg">
<path fill-rule="evenodd" clip-rule="evenodd" d="M68.5769 0.0129474C74.8711 -0.362651 79.1185 7.50836 75.8944 13.9046C74.497 16.6663 71.7295 18.6493 68.5769 18.4615H27.1312C37.5132 20.229 50.0355 22.3997 70.244 25.8519C72.4723 26.2386 71.8946 29.6079 69.6938 29.2379L6.71916 18.4394C5.51055 18.1394 4.38173 17.5781 3.4115 16.7949C2.44126 16.0117 1.65299 15.0253 1.10172 13.9046C-2.10038 7.54702 2.09206 -0.362651 8.41924 0.0129474H68.5769ZM68.6154 15.0369C75.2177 15.0369 75.1682 3.43752 68.687 3.43752H8.36422C1.52536 3.43752 2.22411 15.4567 8.24868 15.0369H68.6154ZM68.5769 108.986H8.41924C5.26115 109.185 2.4937 107.197 1.10172 104.424C-2.11138 98.0443 2.11957 90.1511 8.41924 90.5433H53.1166C37.9534 87.417 11.3022 81.9487 6.66963 80.9987C4.46888 80.5458 5.13461 77.1819 7.35187 77.6349C74.1613 91.3387 70.4696 90.5709 70.8327 90.7808C79.8558 93.3051 78.7004 108.986 68.5769 108.986ZM68.6154 105.556C75.2177 105.556 75.1352 93.9568 68.6925 93.9568C59.7244 93.9568 95.7067 93.9568 8.39173 93.9568C1.52537 93.9568 2.26812 105.965 8.27618 105.556H68.6154ZM70.3265 81.3411C72.5273 81.772 71.8616 85.1524 69.6608 84.6994L6.66963 72.0727C4.46888 71.6198 5.14561 68.2615 7.34086 68.7144C7.35737 68.7089 53.5403 77.9718 70.299 81.3411H70.3265ZM70.3265 72.0837C72.5273 72.5146 71.9001 75.8839 69.6718 75.4531L6.67514 63.1301C4.47438 62.6938 5.1236 59.3299 7.33536 59.7608C7.34637 59.7608 52.5719 68.626 70.288 72.0727L70.3265 72.0837ZM70.3265 62.8484C72.5273 63.2572 71.9276 66.6265 69.6883 66.2122C38.8777 60.3242 14.95 55.7618 6.73566 54.1986C4.5349 53.7678 5.16761 50.3984 7.37387 50.8293C7.34086 50.8293 20.5289 53.3425 70.277 62.8484H70.3265ZM70.3265 53.5965C72.5273 54.0053 71.9386 57.3801 69.7048 56.9659C56.7203 54.5466 55.0038 54.2428 6.74666 45.2505C4.5459 44.8418 5.14561 41.4724 7.37387 41.8867L70.3265 53.5965ZM70.3265 44.3502C72.5603 44.7644 71.9441 48.1393 69.7213 47.7306C-0.152717 35.0596 19.478 38.6278 6.76867 36.3245C4.56791 35.9103 5.14561 32.552 7.37387 32.9441L70.3265 44.3502ZM70.3265 35.1038C72.5273 35.496 71.9771 38.8709 69.7378 38.4842C-0.0261763 26.1778 20.2208 29.7571 6.77967 27.3819C4.57891 26.9953 5.1291 23.6149 7.37387 24.0071L70.3265 35.1038Z" fill="#6D77B0"/>
</svg>
