<svg width="87" height="107" viewBox="0 0 87 107" fill="none" xmlns="http://www.w3.org/2000/svg">
<g clip-path="url(#clip0_558_145)">
<path d="M29.3643 82.6063L0.0371094 84.1759L41.7079 107L29.3643 82.6063Z" fill="url(#paint0_linear_558_145)"/>
<path d="M0 84.1684V17.0081C0 8.28793 9.28744 0 17.8462 0H70.0908C78.6421 0 87 8.28793 87 17.0081V70.2844C87 79.0045 78.6421 84.1684 70.0908 84.1684H0Z" fill="url(#paint1_linear_558_145)"/>
<path d="M44.429 9.85754C38.3478 9.86004 32.3856 11.5764 27.2008 14.817C22.0161 18.0577 17.8105 22.6966 15.0485 28.2213C12.2865 33.7461 11.0756 39.9418 11.5496 46.1242C12.0235 52.3066 14.1638 58.2352 17.7341 63.2552L13.6147 75.7515L26.3003 71.6341C31.2736 74.9824 37.0438 76.8936 42.9973 77.1643C48.9508 77.4351 54.8649 76.0553 60.1107 73.1717C65.3566 70.2882 69.7379 66.0087 72.7888 60.7883C75.8396 55.568 77.446 49.602 77.437 43.5249C77.4271 34.6002 73.9466 26.0437 67.7587 19.7322C61.5709 13.4208 53.1809 9.86959 44.429 9.85754ZM63.6211 57.4316C62.8254 59.7065 59.6726 61.6249 57.1518 62.1784C55.4267 62.55 53.1736 62.8457 45.5964 59.6458C35.9298 55.5511 29.6613 45.5116 29.178 44.867C28.6947 44.2225 25.2593 39.5591 25.2593 34.7289C25.216 33.1991 25.4942 31.6775 26.0752 30.2663C26.6562 28.8551 27.5265 27.587 28.6277 26.5471C29.5569 25.7136 30.7675 25.2812 32.0036 25.3415C32.4126 25.3415 32.7472 25.3415 33.1041 25.3794C34.0782 25.3794 34.5913 25.478 35.2011 27.04C35.9967 28.9888 37.9375 33.8114 38.1754 34.3119C38.3371 34.5827 38.4341 34.8885 38.4586 35.2046C38.4832 35.5207 38.4345 35.8383 38.3167 36.1317C38.0379 36.6901 37.6768 37.2016 37.2459 37.6483C36.7626 38.217 36.2941 38.6568 35.8108 39.271C35.3275 39.8852 34.859 40.3705 35.4241 41.3638C36.8728 43.8748 38.674 46.1561 40.7705 48.1352C43.0276 50.2399 45.6538 51.8915 48.5113 53.0033C48.8916 53.1842 49.316 53.2454 49.7306 53.1792C50.1451 53.1131 50.5309 52.9225 50.8388 52.6318C51.7514 51.5221 52.6077 50.3655 53.4041 49.1665C53.6354 48.7631 54.0057 48.4619 54.4429 48.3218C54.88 48.1816 55.3527 48.2124 55.7688 48.4082C56.6611 48.7191 61.3754 51.1001 62.3495 51.5929C63.3236 52.0858 63.9482 52.3512 64.1862 52.7379C64.4241 53.1246 64.4167 55.1417 63.6211 57.4316Z" fill="white"/>
</g>
<defs>
<linearGradient id="paint0_linear_558_145" x1="8.08892" y1="74.3382" x2="43.0236" y2="104.849" gradientUnits="userSpaceOnUse">
<stop stop-color="#2EA349"/>
<stop offset="1" stop-color="#9CCF81"/>
</linearGradient>
<linearGradient id="paint1_linear_558_145" x1="11.0323" y1="4.65656" x2="72.033" y2="90.7126" gradientUnits="userSpaceOnUse">
<stop stop-color="#2EA349"/>
<stop offset="1" stop-color="#9CCF81"/>
</linearGradient>
<clipPath id="clip0_558_145">
<rect width="87" height="107" fill="white"/>
</clipPath>
</defs>
</svg>
