<svg width="72" height="72" viewBox="0 0 72 72" fill="none" xmlns="http://www.w3.org/2000/svg">
<rect width="72" height="72" rx="6" fill="#EDD8FF" fill-opacity="0.5"/>
<path d="M29.3333 41.3333C29.8638 41.3333 30.3725 41.1226 30.7475 40.7475C31.1226 40.3724 31.3333 39.8637 31.3333 39.3333C31.3398 39.2668 31.3398 39.1998 31.3333 39.1333L35.0533 35.4133H35.36H35.6667L37.8133 37.56C37.8133 37.56 37.8133 37.6266 37.8133 37.6666C37.8133 38.1971 38.024 38.7058 38.3991 39.0808C38.7742 39.4559 39.2829 39.6666 39.8133 39.6666C40.3438 39.6666 40.8525 39.4559 41.2275 39.0808C41.6026 38.7058 41.8133 38.1971 41.8133 37.6666V37.56L46.6667 32.6666C47.0622 32.6666 47.4489 32.5493 47.7778 32.3296C48.1067 32.1098 48.363 31.7974 48.5144 31.432C48.6658 31.0665 48.7054 30.6644 48.6282 30.2764C48.5511 29.8885 48.3606 29.5321 48.0809 29.2524C47.8012 28.9727 47.4448 28.7822 47.0568 28.7051C46.6689 28.6279 46.2668 28.6675 45.9013 28.8189C45.5358 28.9702 45.2235 29.2266 45.0037 29.5555C44.784 29.8844 44.6667 30.2711 44.6667 30.6666C44.6602 30.7331 44.6602 30.8001 44.6667 30.8666L39.8533 35.68H39.64L37.3333 33.3333C37.3333 32.8029 37.1226 32.2942 36.7475 31.9191C36.3725 31.544 35.8638 31.3333 35.3333 31.3333C34.8029 31.3333 34.2942 31.544 33.9191 31.9191C33.544 32.2942 33.3333 32.8029 33.3333 33.3333L29.3333 37.3333C28.8029 37.3333 28.2942 37.544 27.9191 37.9191C27.544 38.2942 27.3333 38.8029 27.3333 39.3333C27.3333 39.8637 27.544 40.3724 27.9191 40.7475C28.2942 41.1226 28.8029 41.3333 29.3333 41.3333ZM47.3333 46.6666H24.6667V24C24.6667 23.6463 24.5262 23.3072 24.2761 23.0572C24.0261 22.8071 23.687 22.6666 23.3333 22.6666C22.9797 22.6666 22.6406 22.8071 22.3905 23.0572C22.1405 23.3072 22 23.6463 22 24V48C22 48.3536 22.1405 48.6927 22.3905 48.9428C22.6406 49.1928 22.9797 49.3333 23.3333 49.3333H47.3333C47.687 49.3333 48.0261 49.1928 48.2761 48.9428C48.5262 48.6927 48.6667 48.3536 48.6667 48C48.6667 47.6463 48.5262 47.3072 48.2761 47.0571C48.0261 46.8071 47.687 46.6666 47.3333 46.6666Z" fill="#473391"/>
</svg>
