<svg width="72" height="72" viewBox="0 0 72 72" fill="none" xmlns="http://www.w3.org/2000/svg">
<rect width="72" height="72" rx="6" fill="#EDD8FF" fill-opacity="0.5"/>
<path d="M48 38.6667H46.6667V29.3334C46.6667 28.2725 46.2453 27.2551 45.4951 26.5049C44.745 25.7548 43.7276 25.3334 42.6667 25.3334H29.3334C28.2725 25.3334 27.2551 25.7548 26.5049 26.5049C25.7548 27.2551 25.3334 28.2725 25.3334 29.3334V38.6667H24C23.6464 38.6667 23.3073 38.8072 23.0572 39.0572C22.8072 39.3073 22.6667 39.6464 22.6667 40V42.6667C22.6667 43.7276 23.0881 44.745 23.8383 45.4951C24.5884 46.2453 25.6058 46.6667 26.6667 46.6667H45.3334C46.3942 46.6667 47.4116 46.2453 48.1618 45.4951C48.9119 44.745 49.3334 43.7276 49.3334 42.6667V40C49.3334 39.6464 49.1929 39.3073 48.9428 39.0572C48.6928 38.8072 48.3536 38.6667 48 38.6667ZM28 29.3334C28 28.9798 28.1405 28.6406 28.3905 28.3906C28.6406 28.1405 28.9797 28 29.3334 28H42.6667C43.0203 28 43.3594 28.1405 43.6095 28.3906C43.8595 28.6406 44 28.9798 44 29.3334V38.6667H28V29.3334ZM46.6667 42.6667C46.6667 43.0203 46.5262 43.3595 46.2762 43.6095C46.0261 43.8596 45.687 44 45.3334 44H26.6667C26.3131 44 25.9739 43.8596 25.7239 43.6095C25.4738 43.3595 25.3334 43.0203 25.3334 42.6667V41.3334H46.6667V42.6667Z" fill="#473391"/>
</svg>
