<svg width="68" height="66" viewBox="0 0 68 66" fill="none" xmlns="http://www.w3.org/2000/svg">
<rect width="68" height="66" rx="6" fill="#EDD8FF" fill-opacity="0.5"/>
<mask id="path-2-inside-1_454_1738" fill="white">
<path d="M28.4708 35.0918C28.4012 35.0913 28.3324 35.0769 28.2685 35.0494C28.2124 35.0227 28.1621 34.9852 28.1206 34.939C28.0791 34.8928 28.0471 34.8388 28.0265 34.7802C28.006 34.7216 27.9972 34.6594 28.0008 34.5974C28.0043 34.5354 28.0202 34.4747 28.0473 34.4188C28.4541 33.5618 29.0608 32.815 29.8163 32.2412C30.5718 31.6674 31.454 31.2834 32.3888 31.1215C33.3235 30.9597 34.2835 31.0247 35.1879 31.311C36.0924 31.5973 36.9148 32.0967 37.5861 32.767C38.0616 33.2501 38.4543 33.8082 38.7485 34.4188C38.7987 34.5306 38.8034 34.6575 38.7614 34.7727C38.7195 34.8878 38.6344 34.9821 38.524 35.0354C38.4137 35.0887 38.2869 35.0969 38.1707 35.0582C38.0544 35.0195 37.9578 34.937 37.9014 34.8282C37.6545 34.3073 37.3239 33.8303 36.9226 33.4165C36.3554 32.8544 35.6618 32.4366 34.8998 32.198C34.1378 31.9594 33.3296 31.9071 32.5432 32.0454C31.7568 32.1837 31.0151 32.5085 30.3801 32.9928C29.7452 33.477 29.2357 34.1064 28.8944 34.8282C28.8555 34.9074 28.7953 34.9741 28.7204 35.0207C28.6455 35.0673 28.559 35.0919 28.4708 35.0918Z"/>
</mask>
<path d="M28.4708 35.0918C28.4012 35.0913 28.3324 35.0769 28.2685 35.0494C28.2124 35.0227 28.1621 34.9852 28.1206 34.939C28.0791 34.8928 28.0471 34.8388 28.0265 34.7802C28.006 34.7216 27.9972 34.6594 28.0008 34.5974C28.0043 34.5354 28.0202 34.4747 28.0473 34.4188C28.4541 33.5618 29.0608 32.815 29.8163 32.2412C30.5718 31.6674 31.454 31.2834 32.3888 31.1215C33.3235 30.9597 34.2835 31.0247 35.1879 31.311C36.0924 31.5973 36.9148 32.0967 37.5861 32.767C38.0616 33.2501 38.4543 33.8082 38.7485 34.4188C38.7987 34.5306 38.8034 34.6575 38.7614 34.7727C38.7195 34.8878 38.6344 34.9821 38.524 35.0354C38.4137 35.0887 38.2869 35.0969 38.1707 35.0582C38.0544 35.0195 37.9578 34.937 37.9014 34.8282C37.6545 34.3073 37.3239 33.8303 36.9226 33.4165C36.3554 32.8544 35.6618 32.4366 34.8998 32.198C34.1378 31.9594 33.3296 31.9071 32.5432 32.0454C31.7568 32.1837 31.0151 32.5085 30.3801 32.9928C29.7452 33.477 29.2357 34.1064 28.8944 34.8282C28.8555 34.9074 28.7953 34.9741 28.7204 35.0207C28.6455 35.0673 28.559 35.0919 28.4708 35.0918Z" fill="#473391"/>
<path d="M28.4708 35.0918L28.4637 36.0917L28.4688 36.0918L28.4708 35.0918ZM28.2685 35.0494L27.839 35.9525L27.8563 35.9607L27.874 35.9683L28.2685 35.0494ZM28.0473 34.4188L28.9468 34.8558L28.9507 34.8476L28.0473 34.4188ZM37.5861 32.767L38.2988 32.0655L38.2927 32.0594L37.5861 32.767ZM38.7485 34.4188L39.6606 34.0089L39.6552 33.9968L39.6494 33.9848L38.7485 34.4188ZM38.1707 35.0582L38.4864 34.1094L38.1707 35.0582ZM37.9014 34.8282L36.9977 35.2565L37.0054 35.2725L37.0135 35.2883L37.9014 34.8282ZM36.9226 33.4165L37.6405 32.7204L37.6336 32.7132L37.6265 32.7062L36.9226 33.4165ZM28.8944 34.8282L29.7924 35.2683L29.7984 35.2558L28.8944 34.8282ZM28.4708 35.0918L28.4779 34.0918C28.5416 34.0922 28.6045 34.1054 28.663 34.1305L28.2685 35.0494L27.874 35.9683C28.0604 36.0483 28.2609 36.0903 28.4637 36.0917L28.4708 35.0918ZM28.2685 35.0494L28.698 34.1463C28.7611 34.1763 28.8176 34.2186 28.8643 34.2706L28.1206 34.939L27.3768 35.6074C27.5066 35.7518 27.6637 35.8691 27.839 35.9525L28.2685 35.0494ZM28.1206 34.939L28.8643 34.2706C28.9111 34.3225 28.947 34.3833 28.9702 34.4492L28.0265 34.7802L27.0829 35.1112C27.1471 35.2944 27.247 35.463 27.3768 35.6074L28.1206 34.939ZM28.0265 34.7802L28.9702 34.4492C28.9933 34.5152 29.0031 34.585 28.9991 34.6548L28.0008 34.5974L27.0024 34.54C26.9913 34.7338 27.0186 34.928 27.0829 35.1112L28.0265 34.7802ZM28.0008 34.5974L28.9991 34.6548C28.9951 34.7246 28.9773 34.7929 28.9468 34.8557L28.0473 34.4188L27.1478 33.9819C27.063 34.1565 27.0136 34.3462 27.0024 34.54L28.0008 34.5974ZM28.0473 34.4188L28.9507 34.8476C29.2888 34.1352 29.7931 33.5145 30.4211 33.0375L29.8163 32.2412L29.2114 31.4448C28.3284 32.1154 27.6194 32.9883 27.1439 33.99L28.0473 34.4188ZM29.8163 32.2412L30.4211 33.0375C31.0491 32.5606 31.7824 32.2414 32.5594 32.1069L32.3888 31.1215L32.2181 30.1362C31.1256 30.3254 30.0944 30.7742 29.2114 31.4448L29.8163 32.2412ZM32.3888 31.1215L32.5594 32.1069C33.3364 31.9723 34.1343 32.0263 34.8861 32.2644L35.1879 31.311L35.4898 30.3576C34.4327 30.023 33.3107 29.947 32.2181 30.1362L32.3888 31.1215ZM35.1879 31.311L34.8861 32.2644C35.6379 32.5024 36.3215 32.9174 36.8795 33.4746L37.5861 32.767L38.2927 32.0594C37.5081 31.276 36.5469 30.6923 35.4898 30.3576L35.1879 31.311ZM37.5861 32.767L36.8735 33.4686C37.2719 33.8734 37.601 34.341 37.8475 34.8528L38.7485 34.4188L39.6494 33.9848C39.3076 33.2753 38.8513 32.6268 38.2988 32.0655L37.5861 32.767ZM38.7485 34.4188L37.8364 34.8287C37.7798 34.703 37.7746 34.5602 37.8218 34.4306L38.7614 34.7727L39.7011 35.1147C39.8321 34.7549 39.8176 34.3582 39.6606 34.0089L38.7485 34.4188ZM38.7614 34.7727L37.8218 34.4306C37.8689 34.3011 37.9647 34.1951 38.0889 34.1351L38.524 35.0354L38.9592 35.9358C39.304 35.7691 39.5701 35.4746 39.7011 35.1147L38.7614 34.7727ZM38.524 35.0354L38.0889 34.1351C38.213 34.0751 38.3556 34.0659 38.4864 34.1094L38.1707 35.0582L37.8549 36.0071C38.2182 36.128 38.6144 36.1024 38.9592 35.9358L38.524 35.0354ZM38.1707 35.0582L38.4864 34.1094C38.6172 34.1529 38.7259 34.2458 38.7893 34.3682L37.9014 34.8282L37.0135 35.2883C37.1897 35.6283 37.4916 35.8862 37.8549 36.0071L38.1707 35.0582ZM37.9014 34.8282L38.8051 34.4C38.5114 33.7802 38.118 33.2128 37.6405 32.7204L36.9226 33.4165L36.2046 34.1126C36.5298 34.4479 36.7977 34.8343 36.9977 35.2565L37.9014 34.8282ZM36.9226 33.4165L37.6265 32.7062C36.9458 32.0315 36.1132 31.53 35.1985 31.2437L34.8998 32.198L34.601 33.1523C35.2104 33.3431 35.7651 33.6773 36.2187 34.1267L36.9226 33.4165ZM34.8998 32.198L35.1985 31.2437C34.2839 30.9573 33.314 30.8945 32.37 31.0605L32.5432 32.0454L32.7164 33.0303C33.3453 32.9197 33.9916 32.9615 34.601 33.1523L34.8998 32.198ZM32.5432 32.0454L32.37 31.0605C31.4261 31.2265 30.5358 31.6164 29.7737 32.1976L30.3801 32.9928L30.9866 33.7879C31.4943 33.4007 32.0875 33.1409 32.7164 33.0303L32.5432 32.0454ZM30.3801 32.9928L29.7737 32.1976C29.0117 32.7788 28.4001 33.5343 27.9904 34.4007L28.8944 34.8282L29.7984 35.2558C30.0714 34.6785 30.4788 34.1751 30.9866 33.7879L30.3801 32.9928ZM28.8944 34.8282L27.9964 34.3882C28.04 34.2991 28.1078 34.2241 28.1921 34.1717L28.7204 35.0207L29.2487 35.8698C29.4827 35.7242 29.6711 35.5157 29.7924 35.2682L28.8944 34.8282ZM28.7204 35.0207L28.1921 34.1717C28.2763 34.1192 28.3736 34.0916 28.4728 34.0918L28.4708 35.0918L28.4688 36.0918C28.7444 36.0923 29.0147 36.0154 29.2487 35.8698L28.7204 35.0207Z" fill="#473391" mask="url(#path-2-inside-1_454_1738)"/>
<path d="M45.4494 36.9788H21.4118C21.2869 36.9788 21.1672 36.9292 21.079 36.841C20.9907 36.7527 20.9412 36.633 20.9412 36.5082V24.0141C20.9424 23.4054 21.1848 22.822 21.6152 22.3916C22.0456 21.9612 22.629 21.7189 23.2376 21.7177H43.6235C44.2322 21.7189 44.8156 21.9612 45.246 22.3916C45.6764 22.822 45.9187 23.4054 45.92 24.0141V36.5082C45.92 36.633 45.8704 36.7527 45.7822 36.841C45.6939 36.9292 45.5742 36.9788 45.4494 36.9788ZM21.8823 36.0377H44.9788V24.0141C44.9776 23.6551 44.8344 23.3111 44.5805 23.0572C44.3266 22.8033 43.9826 22.6601 43.6235 22.6588H23.2376C22.8786 22.6601 22.5346 22.8033 22.2807 23.0572C22.0268 23.3111 21.8836 23.6551 21.8823 24.0141V36.0377Z" fill="#473391" stroke="#473391" stroke-width="1.6"/>
<path d="M43.6235 41.2283H23.2376C22.6306 41.227 22.0486 40.986 21.6185 40.5576C21.1883 40.1292 20.9449 39.5482 20.9412 38.9412V36.5035C20.9412 36.3787 20.9907 36.259 21.079 36.1708C21.1672 36.0825 21.2869 36.033 21.4118 36.033H45.4494C45.5742 36.033 45.6939 36.0825 45.7822 36.1708C45.8704 36.259 45.92 36.3787 45.92 36.5035V38.9412C45.9163 39.5482 45.6728 40.1292 45.2427 40.5576C44.8125 40.986 44.2306 41.227 43.6235 41.2283ZM21.8823 36.9741V38.9412C21.8823 39.3006 22.0251 39.6454 22.2793 39.8995C22.5335 40.1537 22.8782 40.2965 23.2376 40.2965H43.6235C43.983 40.2965 44.3277 40.1537 44.5819 39.8995C44.836 39.6454 44.9788 39.3006 44.9788 38.9412V36.9741H21.8823Z" fill="#473391" stroke="#473391" stroke-width="1.6"/>
<path d="M36.9651 43.9812H29.8827C29.7579 43.9812 29.6382 43.9316 29.5499 43.8434C29.4617 43.7551 29.4121 43.6354 29.4121 43.5106V40.7577C29.4121 40.6329 29.4617 40.5132 29.5499 40.4249C29.6382 40.3367 29.7579 40.2871 29.8827 40.2871H36.9415C37.0663 40.2871 37.186 40.3367 37.2743 40.4249C37.3625 40.5132 37.4121 40.6329 37.4121 40.7577V43.5106C37.4123 43.6315 37.3659 43.7477 37.2827 43.8353C37.1995 43.923 37.0857 43.9752 36.9651 43.9812ZM30.3768 43.04H36.4945V41.2283H30.3533L30.3768 43.04Z" fill="#473391"/>
<rect x="26" y="43" width="15" height="2" fill="#473391"/>
<circle cx="33.5" cy="27.5" r="2" stroke="#473391"/>
</svg>
