<svg width="72" height="74" viewBox="0 0 72 74" fill="none" xmlns="http://www.w3.org/2000/svg">
<rect y="0.625244" width="72" height="73" rx="6" fill="#473391"/>
<g clip-path="url(#clip0_454_1669)">
<path d="M49.5585 26.1264H42.9043C42.7155 26.1264 42.5344 26.2016 42.4008 26.3356C42.2673 26.4695 42.1923 26.6512 42.1923 26.8406C42.1923 27.03 42.2673 27.2117 42.4008 27.3456C42.5344 27.4795 42.7155 27.5548 42.9043 27.5548H49.5585C49.805 27.56 50.0403 27.6596 50.2159 27.8332C50.3916 28.0068 50.4943 28.2413 50.5032 28.4885V41.3059H28.3178C28.2243 41.3059 28.1317 41.3244 28.0453 41.3603C27.9589 41.3962 27.8805 41.4488 27.8143 41.5151C27.7482 41.5815 27.6958 41.6602 27.66 41.7468C27.6242 41.8335 27.6058 41.9264 27.6058 42.0202C27.6058 42.114 27.6242 42.2068 27.66 42.2935C27.6958 42.3801 27.7482 42.4589 27.8143 42.5252C27.8805 42.5915 27.9589 42.6441 28.0453 42.68C28.1317 42.7159 28.2243 42.7344 28.3178 42.7344H50.5032V44.8247C50.4943 45.072 50.3916 45.3064 50.2159 45.48C50.0403 45.6536 49.805 45.7533 49.5585 45.7584H22.3304C22.0838 45.7533 21.8486 45.6536 21.673 45.48C21.4973 45.3064 21.3945 45.072 21.3857 44.8247V42.6229H25.3796C25.559 42.6157 25.7286 42.5391 25.8529 42.4092C25.9772 42.2793 26.0466 42.1062 26.0465 41.9261C26.0444 41.745 25.9748 41.5712 25.8514 41.439C25.7279 41.3068 25.5597 41.2258 25.3796 41.2119H21.3857V28.4362C21.3936 28.1881 21.4959 27.9523 21.6716 27.7774C21.8472 27.6025 22.0829 27.5017 22.3304 27.4956H28.9846C29.0781 27.4956 29.1707 27.4771 29.257 27.4412C29.3434 27.4053 29.4219 27.3527 29.488 27.2864C29.5541 27.2201 29.6066 27.1413 29.6424 27.0547C29.6781 26.968 29.6966 26.8751 29.6966 26.7813C29.6966 26.6876 29.6781 26.5947 29.6424 26.508C29.6066 26.4214 29.5541 26.3426 29.488 26.2763C29.4219 26.21 29.3434 26.1574 29.257 26.1215C29.1707 26.0856 29.0781 26.0671 28.9846 26.0671H22.3304C21.7171 26.0671 21.1285 26.3096 20.6923 26.742C20.2561 27.1744 20.0073 27.7618 20 28.377V44.6575C20.0082 45.2721 20.2574 45.8587 20.6935 46.2903C21.1296 46.722 21.7177 46.9639 22.3304 46.9639H31.0371L29.4847 52.1898H26.6542C26.5563 52.183 26.458 52.1964 26.3655 52.2293C26.273 52.2621 26.1882 52.3138 26.1164 52.3809C26.0447 52.4481 25.9874 52.5293 25.9483 52.6196C25.9092 52.7099 25.889 52.8073 25.889 52.9058C25.889 53.0042 25.9092 53.1016 25.9483 53.1919C25.9874 53.2822 26.0447 53.3635 26.1164 53.4306C26.1882 53.4978 26.273 53.5494 26.3655 53.5823C26.458 53.6151 26.5563 53.6286 26.6542 53.6217H43.9601C44.058 53.6286 44.1562 53.6151 44.2488 53.5823C44.3413 53.5494 44.4261 53.4978 44.4978 53.4306C44.5696 53.3635 44.6268 53.2822 44.666 53.1919C44.7051 53.1016 44.7253 53.0042 44.7253 52.9058C44.7253 52.8073 44.7051 52.7099 44.666 52.6196C44.6268 52.5293 44.5696 52.4481 44.4978 52.3809C44.4261 52.3138 44.3413 52.2621 44.2488 52.2293C44.1562 52.1964 44.058 52.183 43.9601 52.1898H41.1296L39.6327 47.0196H49.6141C50.2273 47.0197 50.8159 46.7772 51.2521 46.3448C51.6884 45.9124 51.9371 45.3249 51.9444 44.7098V28.4362C51.9395 28.1272 51.8738 27.8223 51.7511 27.5388C51.6284 27.2554 51.4511 26.999 51.2295 26.7844C51.0078 26.5698 50.7461 26.4013 50.4594 26.2883C50.1726 26.1754 49.8665 26.1204 49.5585 26.1264ZM39.7439 52.256H30.9816L32.534 47.0301H38.1914L39.7439 52.256Z" fill="white" stroke="white" stroke-width="0.5"/>
<path d="M23.4938 30.9795H25.6019C25.6998 30.9864 25.7981 30.973 25.8906 30.9401C25.9831 30.9072 26.0679 30.8556 26.1397 30.7885C26.2115 30.7213 26.2687 30.64 26.3078 30.5498C26.347 30.4595 26.3672 30.3621 26.3672 30.2636C26.3672 30.1651 26.347 30.0677 26.3078 29.9774C26.2687 29.8871 26.2115 29.8059 26.1397 29.7387C26.0679 29.6716 25.9831 29.62 25.8906 29.5871C25.7981 29.5542 25.6998 29.5408 25.6019 29.5476H23.4938C23.3046 29.5503 23.1238 29.6267 22.9896 29.7606C22.8555 29.8945 22.7785 30.0755 22.7749 30.2653C22.788 30.4516 22.8682 30.6267 23.0004 30.7581C23.1327 30.8895 23.308 30.9682 23.4938 30.9795Z" fill="white"/>
<path d="M23.4938 33.0002H26.2722C26.461 33.0002 26.6421 32.925 26.7756 32.791C26.9091 32.6571 26.9841 32.4754 26.9841 32.286C26.9841 32.0966 26.9091 31.9149 26.7756 31.781C26.6421 31.647 26.461 31.5718 26.2722 31.5718H23.4938C23.3078 31.5734 23.1295 31.6466 22.9957 31.7762C22.862 31.9059 22.7829 32.0821 22.7749 32.2686C22.7839 32.4579 22.8623 32.6372 22.9949 32.7722C23.1276 32.9072 23.3052 32.9884 23.4938 33.0002Z" fill="white"/>
<path d="M23.4938 35.0906H26.9876C27.0855 35.0975 27.1838 35.0841 27.2763 35.0512C27.3688 35.0183 27.4536 34.9667 27.5254 34.8995C27.5972 34.8324 27.6544 34.7511 27.6935 34.6608C27.7327 34.5705 27.7529 34.4731 27.7529 34.3747C27.7529 34.2762 27.7327 34.1788 27.6935 34.0885C27.6544 33.9982 27.5972 33.917 27.5254 33.8498C27.4536 33.7827 27.3688 33.731 27.2763 33.6982C27.1838 33.6653 27.0855 33.6519 26.9876 33.6587H23.4938C23.3046 33.6614 23.1238 33.7378 22.9896 33.8717C22.8555 34.0056 22.7785 34.1866 22.7749 34.3764C22.788 34.5627 22.8682 34.7378 23.0004 34.8692C23.1327 35.0006 23.308 35.0793 23.4938 35.0906Z" fill="white"/>
<path d="M23.4938 37.1253H27.6614C27.7593 37.1322 27.8576 37.1187 27.9501 37.0859C28.0426 37.053 28.1274 37.0014 28.1992 36.9342C28.2709 36.867 28.3282 36.7858 28.3673 36.6955C28.4064 36.6052 28.4266 36.5078 28.4266 36.4093C28.4266 36.3109 28.4064 36.2135 28.3673 36.1232C28.3282 36.0329 28.2709 35.9516 28.1992 35.8845C28.1274 35.8173 28.0426 35.7657 27.9501 35.7328C27.8576 35.7 27.7593 35.6865 27.6614 35.6934H23.4938C23.3046 35.6961 23.1238 35.7724 22.9896 35.9064C22.8555 36.0403 22.7785 36.2213 22.7749 36.4111C22.788 36.5973 22.8682 36.7725 23.0004 36.9038C23.1327 37.0352 23.308 37.1139 23.4938 37.1253Z" fill="white"/>
<path d="M48.4506 30.9795C48.5485 30.9864 48.6468 30.973 48.7393 30.9401C48.8318 30.9072 48.9166 30.8556 48.9884 30.7885C49.0602 30.7213 49.1174 30.64 49.1565 30.5498C49.1957 30.4595 49.2159 30.3621 49.2159 30.2636C49.2159 30.1651 49.1957 30.0677 49.1565 29.9774C49.1174 29.8871 49.0602 29.8059 48.9884 29.7387C48.9166 29.6716 48.8318 29.62 48.7393 29.5871C48.6468 29.5542 48.5485 29.5408 48.4506 29.5476H46.3425C46.2446 29.5408 46.1463 29.5542 46.0538 29.5871C45.9613 29.62 45.8765 29.6716 45.8047 29.7387C45.733 29.8059 45.6757 29.8871 45.6366 29.9774C45.5975 30.0677 45.5773 30.1651 45.5773 30.2636C45.5773 30.3621 45.5975 30.4595 45.6366 30.5498C45.6757 30.64 45.733 30.7213 45.8047 30.7885C45.8765 30.8556 45.9613 30.9072 46.0538 30.9401C46.1463 30.973 46.2446 30.9864 46.3425 30.9795H48.4506Z" fill="white"/>
<path d="M45.0124 32.3382C45.0133 32.5308 45.0895 32.7153 45.2246 32.8521C45.3596 32.989 45.5428 33.0671 45.7348 33.0699H48.5132C48.6111 33.0767 48.7093 33.0633 48.8019 33.0304C48.8944 32.9976 48.9792 32.9459 49.0509 32.8788C49.1227 32.8116 49.1799 32.7304 49.2191 32.6401C49.2582 32.5498 49.2784 32.4524 49.2784 32.3539C49.2784 32.2555 49.2582 32.1581 49.2191 32.0678C49.1799 31.9775 49.1227 31.8962 49.0509 31.8291C48.9792 31.7619 48.8944 31.7103 48.8019 31.6774C48.7093 31.6445 48.6111 31.6311 48.5132 31.638H45.7348C45.641 31.6342 45.5474 31.6496 45.4596 31.6831C45.3719 31.7166 45.2918 31.7677 45.2243 31.8331C45.1568 31.8986 45.1032 31.9771 45.0668 32.0639C45.0304 32.1507 45.0119 32.2441 45.0124 32.3382Z" fill="white"/>
<path d="M44.29 34.3764C44.2997 34.5628 44.3797 34.7386 44.5139 34.868C44.648 34.9974 44.8262 35.0708 45.0124 35.0732H48.5062C48.6041 35.08 48.7023 35.0666 48.7949 35.0337C48.8874 35.0009 48.9722 34.9492 49.0439 34.8821C49.1157 34.8149 49.173 34.7337 49.2121 34.6434C49.2512 34.5531 49.2714 34.4557 49.2714 34.3572C49.2714 34.2588 49.2512 34.1614 49.2121 34.0711C49.173 33.9808 49.1157 33.8995 49.0439 33.8324C48.9722 33.7652 48.8874 33.7136 48.7949 33.6807C48.7023 33.6478 48.6041 33.6344 48.5062 33.6413H45.0124C44.8231 33.6538 44.645 33.7356 44.5119 33.8711C44.3787 34.0066 44.2998 34.1864 44.29 34.3764Z" fill="white"/>
<path d="M43.6266 36.4633C43.6311 36.6528 43.7084 36.8333 43.8423 36.967C43.9763 37.1008 44.1566 37.1774 44.3455 37.181H48.5131C48.611 37.1878 48.7093 37.1744 48.8018 37.1415C48.8943 37.1086 48.9791 37.057 49.0509 36.9899C49.1227 36.9227 49.1799 36.8415 49.219 36.7512C49.2582 36.6609 49.2784 36.5635 49.2784 36.465C49.2784 36.3665 49.2582 36.2691 49.219 36.1788C49.1799 36.0886 49.1227 36.0073 49.0509 35.9402C48.9791 35.873 48.8943 35.8214 48.8018 35.7885C48.7093 35.7556 48.611 35.7422 48.5131 35.7491H44.29C44.1082 35.7572 43.9368 35.8366 43.8128 35.9702C43.6888 36.1037 43.6219 36.2808 43.6266 36.4633Z" fill="white"/>
<path d="M31.1483 29.039L29.1513 32.6693C29.0965 32.7608 29.0676 32.8656 29.0676 32.9724C29.0676 33.0791 29.0965 33.1839 29.1513 33.2755C29.195 33.3667 29.257 33.4479 29.3335 33.5139C29.41 33.5798 29.4994 33.6291 29.5959 33.6587L32.3742 34.3764H32.5965C32.7918 34.6714 33.0151 34.9468 33.2633 35.1986L32.0964 37.181C31.731 37.2186 31.394 37.3957 31.1552 37.6757C30.7759 37.3263 30.281 37.1302 29.766 37.1252C29.5772 37.1252 29.3961 37.2005 29.2626 37.3344C29.1291 37.4684 29.0541 37.65 29.0541 37.8394C29.0541 38.0289 29.1291 38.2105 29.2626 38.3445C29.3961 38.4784 29.5772 38.5537 29.766 38.5537C29.955 38.5572 30.1353 38.6338 30.2693 38.7676C30.4032 38.9013 30.4805 39.0818 30.4849 39.2714C30.4976 39.4544 30.5791 39.6258 30.7128 39.751C30.8466 39.8762 31.0227 39.9458 31.2056 39.9458C31.3885 39.9458 31.5646 39.8762 31.6984 39.751C31.8321 39.6258 31.9136 39.4544 31.9262 39.2714C31.929 39.0954 32.0003 38.9276 32.125 38.8039C32.2496 38.6801 32.4177 38.6103 32.593 38.6094C32.774 38.6095 32.9485 38.6775 33.0821 38.7999C33.2158 38.9224 33.299 39.0905 33.3154 39.2714C33.3281 39.4544 33.4095 39.6258 33.5433 39.751C33.677 39.8762 33.8531 39.9458 34.0361 39.9458C34.219 39.9458 34.3951 39.8762 34.5288 39.751C34.6626 39.6258 34.744 39.4544 34.7567 39.2714C34.7567 38.9018 34.9031 38.5473 35.1636 38.2859C35.4241 38.0246 35.7775 37.8778 36.1459 37.8778C36.5143 37.8778 36.8677 38.0246 37.1282 38.2859C37.3887 38.5473 37.5351 38.9018 37.5351 39.2714C37.5478 39.4544 37.6292 39.6258 37.7629 39.751C37.8967 39.8762 38.0728 39.9458 38.2557 39.9458C38.4387 39.9458 38.6148 39.8762 38.7485 39.751C38.8823 39.6258 38.9637 39.4544 38.9764 39.2714C38.9749 39.1786 38.993 39.0865 39.0297 39.0013C39.0663 38.9161 39.1205 38.8397 39.1888 38.7771C39.2572 38.7145 39.3379 38.6672 39.4258 38.6383C39.5137 38.6094 39.6068 38.5995 39.6988 38.6094C39.8739 38.6112 40.0414 38.6813 40.1659 38.8048C40.2903 38.9284 40.362 39.0957 40.3656 39.2714C40.3782 39.4544 40.4597 39.6258 40.5934 39.751C40.7272 39.8762 40.9033 39.9458 41.0862 39.9458C41.2691 39.9458 41.4452 39.8762 41.579 39.751C41.7127 39.6258 41.7942 39.4544 41.8068 39.2714C41.8113 39.0818 41.8886 38.9013 42.0225 38.7676C42.1565 38.6338 42.3368 38.5572 42.5258 38.5537C42.7121 38.5521 42.8908 38.479 43.0251 38.3494C43.1595 38.2199 43.2393 38.0436 43.2481 37.8569C43.2481 37.4736 42.5813 37.1601 42.2514 37.1601C41.7364 37.1651 41.2415 37.3612 40.8622 37.7105C40.5801 37.491 40.2615 37.3235 39.921 37.2158L38.7576 35.2335C39.0036 34.9806 39.2257 34.7053 39.4209 34.4112H39.6432L42.4216 33.6935C42.5217 33.6669 42.6146 33.6181 42.6935 33.5508C42.7724 33.4835 42.8353 33.3993 42.8776 33.3045C42.9199 33.2096 42.9405 33.1065 42.9379 33.0026C42.9353 32.8987 42.9096 32.7967 42.8626 32.7041L40.8657 29.0738C40.8102 27.0249 40.2988 25.0144 39.3688 23.1894C37.5386 19.9459 34.7116 19.7264 32.7702 23.0814C31.7245 24.8929 31.1656 26.9458 31.1483 29.039ZM38.3582 24.36C39.0414 25.8815 39.3964 27.5306 39.4001 29.1992C39.4001 31.0144 38.8479 33.157 37.5142 34.3694H34.2983C33.1904 33.3242 32.4124 31.3419 32.4124 29.1992C32.4316 27.489 32.8103 25.802 33.5238 24.2485C35.0699 24.8654 36.7854 24.9049 38.3582 24.36ZM30.7593 32.5613L31.3706 31.5161C31.475 31.9633 31.6049 32.4041 31.7595 32.8365L30.7593 32.5613ZM33.76 37.5642C33.7337 37.5311 33.7005 37.5042 33.6627 37.4855C33.6248 37.4669 33.5833 37.4568 33.5412 37.4562L34.4823 35.8048H37.4205L38.3651 37.4562C38.3028 37.5127 38.2257 37.5502 38.1429 37.5642C37.8902 37.2193 37.5602 36.9388 37.1795 36.7455C36.7988 36.5522 36.3781 36.4515 35.9514 36.4515C35.5247 36.4515 35.104 36.5522 34.7233 36.7455C34.3426 36.9388 34.0126 37.2193 33.76 37.5642ZM40.1954 32.7807C40.35 32.3484 40.4799 31.9075 40.5844 31.4603L41.1921 32.5055L40.1954 32.7807ZM35.9722 22.0014C36.5279 22.0014 37.1392 22.4404 37.6358 23.1546C36.5424 23.439 35.3927 23.421 34.3087 23.1023C34.8644 22.3846 35.4721 22.0014 35.9722 22.0014Z" fill="white"/>
<path d="M35.9722 30.9796C36.3833 30.9747 36.7838 30.8481 37.1232 30.6155C37.4627 30.3829 37.726 30.0547 37.88 29.6724C38.034 29.29 38.0718 28.8705 37.9887 28.4666C37.9055 28.0628 37.7052 27.6926 37.4128 27.4027C37.1204 27.1127 36.7491 26.9161 36.3456 26.8374C35.9421 26.7587 35.5243 26.8015 35.145 26.9604C34.7656 27.1193 34.4416 27.3872 34.2137 27.7304C33.9858 28.0736 33.8642 28.4768 33.8641 28.8892C33.8641 29.1658 33.9188 29.4396 34.025 29.6948C34.1313 29.95 34.287 30.1816 34.483 30.376C34.6791 30.5704 34.9117 30.7239 35.1673 30.8275C35.423 30.9311 35.6965 30.9828 35.9722 30.9796ZM35.9722 28.2307C36.1127 28.2321 36.2497 28.2751 36.3659 28.3545C36.482 28.4338 36.5722 28.5458 36.625 28.6764C36.6778 28.807 36.691 28.9504 36.6627 29.0885C36.6345 29.2266 36.5661 29.3532 36.4663 29.4524C36.3664 29.5515 36.2396 29.6189 36.1016 29.6459C35.9637 29.6729 35.8209 29.6583 35.6912 29.6041C35.5616 29.5498 35.4508 29.4583 35.3728 29.341C35.2949 29.2237 35.2533 29.0859 35.2533 28.9449C35.2542 28.7533 35.33 28.5696 35.4645 28.4335C35.5989 28.2973 35.7812 28.2195 35.9722 28.2168V28.2307Z" fill="white"/>
<path d="M35.3089 43.3406C35.45 43.3427 35.5872 43.3868 35.7033 43.4674C35.8193 43.5479 35.9089 43.6612 35.9606 43.7929C36.0124 43.9245 36.0239 44.0687 35.9939 44.207C35.9638 44.3453 35.8934 44.4715 35.7917 44.5696C35.69 44.6677 35.5615 44.7332 35.4226 44.758C35.2837 44.7827 35.1406 44.7655 35.0114 44.7084C34.8823 44.6514 34.773 44.5572 34.6973 44.4377C34.6217 44.3182 34.5831 44.1789 34.5865 44.0374C34.592 43.8495 34.6707 43.6712 34.8058 43.5409C34.9409 43.4106 35.1215 43.3387 35.3089 43.3406Z" fill="white"/>
</g>
<defs>
<clipPath id="clip0_454_1669">
<rect width="32" height="33" fill="white" transform="translate(20 20.6252)"/>
</clipPath>
</defs>
</svg>
