<svg width="48" height="49" viewBox="0 0 48 49" fill="none" xmlns="http://www.w3.org/2000/svg">
<rect y="0.374756" width="48" height="48" rx="4" fill="#F6EBFF"/>
<path d="M33.78 18.8948C33.4638 17.8744 32.8291 16.9821 31.9689 16.3486C31.1087 15.7152 30.0683 15.3739 29 15.3748H19C17.9317 15.3739 16.8913 15.7152 16.0311 16.3486C15.1709 16.9821 14.5362 17.8744 14.22 18.8948C14.0757 19.3749 14.0016 19.8734 14 20.3748V28.3748C14.0005 29.7007 14.5275 30.9721 15.4651 31.9097C16.4026 32.8473 17.6741 33.3742 19 33.3748H29C30.3259 33.3742 31.5974 32.8473 32.5349 31.9097C33.4725 30.9721 33.9995 29.7007 34 28.3748V20.3748C33.9984 19.8734 33.9243 19.3749 33.78 18.8948ZM19 17.3748H29C29.7117 17.3769 30.3996 17.6312 30.9416 18.0926C31.4835 18.554 31.8443 19.1925 31.96 19.8948L24 24.2348L16.04 19.8948C16.1557 19.1925 16.5165 18.554 17.0584 18.0926C17.6004 17.6312 18.2883 17.3769 19 17.3748ZM32 28.3748C31.9976 29.1697 31.6808 29.9314 31.1187 30.4935C30.5566 31.0556 29.7949 31.3724 29 31.3748H19C18.2051 31.3724 17.4434 31.0556 16.8813 30.4935C16.3192 29.9314 16.0024 29.1697 16 28.3748V22.1548L23.52 26.2548C23.6677 26.3337 23.8325 26.375 24 26.375C24.1675 26.375 24.3323 26.3337 24.48 26.2548L32 22.1548V28.3748Z" fill="#473391"/>
</svg>
