<svg width="48" height="49" viewBox="0 0 48 49" fill="none" xmlns="http://www.w3.org/2000/svg">
<rect y="0.374756" width="48" height="48" rx="4" fill="#473391"/>
<path d="M30.0001 16.8547C28.4088 15.2634 26.2505 14.3694 24.0001 14.3694C21.7496 14.3694 19.5914 15.2634 18.0001 16.8547C16.4088 18.446 15.5148 20.6042 15.5148 22.8547C15.5148 25.1051 16.4088 27.2634 18.0001 28.8547L23.2701 34.1347C23.363 34.2284 23.4736 34.3028 23.5955 34.3536C23.7173 34.4043 23.848 34.4305 23.9801 34.4305C24.1121 34.4305 24.2428 34.4043 24.3646 34.3536C24.4865 34.3028 24.5971 34.2284 24.6901 34.1347L30.0001 28.8047C31.5847 27.22 32.4749 25.0707 32.4749 22.8297C32.4749 20.5886 31.5847 18.4393 30.0001 16.8547ZM28.5701 27.3747L24.0001 31.9647L19.4301 27.3747C18.5272 26.471 17.9125 25.3199 17.6637 24.067C17.415 22.814 17.5432 21.5154 18.0324 20.3353C18.5215 19.1553 19.3495 18.1467 20.4117 17.4371C21.4739 16.7276 22.7226 16.3488 24.0001 16.3488C25.2775 16.3488 26.5262 16.7276 27.5884 17.4371C28.6506 18.1467 29.4786 19.1553 29.9677 20.3353C30.4569 21.5154 30.5851 22.814 30.3364 24.067C30.0876 25.3199 29.4729 26.471 28.5701 27.3747ZM21.0001 19.7847C20.1928 20.5944 19.7394 21.6912 19.7394 22.8347C19.7394 23.9781 20.1928 25.0749 21.0001 25.8847C21.5998 26.4855 22.3636 26.8957 23.1957 27.0641C24.0278 27.2324 24.891 27.1512 25.6771 26.8308C26.4632 26.5104 27.1372 25.9649 27.6145 25.2629C28.0918 24.5609 28.3512 23.7335 28.3601 22.8847C28.3646 22.3179 28.2554 21.7559 28.039 21.2321C27.8225 20.7082 27.5033 20.233 27.1001 19.8347C26.7037 19.4292 26.2311 19.1062 25.7095 18.8841C25.1878 18.6621 24.6274 18.5453 24.0605 18.5407C23.4935 18.536 22.9313 18.6436 22.406 18.8571C21.8808 19.0705 21.403 19.3858 21.0001 19.7847ZM25.6901 24.4647C25.3111 24.8494 24.8103 25.0906 24.2732 25.1469C23.7361 25.2033 23.1961 25.0713 22.7456 24.7736C22.295 24.4759 21.9618 24.0309 21.8031 23.5147C21.6443 22.9986 21.6697 22.4433 21.875 21.9438C22.0803 21.4443 22.4528 21.0317 22.9286 20.7764C23.4045 20.5211 23.9543 20.4391 24.484 20.5443C25.0137 20.6495 25.4904 20.9354 25.8326 21.3532C26.1748 21.771 26.3612 22.2946 26.3601 22.8347C26.3455 23.4519 26.0865 24.0382 25.6401 24.4647H25.6901Z" fill="white"/>
</svg>
