<svg width="48" height="49" viewBox="0 0 48 49" fill="none" xmlns="http://www.w3.org/2000/svg">
<rect y="0.374756" width="48" height="48" rx="4" fill="#F6EBFF"/>
<path d="M32.481 27.8616L30.831 26.2116C30.3392 25.7237 29.6753 25.4486 28.9825 25.4456C28.2897 25.4427 27.6235 25.7121 27.1275 26.1958C26.8629 26.462 26.5137 26.6276 26.1402 26.6641C25.7666 26.7007 25.392 26.6059 25.0808 26.3961C23.8524 25.5763 22.7972 24.5231 21.975 23.2963C21.7689 22.9816 21.6775 22.6055 21.7163 22.2313C21.7551 21.8572 21.9217 21.5078 22.188 21.2421C22.6674 20.7456 22.9333 20.0813 22.929 19.3912C22.9246 18.7011 22.6503 18.0402 22.1648 17.5498L20.5148 15.8998C20.0208 15.4075 19.3518 15.1311 18.6544 15.1311C17.957 15.1311 17.288 15.4075 16.794 15.8998L16.3193 16.3753C13.8443 18.8503 14.0295 24.0538 19.179 29.2003C22.284 32.3061 25.4093 33.6066 27.9435 33.6066C28.6895 33.6314 29.433 33.5075 30.1307 33.2422C30.8283 32.9768 31.4661 32.5752 32.007 32.0608L32.4825 31.5853C32.9757 31.0911 33.2526 30.4213 33.2523 29.7231C33.252 29.0249 32.9746 28.3554 32.481 27.8616ZM31.4205 30.5248L30.945 31.0003C28.995 32.9503 24.6908 32.5941 20.238 28.1406C15.7853 23.6871 15.4283 19.3798 17.3783 17.4298L17.85 16.9551C18.0624 16.7434 18.3501 16.6246 18.6499 16.6246C18.9498 16.6246 19.2374 16.7434 19.4498 16.9551L21.0998 18.6051C21.3083 18.8147 21.4267 19.0975 21.4296 19.3931C21.4326 19.6888 21.3199 19.9739 21.1155 20.1876C20.6087 20.6976 20.2926 21.3663 20.2201 22.0816C20.1476 22.797 20.3231 23.5155 20.7173 24.1168C21.6514 25.5148 22.8527 26.7142 24.252 27.6463C24.8516 28.0405 25.5682 28.2171 26.2823 28.1465C26.9963 28.076 27.6645 27.7625 28.1753 27.2586C28.3886 27.0518 28.6745 26.937 28.9715 26.9388C29.2686 26.9407 29.553 27.059 29.7638 27.2683L31.4138 28.9183C31.5201 29.0231 31.6047 29.1479 31.6626 29.2855C31.7206 29.4232 31.7507 29.5709 31.7513 29.7202C31.752 29.8695 31.723 30.0174 31.6663 30.1555C31.6095 30.2936 31.526 30.4191 31.4205 30.5248Z" fill="#473391"/>
</svg>
