<svg width="156" height="220" viewBox="0 0 156 220" fill="none" xmlns="http://www.w3.org/2000/svg">
<rect opacity="0.25" x="7.62939e-06" y="192" width="28" height="28" fill="#8083BF"/>
<rect opacity="0.2" x="7.62939e-06" y="160" width="28" height="28" fill="#656EB4"/>
<rect x="1.52588e-05" y="128" width="28" height="28" fill="white"/>
<rect opacity="0.1" x="1.52588e-05" y="96.0001" width="28" height="28" fill="#22BDBD"/>
<rect opacity="0.1" x="2.28882e-05" y="64.0001" width="28" height="28" fill="#656EB4"/>
<rect opacity="0.08" x="32" width="28" height="28" fill="#656EB4"/>
<rect opacity="0.08" x="2.28882e-05" y="32.0001" width="28" height="28" fill="#473391"/>
<rect opacity="0.25" x="32" y="192" width="28" height="28" fill="#EC136E"/>
<rect x="32" y="160" width="28" height="28" fill="white"/>
<rect opacity="0.15" x="32" y="128" width="28" height="28" fill="#656EB4"/>
<rect opacity="0.1" x="32" y="96.0001" width="28" height="28" fill="#473391"/>
<rect opacity="0.08" x="32" y="32.0001" width="28" height="28" fill="#8083BF"/>
<rect x="64" y="192" width="28" height="28" fill="white"/>
<rect opacity="0.2" x="64" y="160" width="28" height="28" fill="#F0598E"/>
<rect opacity="0.15" x="64" y="128" width="28" height="28" fill="#473391"/>
<rect x="64" y="96.0001" width="28" height="28" fill="white"/>
<rect opacity="0.1" x="64" y="64.0001" width="28" height="28" fill="#473391"/>
<rect opacity="0.08" x="64" y="32.0001" width="28" height="28" fill="#F288B7"/>
<rect opacity="0.25" x="96" y="192" width="28" height="28" fill="#22BDBD"/>
<rect x="96" y="160" width="28" height="28" fill="white"/>
<rect opacity="0.15" x="96" y="128" width="28" height="28" fill="#8083BF"/>
<rect opacity="0.1" x="96" y="96.0001" width="28" height="28" fill="#EC136E"/>
<rect opacity="0.25" x="128" y="192" width="28" height="28" fill="#8083BF"/>
<rect opacity="0.2" x="128" y="160" width="28" height="28" fill="#22BDBD"/>
<rect opacity="0.1" x="128" y="96.0001" width="28" height="28" fill="#8083BF"/>
</svg>
