<svg width="156" height="220" viewBox="0 0 156 220" fill="none" xmlns="http://www.w3.org/2000/svg">
<rect opacity="0.25" x="156" y="28" width="28" height="28" transform="rotate(-180 156 28)" fill="#8083BF"/>
<rect opacity="0.2" x="156" y="60" width="28" height="28" transform="rotate(-180 156 60)" fill="#656EB4"/>
<rect x="156" y="91.9999" width="28" height="28" transform="rotate(-180 156 91.9999)" fill="white"/>
<rect opacity="0.1" x="156" y="124" width="28" height="28" transform="rotate(-180 156 124)" fill="#22BDBD"/>
<rect opacity="0.1" x="156" y="156" width="28" height="28" transform="rotate(-180 156 156)" fill="#656EB4"/>
<rect opacity="0.08" x="124" y="220" width="28" height="28" transform="rotate(-180 124 220)" fill="#656EB4"/>
<rect opacity="0.08" x="156" y="188" width="28" height="28" transform="rotate(-180 156 188)" fill="#473391"/>
<rect opacity="0.25" x="124" y="28" width="28" height="28" transform="rotate(-180 124 28)" fill="#EC136E"/>
<rect x="124" y="60" width="28" height="28" transform="rotate(-180 124 60)" fill="white"/>
<rect opacity="0.15" x="124" y="91.9999" width="28" height="28" transform="rotate(-180 124 91.9999)" fill="#656EB4"/>
<rect opacity="0.1" x="124" y="124" width="28" height="28" transform="rotate(-180 124 124)" fill="#473391"/>
<rect opacity="0.08" x="124" y="188" width="28" height="28" transform="rotate(-180 124 188)" fill="#8083BF"/>
<rect x="92" y="28" width="28" height="28" transform="rotate(-180 92 28)" fill="white"/>
<rect opacity="0.2" x="92" y="60" width="28" height="28" transform="rotate(-180 92 60)" fill="#F0598E"/>
<rect opacity="0.15" x="92" y="91.9999" width="28" height="28" transform="rotate(-180 92 91.9999)" fill="#473391"/>
<rect x="92" y="124" width="28" height="28" transform="rotate(-180 92 124)" fill="white"/>
<rect opacity="0.1" x="92" y="156" width="28" height="28" transform="rotate(-180 92 156)" fill="#473391"/>
<rect opacity="0.08" x="92" y="188" width="28" height="28" transform="rotate(-180 92 188)" fill="#F288B7"/>
<rect opacity="0.25" x="60" y="28" width="28" height="28" transform="rotate(-180 60 28)" fill="#22BDBD"/>
<rect x="60" y="60" width="28" height="28" transform="rotate(-180 60 60)" fill="white"/>
<rect opacity="0.15" x="60" y="91.9999" width="28" height="28" transform="rotate(-180 60 91.9999)" fill="#8083BF"/>
<rect opacity="0.1" x="60" y="124" width="28" height="28" transform="rotate(-180 60 124)" fill="#EC136E"/>
<rect opacity="0.25" x="28" y="28" width="28" height="28" transform="rotate(-180 28 28)" fill="#8083BF"/>
<rect opacity="0.2" x="28" y="60" width="28" height="28" transform="rotate(-180 28 60)" fill="#22BDBD"/>
<rect opacity="0.1" x="28" y="124" width="28" height="28" transform="rotate(-180 28 124)" fill="#8083BF"/>
</svg>
